<svg width="16" height="16" viewBox="0 0 16 16" fill="none" xmlns="http://www.w3.org/2000/svg">
<g clip-path="url(#clip0_1726_12508)">
<path d="M13.8553 10.326C13.7326 10.3263 13.6143 10.2808 13.5235 10.1983C13.4327 10.1158 13.376 10.0023 13.3646 9.8802L13.2962 9.1805C13.2829 9.04885 13.2179 8.92785 13.1155 8.84403C13.0131 8.76021 12.8817 8.72039 12.75 8.73332C12.6183 8.74624 12.4971 8.81085 12.413 8.91298C12.3288 9.0151 12.2886 9.14643 12.3011 9.27816L12.3695 9.97787C12.4043 10.3474 12.5761 10.6906 12.851 10.94C13.1259 11.1895 13.4841 11.3271 13.8553 11.326C13.9472 11.3264 14.0351 11.3631 14.1 11.4282C14.1648 11.4932 14.2012 11.5813 14.2012 11.6732C14.2012 11.765 14.1648 11.8531 14.1 11.9182C14.0351 11.9833 13.9472 12.02 13.8553 12.0203H2.14438C2.05253 12.02 1.96457 11.9833 1.89975 11.9182C1.83492 11.8531 1.79853 11.765 1.79853 11.6732C1.79853 11.5813 1.83492 11.4932 1.89975 11.4282C1.96457 11.3631 2.05253 11.3264 2.14438 11.326C2.51565 11.3271 2.87393 11.1894 3.14885 10.9398C3.42377 10.6903 3.59546 10.347 3.63022 9.97737L4.11313 5.02571C4.16461 4.50038 4.32198 3.99094 4.57577 3.52811C4.82955 3.06528 5.17447 2.65867 5.58972 2.33281C6.00497 2.00696 6.48194 1.76861 6.99184 1.63216C7.50173 1.49571 8.03399 1.46398 8.55649 1.53889C9.17556 1.62456 9.76275 1.86598 10.263 2.24055C10.3696 2.31955 10.5032 2.35297 10.6344 2.33346C10.7656 2.31396 10.8837 2.24313 10.9627 2.13655C11.0417 2.02997 11.0752 1.89638 11.0557 1.76516C11.0361 1.63394 10.9653 1.51584 10.8587 1.43684C10.2226 0.964931 9.47847 0.659607 8.69418 0.548658C8.03818 0.455043 7.37002 0.495285 6.72999 0.666957C6.08997 0.838628 5.49136 1.13817 4.97026 1.54751C4.44917 1.95686 4.0164 2.46752 3.69806 3.04869C3.37971 3.62986 3.1824 4.26949 3.11801 4.929L2.6351 9.88018C2.62369 10.0023 2.56702 10.1158 2.47622 10.1983C2.38542 10.2808 2.26705 10.3263 2.14438 10.326C1.78754 10.3267 1.44555 10.4689 1.19346 10.7215C0.941382 10.974 0.799805 11.3163 0.799805 11.6731C0.799805 12.03 0.941382 12.3723 1.19346 12.6248C1.44555 12.8774 1.78754 13.0196 2.14438 13.0203H5.69418V13.1946C5.69418 13.4974 5.75382 13.7972 5.86969 14.077C5.98556 14.3567 6.1554 14.6109 6.3695 14.825C6.5836 15.0391 6.83777 15.2089 7.11751 15.3248C7.39725 15.4407 7.69706 15.5003 7.99985 15.5003C8.30263 15.5003 8.60245 15.4407 8.88219 15.3248C9.16193 15.2089 9.4161 15.0391 9.6302 14.825C9.8443 14.6109 10.0141 14.3567 10.13 14.077C10.2459 13.7972 10.3055 13.4974 10.3055 13.1946V13.0203H13.8553C14.2122 13.0196 14.5542 12.8774 14.8062 12.6248C15.0583 12.3723 15.1999 12.03 15.1999 11.6731C15.1999 11.3163 15.0583 10.974 14.8062 10.7215C14.5542 10.4689 14.2122 10.3267 13.8553 10.326ZM9.30551 13.1947C9.30551 13.5409 9.16795 13.873 8.92309 14.1179C8.67823 14.3628 8.34613 14.5003 7.99985 14.5003C7.65357 14.5003 7.32146 14.3628 7.0766 14.1179C6.83175 13.873 6.69418 13.5409 6.69418 13.1947V13.0203H9.30551V13.1947Z" fill="white"/>
<path d="M10.2627 9.7088H5.7373C5.6047 9.7088 5.47752 9.76148 5.38375 9.85525C5.28998 9.94901 5.2373 10.0762 5.2373 10.2088C5.2373 10.3414 5.28998 10.4686 5.38375 10.5624C5.47752 10.6561 5.6047 10.7088 5.7373 10.7088H10.2627C10.3953 10.7088 10.5225 10.6561 10.6162 10.5624C10.71 10.4686 10.7627 10.3414 10.7627 10.2088C10.7627 10.0762 10.71 9.94901 10.6162 9.85525C10.5225 9.76148 10.3953 9.7088 10.2627 9.7088ZM12.4912 7.54815C12.5569 7.54819 12.6219 7.53528 12.6826 7.51017C12.7433 7.48506 12.7984 7.44823 12.8448 7.40179C12.8913 7.35536 12.9281 7.30022 12.9532 7.23954C12.9783 7.17886 12.9912 7.11383 12.9912 7.04815V5.804H14.2353C14.368 5.804 14.4951 5.75132 14.5889 5.65755C14.6827 5.56378 14.7353 5.43661 14.7353 5.304C14.7353 5.17139 14.6827 5.04421 14.5889 4.95045C14.4951 4.85668 14.368 4.804 14.2353 4.804H12.9912V3.56036C12.9912 3.42776 12.9385 3.30058 12.8448 3.20681C12.751 3.11304 12.6238 3.06036 12.4912 3.06036C12.3586 3.06036 12.2314 3.11304 12.1377 3.20681C12.0439 3.30058 11.9912 3.42776 11.9912 3.56036V4.804H10.7476C10.615 4.804 10.4878 4.85668 10.394 4.95045C10.3002 5.04421 10.2476 5.17139 10.2476 5.304C10.2476 5.43661 10.3002 5.56378 10.394 5.65755C10.4878 5.75132 10.615 5.804 10.7476 5.804H11.9912V7.04814C11.9912 7.11381 12.0041 7.17885 12.0292 7.23953C12.0543 7.30021 12.0911 7.35535 12.1376 7.40179C12.184 7.44823 12.2391 7.48505 12.2998 7.51017C12.3605 7.53528 12.4255 7.54819 12.4912 7.54815Z" fill="white"/>
</g>
<defs>
<clipPath id="clip0_1726_12508">
<rect width="16" height="16" fill="white"/>
</clipPath>
</defs>
</svg>
