<svg width="18" height="18" viewBox="0 0 18 18" fill="none" xmlns="http://www.w3.org/2000/svg">
<path d="M9.22699 15.7985C8.33404 15.7985 7.49422 15.6291 6.70751 15.2903C5.92129 14.9511 5.23722 14.4907 4.65533 13.9093C4.07343 13.3284 3.61285 12.645 3.27357 11.8593C2.93429 11.0735 2.76465 10.2339 2.76465 9.34051C2.76465 8.44757 2.93405 7.60775 3.27285 6.82104C3.61213 6.03481 4.07248 5.35075 4.65389 4.76885C5.23483 4.18696 5.91818 3.72637 6.70393 3.38709C7.48968 3.04781 8.32926 2.87817 9.22268 2.87817C10.1156 2.87817 10.9554 3.04757 11.7422 3.38637C12.5284 3.72565 13.2124 4.186 13.7943 4.76742C14.3762 5.34836 14.8368 6.0317 15.1761 6.81745C15.5154 7.6032 15.685 8.44278 15.685 9.3362C15.685 10.2291 15.5156 11.069 15.1768 11.8557C14.8375 12.6419 14.3772 13.326 13.7958 13.9079C13.2148 14.4898 12.5315 14.9503 11.7457 15.2896C10.96 15.6289 10.1204 15.7985 9.22699 15.7985ZM8.50703 15.0449V13.6451C8.11225 13.6451 7.7744 13.5047 7.4935 13.2238C7.2126 12.9429 7.07192 12.6048 7.07144 12.2096V11.4918L3.62601 8.04632C3.59012 8.26166 3.55734 8.477 3.52767 8.69234C3.498 8.90768 3.48293 9.12302 3.48245 9.33836C3.48245 10.7859 3.95811 12.054 4.90943 13.1427C5.86075 14.2313 7.05995 14.8654 8.50703 15.0449ZM13.4598 13.2145C13.6991 12.9513 13.9144 12.6673 14.1059 12.3624C14.2973 12.0576 14.4557 11.7406 14.581 11.4114C14.7069 11.0821 14.8026 10.744 14.8682 10.3971C14.9337 10.0502 14.9667 9.69726 14.9672 9.33836C14.9672 8.15925 14.6435 7.08232 13.996 6.10755C13.3486 5.13278 12.476 4.43005 11.3782 3.99937V4.31377C11.3782 4.70856 11.2378 5.04664 10.9569 5.32802C10.676 5.6094 10.3379 5.74985 9.94263 5.74937H8.50703V7.18496C8.50703 7.38834 8.43813 7.55894 8.30031 7.69675C8.16249 7.83457 7.99213 7.90324 7.78924 7.90276H6.35364V9.33836H10.6604C10.8638 9.33836 11.0344 9.40727 11.1722 9.54508C11.31 9.6829 11.3787 9.85326 11.3782 10.0562V12.2096H12.096C12.4071 12.2096 12.6882 12.3024 12.9394 12.4881C13.1907 12.6737 13.3641 12.9159 13.4598 13.2145Z" fill="#A6A6A6"/>
</svg>
