<svg width="25" height="30" viewBox="0 0 25 30" fill="none" xmlns="http://www.w3.org/2000/svg">
<path d="M12.4531 22.2668V28.7242H12.717V21.9492C12.6378 22.0815 12.5587 22.108 12.4531 22.2668Z" fill="#A5A5A5"/>
<path d="M23.0908 9.14062L18.3672 11.84C18.3672 11.9459 18.3672 12.0517 18.3672 12.1311L23.2227 9.3788L23.0908 9.14062Z" fill="#A5A5A5"/>
<path d="M6.59475 18.5888L0.842012 21.8704V9.08808L7.06975 12.6872C7.14891 12.6343 7.20169 12.5549 7.28086 12.502L0.578125 8.63818V22.3203L6.56836 18.8799C6.59475 18.7741 6.59475 18.6947 6.59475 18.5888Z" fill="#A5A5A5"/>
<path d="M12.4531 1.99512V8.55829C12.5323 8.55829 12.6378 8.55829 12.717 8.58476V2.47148L23.9322 9.32576V21.1024L23.1406 21.6846L18.3642 18.9059C18.3642 19.0117 18.3642 19.1176 18.3642 19.2235L23.1669 22.0022L24.2225 21.2612V9.19344L12.4531 1.99512Z" fill="#A5A5A5"/>
<path d="M13.3009 14.7515C13.2745 14.8309 13.2481 14.9632 13.1953 15.0955L13.3009 15.0426C13.3009 14.9367 13.3009 14.8309 13.3009 14.7515Z" fill="#A5A5A5"/>
<path d="M13.3784 16.0215L12.9298 15.7568C12.9034 15.8362 12.8506 15.9156 12.8242 15.995L13.4312 16.3391C13.4048 16.2332 13.3784 16.1273 13.3784 16.0215Z" fill="#A5A5A5"/>
<path d="M12.4819 29.8624L0 22.6641V8.21453L12.4819 0.989746L24.9637 8.21453V22.6641L12.4819 29.8624ZM1.71527 21.6585L12.4819 27.9041L23.2221 21.6585V9.19371L12.4819 2.97458L1.71527 9.19371V21.6585Z" fill="url(#paint0_linear_5629_55938)"/>
<path d="M12.9851 15.8366C12.3518 16.6306 11.6657 17.4245 11.2435 18.3772C11.2171 18.4566 11.0324 19.0388 11.0324 19.1182C10.9268 20.018 11.3227 20.7325 12.1407 21.0501C12.2199 21.0766 12.9324 21.0766 13.3018 20.7325C13.3546 20.6796 13.4074 20.6267 13.4865 20.5738C13.4865 20.5738 13.9088 20.1768 14.0407 19.1182C14.1726 17.9802 13.7504 16.9217 13.3018 15.8895C13.2226 15.7043 13.0907 15.7043 12.9851 15.8366Z" fill="#49AA4C"/>
<path d="M5.22656 15.1749C5.596 14.8309 5.93906 14.4869 6.33489 14.1693C8.10293 12.6873 9.89736 11.2053 11.6654 9.6968C12.1932 9.2469 12.7473 9.2469 13.2751 9.6968C13.8821 10.1996 14.489 10.7289 15.0959 11.2317C15.1487 11.2847 15.2279 11.3376 15.3334 11.417C15.3334 10.8612 15.3334 10.3584 15.3334 9.85558C15.3334 9.48508 15.3862 9.40569 15.782 9.40569C16.257 9.40569 16.732 9.40569 17.2334 9.40569C17.5501 9.40569 17.6293 9.48508 17.6293 9.80265C17.6293 10.9142 17.6293 12.0257 17.6293 13.1107C17.6293 13.243 17.7084 13.4018 17.814 13.4812C18.3681 13.9576 18.9223 14.4075 19.4765 14.8838C19.5556 14.9632 19.6348 15.0691 19.714 15.1485C19.714 15.1749 19.714 15.2279 19.714 15.2543C19.5292 15.4925 19.3445 15.7042 19.1598 15.9159C18.9487 16.1541 18.8167 16.1806 18.5792 15.9689C17.4181 14.9897 16.257 14.037 15.0959 13.0578C14.2779 12.3962 13.4862 11.7081 12.6682 11.02C12.5362 10.9142 12.4571 10.9142 12.3251 11.02C10.3724 12.6608 8.4196 14.2751 6.46683 15.9159C6.15017 16.1806 6.01822 16.1806 5.75434 15.863C5.56962 15.6513 5.41128 15.4131 5.25295 15.2014C5.22656 15.2279 5.22656 15.2014 5.22656 15.1749Z" fill="url(#paint1_linear_5629_55938)"/>
<path d="M12.4798 11.7075C13.6937 12.7132 14.8812 13.6924 16.0951 14.698C16.5437 15.0685 17.0187 15.439 17.4673 15.836C17.5465 15.9154 17.6256 16.0477 17.6256 16.1535C17.6256 17.5297 17.6256 18.9058 17.6256 20.282C17.6256 20.626 17.4145 20.8642 17.0978 20.8642C15.9895 20.8642 14.8812 20.8642 13.7729 20.8642C13.7201 20.8642 13.1395 20.8377 13.0604 20.8377C14.2215 19.8321 14.1687 18.6147 13.5881 17.4503C13.2187 16.1271 13.5354 15.0156 11.7409 17.4503C10.8173 18.4824 10.8437 20.3085 11.8993 20.8377C11.7937 20.8377 11.1076 20.8642 11.0284 20.8642C9.99929 20.8642 8.94374 20.8642 7.91458 20.8642C7.49236 20.8642 7.30764 20.679 7.28125 20.2291C7.28125 18.8794 7.28125 17.5297 7.28125 16.18C7.28125 16.0741 7.36041 15.9154 7.43958 15.836C9.12846 14.4863 10.7909 13.1101 12.4798 11.7075Z" fill="url(#paint2_linear_5629_55938)"/>
<path d="M12.9851 15.8366C12.3518 16.6306 11.6657 17.4245 11.2435 18.3772C11.2171 18.4566 11.0324 19.0388 11.0324 19.1182C10.9268 20.018 11.3227 20.7325 12.1407 21.0501C12.1671 21.0501 12.1935 20.8384 12.1143 20.7855C11.4018 20.3885 11.1116 19.8063 11.2963 18.9859C11.481 18.2184 11.9296 17.5833 12.3782 16.9481C12.5893 16.657 12.8268 16.3659 13.0907 16.0483C13.5393 17.1598 13.9088 18.2449 13.7504 19.4093C13.6713 19.9121 13.4865 20.3356 13.0643 20.6267C13.0115 20.6531 13.0643 20.9443 13.3018 20.7325C13.3546 20.6796 13.4074 20.6267 13.4865 20.5738C13.4865 20.5738 13.9088 20.1768 14.0407 19.1182C14.1726 17.9802 13.7504 16.9217 13.3018 15.8895C13.2226 15.7043 13.0907 15.7043 12.9851 15.8366Z" fill="url(#paint3_linear_5629_55938)"/>
<path d="M12.8485 17.0537C12.6638 18.5093 12.6638 19.9648 12.7957 21.3939C12.7957 21.4733 12.5846 21.4997 12.5846 21.4203C12.4263 20.15 12.4263 18.9062 12.6902 17.6624C12.6902 17.4771 12.7693 17.2654 12.8485 17.0537Z" fill="url(#paint4_linear_5629_55938)"/>
<defs>
<linearGradient id="paint0_linear_5629_55938" x1="0.602982" y1="2.66238" x2="24.161" y2="27.8685" gradientUnits="userSpaceOnUse">
<stop stop-color="#2E599A"/>
<stop offset="1" stop-color="#4D94FE"/>
</linearGradient>
<linearGradient id="paint1_linear_5629_55938" x1="11.1321" y1="8.80926" x2="12.704" y2="16.2944" gradientUnits="userSpaceOnUse">
<stop offset="0.0111982" stop-color="#19A9DF"/>
<stop offset="1" stop-color="#0B8DFF"/>
</linearGradient>
<linearGradient id="paint2_linear_5629_55938" x1="9.8238" y1="11.6071" x2="13.4655" y2="20.7283" gradientUnits="userSpaceOnUse">
<stop offset="0.0111982" stop-color="#19A9DF"/>
<stop offset="1" stop-color="#0B8DFF"/>
</linearGradient>
<linearGradient id="paint3_linear_5629_55938" x1="12.535" y1="15.7399" x2="12.535" y2="21.0374" gradientUnits="userSpaceOnUse">
<stop stop-color="#025227"/>
<stop offset="1" stop-color="#095B2E"/>
</linearGradient>
<linearGradient id="paint4_linear_5629_55938" x1="12.6509" y1="17.0527" x2="12.6509" y2="21.4759" gradientUnits="userSpaceOnUse">
<stop stop-color="#025227"/>
<stop offset="1" stop-color="#00652E"/>
</linearGradient>
</defs>
</svg>
