<svg width="15" height="16" viewBox="0 0 15 16" fill="none" xmlns="http://www.w3.org/2000/svg">
<path d="M4.97738 11.6558C7.75801 8.89109 10.5148 6.15409 13.2955 3.38933C13.4145 3.82566 13.5216 4.23026 13.6326 4.63883C14.0769 6.30483 14.5212 7.97082 14.9734 9.63285C15.013 9.77565 14.9853 9.85895 14.8821 9.95812C13.1487 11.6796 11.4153 13.4091 9.6858 15.1386C9.60647 15.2179 9.53904 15.2814 9.40021 15.2457C6.98451 14.615 4.56485 13.9882 2.14916 13.3655C1.99842 13.3258 1.91909 13.2703 1.88339 13.1076C1.76836 12.5999 1.63746 12.0922 1.49862 11.5884C1.45499 11.4258 1.55812 11.3583 1.64539 11.275C3.86275 9.04579 6.08011 6.81256 8.30144 4.5833C9.55094 3.32587 10.8004 2.0724 12.0539 0.818938C12.157 0.715805 12.1808 0.648372 12.0539 0.557138C11.9666 0.493672 11.8833 0.418305 11.8 0.346906C11.8119 0.323106 11.8238 0.295339 11.8357 0.271539C12.1372 0.271539 12.4347 0.275506 12.7362 0.271539C12.9821 0.267572 13.2241 0.259639 13.47 0.251706C13.5652 0.247739 13.6366 0.255672 13.6247 0.386572C13.5811 0.898271 13.5493 1.41394 13.5097 1.94547C13.3669 1.87407 13.2796 1.76697 13.1923 1.6678C13.0971 1.56467 13.0376 1.56864 12.9424 1.6678C11.8794 2.74277 10.8084 3.81376 9.74134 4.88873C7.49621 7.13782 5.25902 9.37899 3.02975 11.6241C2.92662 11.7272 2.76399 11.7986 2.78382 12.0009C2.81952 12.3976 2.81159 12.4016 3.22015 12.5087C5.14398 13.0164 7.06781 13.5202 8.98767 14.0319C9.13444 14.0715 9.22567 14.0517 9.33277 13.9406C10.7766 12.4849 12.2205 11.0331 13.6683 9.58525C13.7675 9.48609 13.7794 9.39882 13.7437 9.27189C13.4145 8.18502 13.0971 7.09419 12.7719 6.00733C12.7044 5.77726 12.7044 5.77329 12.5259 5.94783C10.5466 7.93116 8.56721 9.91845 6.59578 11.9097C6.45695 12.0485 6.34191 12.0763 6.16341 12.0168C5.79055 11.8938 5.40181 11.7867 4.97738 11.6558Z" fill="#2C80FC"/>
<path d="M6.96242 4.73399C6.86722 4.64672 6.76408 4.56342 6.67682 4.46822C6.58558 4.36905 6.52608 4.36509 6.42692 4.46822C5.25675 5.67805 4.07865 6.88788 2.90452 8.09375C2.33729 8.67684 1.77006 9.25994 1.20283 9.83908C1.16316 9.87874 1.11953 9.91841 1.06003 9.97791C0.933095 9.49794 0.814095 9.04178 0.695095 8.58165C0.465029 7.70501 0.242896 6.82838 0.0088633 5.95572C-0.02287 5.83275 0.00489664 5.76135 0.0881965 5.67805C1.86526 3.90496 3.63836 2.12393 5.40749 0.346863C5.47492 0.27943 5.53442 0.227863 5.64548 0.259597C6.91878 0.612629 8.19208 0.965662 9.46538 1.31473C9.47728 1.31869 9.48918 1.32663 9.52884 1.34646C9.36224 1.53686 9.19961 1.72329 9.03698 1.90576C8.98144 1.96923 8.91798 2.02873 8.86641 2.10013C8.79105 2.20326 8.70774 2.21119 8.59271 2.17946C7.69228 1.94543 6.78788 1.72329 5.88348 1.48926C5.73275 1.44959 5.63358 1.46546 5.51855 1.58446C4.08659 3.04022 2.65066 4.49202 1.21076 5.93985C1.13539 6.01918 1.09969 6.09058 1.12746 6.20165C1.23853 6.63005 1.34563 7.05845 1.44876 7.49081C1.48446 7.63361 1.52809 7.65345 1.63519 7.54238C2.93626 6.23735 4.24129 4.93629 5.55028 3.63522C5.64152 3.54399 5.63358 3.48846 5.54235 3.41309C5.46699 3.35359 5.39955 3.28219 5.29245 3.18302C5.86762 3.13146 6.38328 3.07989 6.89895 3.03229C6.96638 3.02436 7.01398 3.04816 7.01398 3.13146C7.01398 3.65902 7.01398 4.18659 7.01398 4.71019C6.99812 4.72209 6.98225 4.73002 6.96242 4.73399Z" fill="#FF5402"/>
</svg>
