<svg width="142" height="28" viewBox="0 0 142 28" fill="none" xmlns="http://www.w3.org/2000/svg">
<g clip-path="url(#clip0_1591_7994)">
<path d="M45.1625 13.3795L49.3986 7.20386H45.0356L40.3855 14.0271V7.20386H36.6167V21.2076H40.3855V18.2633L42.542 15.8598L45.5931 21.2076H49.7592L45.1625 13.3795Z" fill="black"/>
<path d="M56.5187 10.2183C52.0121 10.2183 50.8838 11.3099 50.8838 15.713C50.8838 20.1161 52.0121 21.211 56.5187 21.211C61.0252 21.211 62.1569 20.1161 62.1569 15.713C62.1569 11.3099 61.0286 10.2183 56.5187 10.2183ZM59.2393 16.7111C59.0857 17.0783 58.8654 17.4121 58.585 17.6925C58.3046 17.9729 57.9708 18.1933 57.6036 18.3468C57.2364 18.497 56.8458 18.5738 56.4486 18.5738H53.7446C53.7112 18.5738 53.6745 18.5638 53.6445 18.5438C53.6178 18.5237 53.5944 18.4937 53.581 18.4603C53.571 18.4269 53.571 18.3902 53.5777 18.3535C53.5877 18.3201 53.6111 18.2901 53.6378 18.2667L54.3188 17.7192C54.3488 17.6959 54.3689 17.6658 54.3789 17.6291C54.3889 17.5924 54.3856 17.5557 54.3722 17.5189L54.0484 16.7278C53.294 14.8784 54.6559 12.8555 56.6555 12.8555H56.7657C58.2579 12.8555 59.4696 14.0639 59.4696 15.5561C59.4696 15.9533 59.3895 16.3472 59.2393 16.7111Z" fill="black"/>
<path d="M93.3025 14.9551V21.2042H89.8908V15.2789C89.8908 15.2555 89.8908 15.2288 89.8875 15.2055C89.8741 13.75 89.3801 13.1024 88.2752 13.0891C87.2069 13.1024 86.7062 13.6699 86.6461 14.9384C86.6461 14.9885 86.6461 15.0419 86.6461 15.0953C86.6428 15.1554 86.6428 15.2155 86.6428 15.2789V21.2075H83.2679V15.2789C83.2679 15.2088 83.2679 15.142 83.2679 15.0753C83.2679 15.0252 83.2679 14.9751 83.2645 14.9284C83.2044 13.6999 82.7304 13.1358 81.729 13.0924C81.7123 13.0891 81.6922 13.0891 81.6722 13.0891H81.6388C80.6007 13.1024 80.1033 13.6699 80.0332 14.9418C80.0265 15.0252 80.0265 15.112 80.0265 15.2055C80.0231 15.2288 80.0231 15.2555 80.0231 15.2789V21.2075H76.6182V15.2789C76.6182 15.2555 76.6182 15.2288 76.6182 15.2055C76.6182 15.112 76.6182 15.0252 76.6115 14.9418C76.5414 13.6699 76.044 13.1024 75.0058 13.0891H74.9725C74.9524 13.0891 74.9324 13.0891 74.9157 13.0924C73.9143 13.1358 73.4402 13.6999 73.3801 14.9284C73.3768 14.9751 73.3735 15.0252 73.3768 15.0753C73.3735 15.142 73.3735 15.2088 73.3735 15.2789V21.2075H69.9986V15.2789C69.9986 15.2155 69.9986 15.1554 69.9952 15.0953C69.9952 15.0419 69.9952 14.9885 69.9919 14.9384C69.9318 13.6699 69.4311 13.1024 68.3628 13.0891C67.2579 13.1024 66.7639 13.75 66.7505 15.2055C66.7505 15.2288 66.7505 15.2555 66.7505 15.2789V21.2075H63.3389V14.9551C63.3389 11.4533 64.0466 10.3751 66.7505 10.2316C66.9708 10.2216 67.2045 10.2149 67.4515 10.2149C67.792 10.2149 68.0991 10.2416 68.3762 10.3017C69.4811 10.522 70.1187 11.203 70.3791 12.4248C70.5427 11.44 70.9299 10.8591 71.6877 10.542C72.2585 10.305 73.0363 10.2149 74.0945 10.2149C74.1179 10.2149 74.1379 10.2149 74.1579 10.2149C74.1646 10.2149 74.1713 10.2149 74.178 10.2149C74.1913 10.2149 74.208 10.2149 74.2214 10.2149C74.4684 10.2149 74.7021 10.2216 74.9191 10.2316C75.6134 10.2683 76.1709 10.3651 76.6249 10.5487H76.6282C76.972 10.6889 77.2558 10.8825 77.4794 11.1362C78.0703 11.7872 78.294 12.852 78.324 14.5145C78.3273 14.5645 78.3273 14.6146 78.3273 14.668C78.3273 14.6146 78.3273 14.5645 78.3307 14.5145C78.3607 12.852 78.5844 11.7872 79.1752 11.1362C79.3989 10.8825 79.6827 10.6889 80.0265 10.5487H80.0298C80.4838 10.3651 81.0413 10.2683 81.7356 10.2316C81.9526 10.2216 82.1863 10.2149 82.4333 10.2149C82.4467 10.2149 82.4634 10.2149 82.4767 10.2149C82.4834 10.2149 82.4901 10.2149 82.4967 10.2149C82.5168 10.2149 82.5368 10.2149 82.5602 10.2149C83.6184 10.2149 84.3962 10.305 84.967 10.542C85.7248 10.8591 86.112 11.44 86.2756 12.4248C86.536 11.203 87.1736 10.522 88.2785 10.3017C88.5556 10.2416 88.8627 10.2149 89.2032 10.2149C89.4502 10.2149 89.6839 10.2216 89.9042 10.2316C92.6081 10.3751 93.3158 11.4533 93.3158 14.9551H93.3025Z" fill="black"/>
<path d="M101.104 10.2183L101.084 16.4507C101.084 17.7793 100.6 18.3335 99.4882 18.3335C98.0494 18.3335 97.8892 18.1365 97.8892 16.3773V10.2183H94.4775L94.4942 17.1851C94.4942 20.3998 95.1953 21.2076 98.0327 21.2076C99.812 21.2076 100.78 20.6135 101.104 19.3049V21.2076H104.515V10.2183H101.104Z" fill="black"/>
<path d="M116.166 21.2076L116.149 14.2442C116.149 11.0295 115.448 10.2217 112.61 10.2217C110.724 10.2217 109.703 10.8125 109.362 12.1244V10.2183H105.951V21.2076H109.362L109.379 15.1054C109.379 13.7034 109.936 13.0925 111.245 13.0925C112.554 13.0925 112.754 13.2928 112.754 15.1054V21.2076H116.166Z" fill="black"/>
<path d="M117.601 10.2183V21.2076H121.013V10.2183H117.601Z" fill="black"/>
<path d="M123.526 17.5824V13.0925L126.938 14.7383V16.7011C126.938 18.013 127.062 18.1566 128.176 18.1566H129.989V21.2077H127.836C124.388 21.2077 123.526 20.49 123.526 17.5824Z" fill="black"/>
<path d="M122.448 13.0925V10.2216H123.707V8.13861H126.938V10.2216H129.989V13.0925H122.448Z" fill="black"/>
<path d="M137.009 10.2216C132.826 10.2216 131.785 10.9193 131.785 13.7568V14.134H135.196C135.16 12.8788 135.34 12.7353 136.972 12.7353C138.428 12.7353 138.588 12.8788 138.588 14.1874V14.7983L135.537 14.8183C132.252 14.8183 131.424 15.4826 131.424 18.1031C131.424 20.8671 132.272 21.2076 135.64 21.2076C137.346 21.2076 138.231 20.8871 138.588 19.7355V21.2076H142V13.9537C142 10.976 140.995 10.2216 137.009 10.2216ZM138.588 17.7793C138.588 18.6072 138.104 18.9643 136.972 18.9844C135.213 19.0178 135.016 18.9276 135.016 18.1398C135.016 17.4021 135.213 17.332 136.972 17.332L138.588 17.3119V17.7793Z" fill="black"/>
<path d="M26.345 27.1496C26.345 27.2731 26.345 27.3966 26.345 27.5201H19.1545C19.1579 27.3966 19.1612 27.2731 19.1612 27.1496C19.1612 20.9472 14.1339 15.9166 7.93154 15.9166V27.5201H0V16.6576C0 12.2779 3.5485 8.72943 7.92821 8.72943C18.0997 8.72943 26.345 16.9781 26.345 27.1496Z" fill="#629832"/>
<path d="M26.3455 0.370539C26.3455 0.247026 26.3455 0.120175 26.3422 0H19.1517C19.1584 0.123513 19.1584 0.247026 19.1584 0.370539C19.1584 6.5729 14.1311 11.6002 7.92871 11.6002V18.7873C18.1002 18.7873 26.3489 10.5387 26.3489 0.367201L26.3455 0.370539Z" fill="#3C16B6"/>
<path d="M3.96243 7.92487C6.15083 7.92487 7.92487 6.15083 7.92487 3.96243C7.92487 1.77404 6.15083 0 3.96243 0C1.77404 0 0 1.77404 0 3.96243C0 6.15083 1.77404 7.92487 3.96243 7.92487Z" fill="#629832"/>
</g>
<defs>
<clipPath id="clip0_1591_7994">
<rect width="142" height="27.5201" fill="white"/>
</clipPath>
</defs>
</svg>
