<svg width="152" height="40" viewBox="0 0 152 40" fill="none" xmlns="http://www.w3.org/2000/svg">
<path d="M39.6996 17.8398C45.2692 17.8398 46.6678 19.1902 46.6678 24.6371C46.6678 30.0839 45.2692 31.4343 39.6996 31.4343C34.13 31.4343 32.7314 30.0839 32.7314 24.6371C32.7314 19.1902 34.13 17.8398 39.6996 17.8398ZM37.1706 24.7733C37.1706 28.015 37.414 28.3702 39.6996 28.3702C41.9852 28.3702 42.2286 28.015 42.2286 24.7733C42.2286 21.5317 41.9852 21.1765 39.6996 21.1765C37.414 21.1765 37.1706 21.5317 37.1706 24.7733Z" fill="black"/>
<path d="M52.6578 17.8398V19.6445C53.1033 18.4015 54.1224 17.844 55.785 17.844C58.8256 17.844 60.022 18.4428 60.3768 20.5777C60.777 18.6905 61.9074 17.844 63.995 17.844C68.0546 17.844 69.0777 19.0209 69.0777 23.7079V31.4384H64.8613V24.2654C64.8613 21.6886 64.6633 21.3995 62.9099 21.3995C61.4453 21.3995 60.8224 22.2213 60.8471 24.1085V31.4384H56.6761V24.2654C56.6761 21.6886 56.4781 21.3995 54.7 21.3995C53.2807 21.3995 52.6578 22.2213 52.6578 24.1085V31.4384H48.4414V17.8398H52.6578Z" fill="black"/>
<path d="M75.0689 17.8398V19.6445C75.5145 18.4015 76.5335 17.844 78.1961 17.844C81.2367 17.844 82.4331 18.4428 82.7879 20.5777C83.1881 18.6905 84.3185 17.844 86.4061 17.844C90.4657 17.844 91.4888 19.0209 91.4888 23.7079V31.4384H87.2725V24.2654C87.2725 21.6886 87.0744 21.3995 85.3211 21.3995C83.8565 21.3995 83.2335 22.2213 83.2583 24.1085V31.4384H79.0873V24.2654C79.0873 21.6886 78.8892 21.3995 77.1111 21.3995C75.6919 21.3995 75.0689 22.2213 75.0689 24.1085V31.4384H70.8525V17.8398H75.0689Z" fill="black"/>
<path d="M101.452 31.4384V29.0805C101.052 30.7034 99.8554 31.4343 97.6565 31.4343C94.1497 31.4343 93.2833 30.4349 93.2833 26.4582L93.2627 17.8398H97.4791V25.4588C97.4791 27.6351 97.6771 27.8788 99.4552 27.8788C100.829 27.8788 101.431 27.1891 101.431 25.5456L101.452 17.8398H105.668V31.4343H101.452V31.4384Z" fill="black"/>
<path d="M111.659 17.8398V20.1978C112.079 18.5749 113.346 17.844 115.677 17.844C119.184 17.844 120.05 18.8433 120.05 22.8201L120.071 31.4384H115.854V23.8855C115.854 21.6432 115.677 21.3995 113.99 21.3995C112.302 21.3995 111.683 22.1552 111.683 23.8855L111.663 31.4384H107.446V17.8398H111.663H111.659Z" fill="black"/>
<path d="M123.285 13.6689H124.617C125.475 13.6689 126.173 14.3668 126.173 15.2258V16.7826H123.289C122.431 16.7826 121.733 16.0847 121.733 15.2258C121.733 14.3668 122.431 13.6689 123.289 13.6689H123.285ZM126.057 17.8398V31.4384H121.841V17.8398H126.057Z" fill="black"/>
<path d="M137.151 31.4386H134.49C130.228 31.4386 129.164 30.5507 129.164 26.9498V21.3956H127.831V17.84H129.386V15.2632H133.38V17.84H137.151V21.3956H133.38V25.8596C133.38 27.4825 133.537 27.6601 134.911 27.6601H137.151V31.4345V31.4386Z" fill="black"/>
<path d="M151.999 22.4647V31.4382H147.782V29.6171C147.337 31.0376 146.243 31.4382 144.135 31.4382C139.972 31.4382 138.929 31.017 138.929 27.5936C138.929 24.3519 139.948 23.5301 144.011 23.5301L147.782 23.5095V22.7538C147.782 21.1309 147.584 20.9533 145.785 20.9533C143.768 20.9533 143.545 21.1309 143.591 22.6877H139.374V22.2211C139.374 18.711 140.661 17.8438 145.831 17.8438C151 17.8438 151.999 18.777 151.999 22.4647ZM145.785 28.6838C147.184 28.6631 147.782 28.2172 147.782 27.1972V26.619L145.785 26.6397C143.611 26.6397 143.368 26.7264 143.368 27.639C143.368 28.6177 143.611 28.7251 145.785 28.6838Z" fill="black"/>
<path d="M9.25727 8.39949C11.5745 8.39949 13.453 6.5192 13.453 4.19974C13.453 1.88029 11.5745 0 9.25727 0C6.94002 0 5.06152 1.88029 5.06152 4.19974C5.06152 6.5192 6.94002 8.39949 9.25727 8.39949Z" fill="#34F5C6"/>
<path d="M6.69152 14.8826C8.27509 14.8826 9.55882 13.5977 9.55882 12.0126C9.55882 10.4275 8.27509 9.14258 6.69152 9.14258C5.10796 9.14258 3.82422 10.4275 3.82422 12.0126C3.82422 13.5977 5.10796 14.8826 6.69152 14.8826Z" fill="#3C16B6"/>
<path d="M15.5984 13.132C17.0567 13.132 18.2388 11.9487 18.2388 10.4891C18.2388 9.02946 17.0567 7.84619 15.5984 7.84619C14.1402 7.84619 12.958 9.02946 12.958 10.4891C12.958 11.9487 14.1402 13.132 15.5984 13.132Z" fill="url(#paint0_linear_3792_4139)"/>
<g style="mix-blend-mode:hard-light">
<path d="M9.12998 16.5723H9.50953V39.132H0V25.7068C0 20.6646 4.08848 16.5723 9.12586 16.5723H9.12998Z" fill="#FFC903"/>
</g>
<path d="M31.6024 38.686C31.6024 38.8346 31.6024 38.9833 31.5983 39.132H22.9716C22.9758 38.9833 22.9799 38.8346 22.9799 38.686C22.9799 31.2404 16.9482 25.203 9.50977 25.203V16.5723C21.7133 16.5723 31.6024 26.4749 31.6024 38.686Z" fill="#34F5C6"/>
<path d="M31.6024 6.53729C31.6024 6.38863 31.6024 6.23997 31.5983 6.09131H22.9716C22.9716 6.09131 22.9799 6.38863 22.9799 6.53729C22.9799 13.9829 16.9482 20.0203 9.50977 20.0203V28.651C21.7133 28.651 31.6024 18.7483 31.6024 6.53729Z" fill="#3C16B6"/>
<defs>
<linearGradient id="paint0_linear_3792_4139" x1="12.4865" y1="11.9491" x2="23.5818" y2="6.89376" gradientUnits="userSpaceOnUse">
<stop stop-color="#FCB23F"/>
<stop offset="1" stop-color="#F25C2C"/>
</linearGradient>
</defs>
</svg>
