<svg width="16" height="17" viewBox="0 0 16 17" fill="none" xmlns="http://www.w3.org/2000/svg">
<path fill-rule="evenodd" clip-rule="evenodd" d="M3.87627 3.7236C3.74437 3.7236 3.60553 3.78086 3.49414 3.90359C3.38113 4.02812 3.30954 4.20764 3.30954 4.40482V13.0748C3.30954 13.272 3.38113 13.4515 3.49414 13.5761C3.60553 13.6988 3.74437 13.7561 3.87627 13.7561H10.0634V8.41197V4.40482C10.0634 4.20764 9.99183 4.02812 9.87881 3.90359C9.76742 3.78086 9.62859 3.7236 9.49669 3.7236H3.87627ZM3.87627 14.8708H10.6208H11.9322C12.4278 14.8708 12.9032 14.6739 13.2536 14.3234C13.6041 13.9729 13.801 13.4976 13.801 13.002V8.41197C13.801 8.10415 13.5515 7.85461 13.2436 7.85461H11.1781V4.40482C11.1781 3.94502 11.0129 3.49446 10.7043 3.15444C10.394 2.81262 9.96104 2.60889 9.49669 2.60889H3.87627C3.41191 2.60889 2.97892 2.81262 2.66869 3.15444C2.3601 3.49447 2.19482 3.94502 2.19482 4.40482V13.0748C2.19482 13.5346 2.3601 13.9852 2.66869 14.3252C2.97892 14.667 3.41191 14.8708 3.87627 14.8708ZM11.1781 13.7561V8.96933H12.6863V13.002C12.6863 13.202 12.6068 13.3938 12.4654 13.5352C12.324 13.6766 12.1322 13.7561 11.9322 13.7561H11.1781ZM5.37505 5.88747C5.06723 5.88747 4.81769 6.137 4.81769 6.44482C4.81769 6.75264 5.06723 7.00218 5.37505 7.00218H7.99791C8.30573 7.00218 8.55527 6.75264 8.55527 6.44482C8.55527 6.137 8.30573 5.88747 7.99791 5.88747H5.37505ZM4.81769 8.41197C4.81769 8.10415 5.06723 7.85461 5.37505 7.85461H7.99791C8.30573 7.85461 8.55527 8.10415 8.55527 8.41197C8.55527 8.71979 8.30573 8.96933 7.99791 8.96933H5.37505C5.06723 8.96933 4.81769 8.71979 4.81769 8.41197ZM5.37505 10.4775C5.06723 10.4775 4.81769 10.727 4.81769 11.0348C4.81769 11.3427 5.06723 11.5922 5.37505 11.5922H7.34219C7.65001 11.5922 7.89955 11.3427 7.89955 11.0348C7.89955 10.727 7.65001 10.4775 7.34219 10.4775H5.37505Z" fill="#838383"/>
</svg>
