<svg width="29" height="31" viewBox="0 0 29 31" fill="none" xmlns="http://www.w3.org/2000/svg">
<ellipse cx="14.6848" cy="15.4386" rx="14.3157" ry="14.6429" fill="#EFF2FC"/>
<path d="M17.5951 14.6055H14.8018V11.7483C14.8018 11.6221 14.7527 11.5009 14.6654 11.4116C14.5781 11.3223 14.4597 11.2722 14.3362 11.2722C14.2127 11.2722 14.0943 11.3223 14.007 11.4116C13.9197 11.5009 13.8707 11.6221 13.8707 11.7483V14.6055H11.0774C10.9539 14.6055 10.8355 14.6557 10.7482 14.745C10.6609 14.8343 10.6118 14.9554 10.6118 15.0817C10.6118 15.208 10.6609 15.3291 10.7482 15.4184C10.8355 15.5077 10.9539 15.5579 11.0774 15.5579H13.8707V18.415C13.8707 18.5413 13.9197 18.6624 14.007 18.7517C14.0943 18.841 14.2127 18.8912 14.3362 18.8912C14.4597 18.8912 14.5781 18.841 14.6654 18.7517C14.7527 18.6624 14.8018 18.5413 14.8018 18.415V15.5579H17.5951C17.7185 15.5579 17.8369 15.5077 17.9243 15.4184C18.0116 15.3291 18.0606 15.208 18.0606 15.0817C18.0606 14.9554 18.0116 14.8343 17.9243 14.745C17.8369 14.6557 17.7185 14.6055 17.5951 14.6055Z" fill="#02BA09"/>
</svg>
