<svg width="29" height="31" viewBox="0 0 29 31" fill="none" xmlns="http://www.w3.org/2000/svg">
<ellipse cx="14.6843" cy="15.4386" rx="14.3157" ry="14.6429" fill="#02BA09"/>
<path d="M14.9404 15.186C15.1888 14.9661 15.388 14.6941 15.5246 14.3884C15.6612 14.0828 15.7318 13.7506 15.7318 13.4146C15.7318 12.7831 15.4866 12.1775 15.0501 11.731C14.6135 11.2845 14.0214 11.0336 13.4041 11.0336C12.7867 11.0336 12.1947 11.2845 11.7581 11.731C11.3216 12.1775 11.0763 12.7831 11.0763 13.4146C11.0763 13.7506 11.147 14.0828 11.2836 14.3884C11.4201 14.6941 11.6194 14.9661 11.8678 15.186C11.2161 15.4879 10.6631 15.9753 10.2751 16.5901C9.88709 17.2048 9.68037 17.9209 9.67969 18.6527C9.67969 18.779 9.72874 18.9001 9.81604 18.9894C9.90335 19.0787 10.0218 19.1289 10.1452 19.1289C10.2687 19.1289 10.3871 19.0787 10.4744 18.9894C10.5617 18.9001 10.6108 18.779 10.6108 18.6527C10.6108 17.8949 10.9051 17.1682 11.4289 16.6324C11.9528 16.0966 12.6633 15.7955 13.4041 15.7955C14.1449 15.7955 14.8554 16.0966 15.3792 16.6324C15.9031 17.1682 16.1974 17.8949 16.1974 18.6527C16.1974 18.779 16.2464 18.9001 16.3337 18.9894C16.421 19.0787 16.5395 19.1289 16.6629 19.1289C16.7864 19.1289 16.9048 19.0787 16.9921 18.9894C17.0794 18.9001 17.1285 18.779 17.1285 18.6527C17.1278 17.9209 16.9211 17.2048 16.5331 16.5901C16.145 15.9753 15.5921 15.4879 14.9404 15.186ZM13.4041 14.8432C13.1279 14.8432 12.8578 14.7594 12.6281 14.6024C12.3985 14.4454 12.2195 14.2223 12.1137 13.9613C12.008 13.7002 11.9804 13.413 12.0343 13.1359C12.0882 12.8588 12.2212 12.6042 12.4165 12.4044C12.6118 12.2046 12.8607 12.0686 13.1316 12.0135C13.4025 11.9583 13.6834 11.9866 13.9386 12.0948C14.1938 12.2029 14.4119 12.386 14.5654 12.6209C14.7188 12.8558 14.8007 13.132 14.8007 13.4146C14.8007 13.7935 14.6536 14.1568 14.3917 14.4247C14.1297 14.6926 13.7745 14.8432 13.4041 14.8432ZM18.8557 13.7146C18.8124 13.67 18.7609 13.6345 18.7042 13.6103C18.6474 13.5862 18.5866 13.5737 18.5251 13.5737C18.4637 13.5737 18.4028 13.5862 18.3461 13.6103C18.2894 13.6345 18.2379 13.67 18.1946 13.7146L17.2635 14.667L16.9749 14.367C16.9316 14.3223 16.8801 14.2869 16.8234 14.2627C16.7666 14.2386 16.7058 14.2261 16.6443 14.2261C16.5829 14.2261 16.522 14.2386 16.4653 14.2627C16.4085 14.2869 16.357 14.3223 16.3138 14.367C16.2271 14.4562 16.1784 14.5769 16.1784 14.7027C16.1784 14.8285 16.2271 14.9492 16.3138 15.0384L16.9376 15.6765C17.0248 15.7652 17.1428 15.815 17.2658 15.815C17.3888 15.815 17.5068 15.7652 17.594 15.6765L18.8371 14.4051C18.8841 14.3619 18.922 14.3094 18.9485 14.2507C18.975 14.1921 18.9896 14.1285 18.9913 14.0639C18.9931 13.9993 18.982 13.935 18.9586 13.875C18.9353 13.8149 18.9003 13.7603 18.8557 13.7146Z" fill="white"/>
</svg>
