<svg width="35" height="34" viewBox="0 0 35 34" fill="none" xmlns="http://www.w3.org/2000/svg">
<rect x="0.836914" y="0.437042" width="33.7816" height="32.7259" rx="2.63919" fill="#D9D9D9"/>
<path d="M20.2227 17.5884C20.9074 17.0374 21.4071 16.2819 21.6524 15.4269C21.8976 14.5719 21.8763 13.66 21.5913 12.818C21.3063 11.976 20.7718 11.2458 20.0622 10.729C19.3525 10.2122 18.5031 9.93445 17.6319 9.93445C16.7608 9.93445 15.9113 10.2122 15.2017 10.729C14.4921 11.2458 13.9576 11.976 13.6726 12.818C13.3876 13.66 13.3662 14.5719 13.6115 15.4269C13.8568 16.2819 14.3565 17.0374 15.0412 17.5884C13.868 18.0691 12.8444 18.8665 12.0795 19.8955C11.3145 20.9244 10.8369 22.1464 10.6976 23.4312C10.6875 23.525 10.6956 23.6199 10.7213 23.7106C10.7471 23.8012 10.7901 23.8857 10.8478 23.9593C10.9643 24.108 11.1339 24.2032 11.3191 24.2241C11.5043 24.2449 11.69 24.1897 11.8354 24.0704C11.9807 23.9512 12.0738 23.7778 12.0942 23.5884C12.2476 22.1921 12.8985 20.9025 13.9226 19.9661C14.9467 19.0296 16.2722 18.512 17.6459 18.512C19.0196 18.512 20.3451 19.0296 21.3692 19.9661C22.3933 20.9025 23.0442 22.1921 23.1976 23.5884C23.2166 23.7639 23.2984 23.926 23.4274 24.0434C23.5564 24.1608 23.7233 24.2252 23.8959 24.2241H23.9727C24.1558 24.2025 24.3231 24.1079 24.4382 23.9607C24.5533 23.8135 24.6069 23.6258 24.5872 23.4384C24.4472 22.1499 23.967 20.9248 23.1982 19.8942C22.4293 18.8637 21.4007 18.0666 20.2227 17.5884ZM17.6319 17.0812C17.0795 17.0812 16.5394 16.9137 16.0801 16.5997C15.6207 16.2858 15.2627 15.8395 15.0513 15.3175C14.8398 14.7954 14.7845 14.2209 14.8923 13.6667C15.0001 13.1125 15.2661 12.6034 15.6568 12.2038C16.0474 11.8042 16.5451 11.5321 17.087 11.4218C17.6288 11.3116 18.1905 11.3682 18.7009 11.5844C19.2113 11.8007 19.6475 12.1669 19.9545 12.6367C20.2614 13.1066 20.4252 13.659 20.4252 14.2241C20.4252 14.9818 20.1309 15.7086 19.6071 16.2444C19.0833 16.7802 18.3728 17.0812 17.6319 17.0812Z" fill="black"/>
</svg>
