<svg width="21" height="20" viewBox="0 0 21 20" fill="none" xmlns="http://www.w3.org/2000/svg">
<path fill-rule="evenodd" clip-rule="evenodd" d="M5.26251 3.9697C5.09767 3.9697 4.92416 4.04126 4.78495 4.19464C4.64371 4.35027 4.55424 4.57463 4.55424 4.82105V15.6564C4.55424 15.9028 4.64371 16.1271 4.78495 16.2828C4.92416 16.4362 5.09767 16.5077 5.26251 16.5077H12.9949V9.82897V4.82105C12.9949 4.57463 12.9054 4.35027 12.7642 4.19464C12.6249 4.04125 12.4514 3.9697 12.2866 3.9697H5.26251ZM5.26251 17.9008H13.6914H15.3304C15.9498 17.9008 16.5438 17.6548 16.9818 17.2168C17.4198 16.7788 17.6659 16.1847 17.6659 15.5653V9.82897C17.6659 9.44427 17.354 9.13241 16.9693 9.13241H14.388V4.82105C14.388 4.24641 14.1814 3.68334 13.7958 3.2584C13.4081 2.83121 12.8669 2.57659 12.2866 2.57659H5.26251C4.68218 2.57659 4.14105 2.83121 3.75335 3.2584C3.36769 3.68334 3.16113 4.24641 3.16113 4.82105V15.6564C3.16113 16.231 3.36769 16.7941 3.75335 17.219C4.14105 17.6462 4.68218 17.9008 5.26251 17.9008ZM14.388 16.5077V10.5255H16.2728V15.5653C16.2728 15.8153 16.1735 16.055 15.9967 16.2317C15.82 16.4084 15.5803 16.5077 15.3304 16.5077H14.388ZM7.1356 6.67398C6.7509 6.67398 6.43904 6.98584 6.43904 7.37054C6.43904 7.75523 6.7509 8.06709 7.1356 8.06709H10.4135C10.7982 8.06709 11.1101 7.75523 11.1101 7.37054C11.1101 6.98584 10.7982 6.67398 10.4135 6.67398H7.1356ZM6.43904 9.82897C6.43904 9.44427 6.7509 9.13241 7.1356 9.13241H10.4135C10.7982 9.13241 11.1101 9.44427 11.1101 9.82897C11.1101 10.2137 10.7982 10.5255 10.4135 10.5255H7.1356C6.7509 10.5255 6.43904 10.2137 6.43904 9.82897ZM7.1356 12.4103C6.7509 12.4103 6.43904 12.7222 6.43904 13.1069C6.43904 13.4916 6.7509 13.8034 7.1356 13.8034H9.59403C9.97873 13.8034 10.2906 13.4916 10.2906 13.1069C10.2906 12.7222 9.97873 12.4103 9.59403 12.4103H7.1356Z" fill="#63941E"/>
</svg>
