<svg width="12" height="12" viewBox="0 0 12 12" fill="none" xmlns="http://www.w3.org/2000/svg">
<g clip-path="url(#clip0_1314_7071)">
<path d="M6 12C9.31371 12 12 9.31371 12 6C12 2.68629 9.31371 0 6 0C2.68629 0 0 2.68629 0 6C0 9.31371 2.68629 12 6 12Z" fill="url(#paint0_radial_1314_7071)"/>
<path d="M6 11.5781C9.08071 11.5781 11.5781 9.08071 11.5781 6C11.5781 2.91929 9.08071 0.421875 6 0.421875C2.91929 0.421875 0.421875 2.91929 0.421875 6C0.421875 9.08071 2.91929 11.5781 6 11.5781Z" fill="url(#paint1_linear_1314_7071)"/>
<path d="M2.89841 2.42728C2.79222 1.01642 1.59375 0 1.59375 0C1.59375 0 0.395279 1.01642 0.289086 2.42728C0.182892 3.83814 1.18415 4.11121 1.59375 4.11121C2.00335 4.11121 3.00461 3.83814 2.89841 2.42728Z" fill="#25A9E0"/>
<path d="M8.5996 6.7713H6H3.4004C3.23721 6.7713 3.10949 6.9121 3.12653 7.0744C3.19519 7.72859 3.61382 9.21433 6 9.21433C8.38618 9.21433 8.80481 7.72859 8.87347 7.0744C8.89051 6.9121 8.76279 6.7713 8.5996 6.7713Z" fill="#864E20"/>
<path d="M6.00007 9.2147C6.70981 9.2147 7.2444 9.08267 7.64857 8.88076C7.50724 8.67477 7.29302 8.47546 6.97496 8.40519C6.22638 8.23981 6.00007 8.46612 6.00007 8.46612C6.00007 8.46612 5.77376 8.23981 5.02518 8.40519C4.70711 8.47546 4.4929 8.67477 4.35156 8.88076C4.75574 9.08267 5.29032 9.2147 6.00007 9.2147Z" fill="#F06880"/>
<path d="M4.81367 5.56947C4.81148 5.66467 4.68887 5.70343 4.6353 5.6247C4.54476 5.49164 4.44139 5.39267 4.32936 5.31952C4.16507 5.21232 3.98987 5.16491 3.81356 5.16419C3.63726 5.16554 3.46238 5.21315 3.29813 5.32015C3.18584 5.39358 3.08207 5.49273 2.99101 5.62639C2.93748 5.70497 2.81525 5.66609 2.81276 5.57103C2.80781 5.38188 2.87425 5.18181 2.99894 5.02081C3.18226 4.77787 3.49657 4.62305 3.81346 4.62602C4.13033 4.62354 4.4444 4.77843 4.62759 5.02128C4.7517 5.18186 4.81802 5.38098 4.81367 5.56947ZM9.18713 5.56947C9.18493 5.66467 9.06232 5.70343 9.00875 5.6247C8.91821 5.49164 8.81484 5.39267 8.70281 5.31952C8.53853 5.21232 8.36332 5.16491 8.18701 5.16419C8.01071 5.16554 7.83583 5.21315 7.67158 5.32015C7.55929 5.39358 7.45552 5.49273 7.36447 5.62639C7.31093 5.70497 7.1887 5.66609 7.18621 5.57103C7.18126 5.38188 7.24771 5.18181 7.37239 5.02081C7.55571 4.77787 7.87003 4.62305 8.18691 4.62602C8.50378 4.62354 8.81785 4.77843 9.00104 5.02128C9.12515 5.18186 9.19147 5.38098 9.18713 5.56947Z" fill="#864E20"/>
</g>
<defs>
<radialGradient id="paint0_radial_1314_7071" cx="0" cy="0" r="1" gradientUnits="userSpaceOnUse" gradientTransform="translate(6 6) scale(6)">
<stop stop-color="#F8DE40"/>
<stop offset="0.526" stop-color="#F8DC40"/>
<stop offset="0.715" stop-color="#F9D540"/>
<stop offset="0.85" stop-color="#F9CA40"/>
<stop offset="0.958" stop-color="#FAB940"/>
<stop offset="1" stop-color="#FBB040"/>
</radialGradient>
<linearGradient id="paint1_linear_1314_7071" x1="6" y1="0.421875" x2="6" y2="11.5781" gradientUnits="userSpaceOnUse">
<stop stop-color="white" stop-opacity="0.5"/>
<stop offset="0.139" stop-color="#FEFCEB" stop-opacity="0.431"/>
<stop offset="0.422" stop-color="#FCF3B8" stop-opacity="0.289"/>
<stop offset="0.821" stop-color="#F9E567" stop-opacity="0.089"/>
<stop offset="1" stop-color="#F8DE40" stop-opacity="0"/>
</linearGradient>
<clipPath id="clip0_1314_7071">
<rect width="12" height="12" fill="white"/>
</clipPath>
</defs>
</svg>
