<svg width="21" height="20" viewBox="0 0 21 20" fill="none" xmlns="http://www.w3.org/2000/svg">
<g clip-path="url(#clip0_1723_10988)">
<path d="M19.7515 9.4944L11.1247 -0.0909416C10.7614 -0.495443 10.0636 -0.495443 9.70028 -0.0909416L1.07348 9.4944C0.949304 9.63204 0.867798 9.80279 0.838869 9.9859C0.80994 10.169 0.834835 10.3566 0.910525 10.5258C1.06389 10.8718 1.40705 11.0942 1.78567 11.0942H3.70274V17.8039C3.70274 18.0582 3.80372 18.302 3.98348 18.4817C4.16324 18.6615 4.40705 18.7625 4.66127 18.7625H7.53687C7.79109 18.7625 8.0349 18.6615 8.21466 18.4817C8.39442 18.302 8.49541 18.0582 8.49541 17.8039V13.9698H12.3295V17.8039C12.3295 18.0582 12.4305 18.302 12.6103 18.4817C12.7901 18.6615 13.0339 18.7625 13.2881 18.7625H16.1637C16.4179 18.7625 16.6617 18.6615 16.8415 18.4817C17.0212 18.302 17.1222 18.0582 17.1222 17.8039V11.0942H19.0393C19.2249 11.095 19.4068 11.0417 19.5627 10.941C19.7186 10.8402 19.8418 10.6962 19.9173 10.5266C19.9928 10.357 20.0173 10.1692 19.9879 9.98586C19.9584 9.80258 19.8763 9.63181 19.7515 9.4944Z" fill="url(#paint0_linear_1723_10988)"/>
</g>
<defs>
<linearGradient id="paint0_linear_1723_10988" x1="17.916" y1="18.0684" x2="-0.545602" y2="-1.7979" gradientUnits="userSpaceOnUse">
<stop stop-color="#63941E"/>
<stop offset="1" stop-color="#63941E"/>
</linearGradient>
<clipPath id="clip0_1723_10988">
<rect width="19.6675" height="19.6675" fill="white" transform="translate(0.57959)"/>
</clipPath>
</defs>
</svg>
