<svg width="21" height="21" viewBox="0 0 21 21" fill="none" xmlns="http://www.w3.org/2000/svg">
<g clip-path="url(#clip0_1314_7120)">
<path d="M10.4137 13.4422C9.83027 13.4422 9.25989 13.2691 8.77475 12.945C8.2896 12.6208 7.91148 12.1601 7.68819 11.621C7.4649 11.0819 7.40648 10.4888 7.52031 9.9165C7.63414 9.34423 7.91512 8.81857 8.3277 8.40599C8.74028 7.99341 9.26594 7.71244 9.83821 7.59861C10.4105 7.48478 11.0036 7.5432 11.5427 7.76649C12.0818 7.98977 12.5425 8.3679 12.8667 8.85304C13.1908 9.33819 13.3639 9.90856 13.3639 10.492C13.3624 11.274 13.0511 12.0235 12.4982 12.5764C11.9452 13.1294 11.1957 13.4407 10.4137 13.4422ZM10.4137 8.94674C10.1081 8.94674 9.80935 9.03737 9.55522 9.20717C9.3011 9.37697 9.10304 9.61831 8.98608 9.90068C8.86912 10.183 8.83851 10.4938 8.89814 10.7935C8.95776 11.0933 9.10494 11.3686 9.32105 11.5847C9.53717 11.8008 9.81251 11.948 10.1123 12.0076C10.412 12.0673 10.7227 12.0367 11.0051 11.9197C11.2875 11.8028 11.5288 11.6047 11.6986 11.3506C11.8684 11.0964 11.959 10.7977 11.959 10.492C11.959 10.0822 11.7962 9.68915 11.5064 9.39935C11.2166 9.10955 10.8236 8.94674 10.4137 8.94674ZM14.6282 14.5997C14.4899 14.5989 14.355 14.5572 14.2402 14.48C14.1255 14.4027 14.0362 14.2934 13.9834 14.1655C13.9306 14.0377 13.9166 13.8972 13.9434 13.7615C13.9701 13.6258 14.0363 13.501 14.1337 13.4028C14.9037 12.6298 15.3361 11.5831 15.3361 10.492C15.3361 9.40094 14.9037 8.35429 14.1337 7.58126C14.0627 7.51737 14.0054 7.43967 13.9654 7.35289C13.9254 7.26611 13.9036 7.17209 13.9012 7.07657C13.8988 6.98106 13.9159 6.88606 13.9515 6.79738C13.987 6.70871 14.0403 6.62822 14.1081 6.56086C14.1758 6.49349 14.2566 6.44065 14.3455 6.40557C14.4344 6.3705 14.5295 6.35392 14.625 6.35686C14.7205 6.3598 14.8144 6.3822 14.9009 6.42267C14.9875 6.46315 15.0648 6.52085 15.1283 6.59226C16.1605 7.62767 16.7401 9.03004 16.7401 10.492C16.7401 11.954 16.1605 13.3564 15.1283 14.3918C15.0632 14.4584 14.9854 14.5111 14.8995 14.5468C14.8135 14.5825 14.7213 14.6005 14.6282 14.5997ZM6.19929 14.6053C6.01174 14.6045 5.83208 14.5298 5.69918 14.3974C4.66666 13.3611 4.08691 11.9578 4.08691 10.4948C4.08691 9.03193 4.66666 7.62863 5.69918 6.59226C5.83107 6.46037 6.00996 6.38627 6.19648 6.38627C6.38301 6.38627 6.56189 6.46037 6.69379 6.59226C6.82568 6.72416 6.89978 6.90304 6.89978 7.08957C6.89978 7.2761 6.82568 7.45498 6.69379 7.58688C5.92412 8.35895 5.49192 9.40467 5.49192 10.4948C5.49192 11.585 5.92412 12.6307 6.69379 13.4028C6.7592 13.4681 6.8111 13.5456 6.84651 13.6309C6.88192 13.7163 6.90015 13.8077 6.90015 13.9001C6.90015 13.9925 6.88192 14.084 6.84651 14.1693C6.8111 14.2547 6.7592 14.3322 6.69379 14.3974C6.56226 14.5284 6.38489 14.603 6.19929 14.6053Z" fill="#63941E"/>
<path d="M16.7685 17.3251C16.5822 17.3251 16.4035 17.2511 16.2718 17.1193C16.1401 16.9876 16.0661 16.809 16.0661 16.6227C16.0673 16.4308 16.144 16.2471 16.2796 16.1113C17.0435 15.3882 17.6519 14.517 18.0677 13.5508C18.4835 12.5847 18.6979 11.5439 18.6979 10.492C18.6979 9.44021 18.4835 8.39942 18.0677 7.43326C17.6519 6.4671 17.0435 5.59586 16.2796 4.87276C16.1455 4.74311 16.0683 4.56548 16.0652 4.37895C16.062 4.19242 16.1331 4.01228 16.2628 3.87815C16.3924 3.74402 16.57 3.66689 16.7566 3.66373C16.9431 3.66057 17.1232 3.73164 17.2574 3.86129C18.1544 4.71475 18.8686 5.7416 19.3566 6.87952C19.8446 8.01743 20.0962 9.24266 20.0962 10.4808C20.0962 11.7189 19.8446 12.9442 19.3566 14.0821C18.8686 15.22 18.1544 16.2469 17.2574 17.1003C17.1952 17.1688 17.1199 17.224 17.0359 17.2627C16.9519 17.3013 16.8609 17.3225 16.7685 17.3251ZM4.05769 17.3251C3.95136 17.3295 3.84543 17.3095 3.74803 17.2667C3.65062 17.2238 3.56432 17.1592 3.49576 17.0778C2.6068 16.2193 1.90114 15.1894 1.42143 14.0504C0.941711 12.9114 0.697901 11.687 0.704729 10.4511C0.711557 9.21527 0.968882 7.99362 1.46115 6.86001C1.95342 5.72641 2.67042 4.70437 3.56881 3.85568C3.70294 3.72602 3.88308 3.65495 4.06961 3.65811C4.25613 3.66127 4.43376 3.7384 4.56342 3.87253C4.69308 4.00666 4.76415 4.1868 4.76098 4.37333C4.75782 4.55986 4.68069 4.73749 4.54656 4.86714C3.78271 5.59024 3.1743 6.46148 2.7585 7.42764C2.34271 8.3938 2.12826 9.43459 2.12826 10.4864C2.12826 11.5382 2.34271 12.579 2.7585 13.5452C3.1743 14.5114 3.78271 15.3826 4.54656 16.1057C4.61378 16.1717 4.66725 16.2504 4.7039 16.3372C4.74055 16.424 4.75965 16.5172 4.7601 16.6114C4.76084 16.7044 4.74326 16.7966 4.70836 16.8828C4.67346 16.969 4.62193 17.0475 4.5567 17.1137C4.49147 17.18 4.41383 17.2328 4.32821 17.269C4.24259 17.3053 4.15067 17.3243 4.05769 17.3251Z" fill="#63941E"/>
</g>
<defs>
<clipPath id="clip0_1314_7120">
<rect width="19.6675" height="19.6675" fill="white" transform="translate(0.57959 0.657959)"/>
</clipPath>
</defs>
</svg>
