<svg width="21" height="20" viewBox="0 0 21 20" fill="none" xmlns="http://www.w3.org/2000/svg">
<g clip-path="url(#clip0_1723_10967)">
<path d="M15.3302 6.72479C15.3302 5.42075 14.8122 4.17013 13.8901 3.24804C12.968 2.32595 11.7174 1.80792 10.4134 1.80792C9.10935 1.80792 7.85873 2.32595 6.93663 3.24804C6.01454 4.17013 5.49652 5.42075 5.49652 6.72479C5.49652 12.4611 3.03809 14.1001 3.03809 14.1001H17.7887C17.7887 14.1001 15.3302 12.4611 15.3302 6.72479Z" stroke="#63941E" stroke-width="1.96675" stroke-linecap="round" stroke-linejoin="round"/>
<path d="M11.8315 17.3777C11.6874 17.626 11.4806 17.8322 11.2318 17.9755C10.983 18.1188 10.7009 18.1942 10.4138 18.1942C10.1267 18.1942 9.84457 18.1188 9.59577 17.9755C9.34696 17.8322 9.14017 17.626 8.99609 17.3777" stroke="#63941E" stroke-width="1.96675" stroke-linecap="round" stroke-linejoin="round"/>
</g>
<defs>
<clipPath id="clip0_1723_10967">
<rect width="19.6675" height="19.6675" fill="white" transform="translate(0.57959 0.16864)"/>
</clipPath>
</defs>
</svg>
