<svg width="21" height="21" viewBox="0 0 21 21" fill="none" xmlns="http://www.w3.org/2000/svg">
<g clip-path="url(#clip0_1314_7101)">
<path d="M19.05 5.76666C18.9526 5.37774 18.7544 5.0214 18.4752 4.73363C18.1961 4.44586 17.8459 4.23685 17.4602 4.1277C16.0507 3.78352 10.4127 3.78352 10.4127 3.78352C10.4127 3.78352 4.77466 3.78352 3.36516 4.16048C2.97939 4.26962 2.62925 4.47864 2.35012 4.76641C2.07098 5.05418 1.87272 5.41052 1.77538 5.79944C1.51742 7.22988 1.39124 8.68097 1.39842 10.1345C1.38922 11.5989 1.51541 13.0611 1.77538 14.5023C1.8827 14.8791 2.08539 15.2219 2.36388 15.4975C2.64237 15.7731 2.98724 15.9723 3.36516 16.0757C4.77466 16.4526 10.4127 16.4526 10.4127 16.4526C10.4127 16.4526 16.0507 16.4526 17.4602 16.0757C17.8459 15.9665 18.1961 15.7575 18.4752 15.4698C18.7544 15.182 18.9526 14.8256 19.05 14.4367C19.3059 13.0171 19.4321 11.577 19.4269 10.1345C19.4361 8.67003 19.3099 7.20787 19.05 5.76666Z" stroke="#838383" stroke-width="1.96675" stroke-linecap="round" stroke-linejoin="round"/>
<path d="M8.56934 12.8142L13.2813 10.1345L8.56934 7.45485V12.8142Z" stroke="#838383" stroke-width="1.96675" stroke-linecap="round" stroke-linejoin="round"/>
</g>
<defs>
<clipPath id="clip0_1314_7101">
<rect width="19.6675" height="19.6675" fill="white" transform="translate(0.57959 0.505936)"/>
</clipPath>
</defs>
</svg>
