<svg width="21" height="20" viewBox="0 0 21 20" fill="none" xmlns="http://www.w3.org/2000/svg">
<path d="M10.4135 12.4561C7.81573 12.4561 5.50552 13.7104 4.03472 15.6569C3.71817 16.0759 3.55989 16.2853 3.56506 16.5684C3.56906 16.7872 3.70641 17.0631 3.87851 17.1981C4.10126 17.3729 4.40994 17.3729 5.0273 17.3729H15.7998C16.4171 17.3729 16.7258 17.3729 16.9486 17.1981C17.1207 17.0631 17.258 16.7872 17.262 16.5684C17.2672 16.2853 17.1089 16.0759 16.7924 15.6569C15.3216 13.7104 13.0113 12.4561 10.4135 12.4561Z" stroke="#63941E" stroke-width="1.96675" stroke-linecap="round" stroke-linejoin="round"/>
<path d="M10.4135 9.99764C12.4502 9.99764 14.1012 8.34662 14.1012 6.30999C14.1012 4.27336 12.4502 2.62234 10.4135 2.62234C8.37691 2.62234 6.72589 4.27336 6.72589 6.30999C6.72589 8.34662 8.37691 9.99764 10.4135 9.99764Z" stroke="#63941E" stroke-width="1.96675" stroke-linecap="round" stroke-linejoin="round"/>
</svg>
