<svg width="272" height="205" viewBox="0 0 272 205" fill="none" xmlns="http://www.w3.org/2000/svg">
<g opacity="0.32">
<circle cx="131.02" cy="94.2044" r="94.2044" fill="#EDEDED"/>
<circle cx="131.02" cy="94.2052" r="73.631" fill="#E1E1E1"/>
<path d="M131.51 187.076C122.861 195.916 110.797 201.402 97.4528 201.402C81.5245 201.402 67.4219 193.586 58.7714 181.58C54.5012 193.151 43.3735 201.402 30.3187 201.402C13.5741 201.402 0 187.828 0 171.084C0 154.339 13.5741 140.765 30.3187 140.765C37.8952 140.765 44.8227 143.544 50.1372 148.139C52.9181 124.475 73.0414 106.115 97.4528 106.115C113.9 106.115 128.401 114.45 136.963 127.125C144.091 121.431 153.129 118.026 162.963 118.026C181.107 118.026 196.543 129.617 202.272 145.799C206.639 143.285 211.703 141.848 217.103 141.848C232.956 141.848 245.916 154.237 246.829 169.861C248.537 169.25 250.377 168.918 252.294 168.918C261.265 168.918 268.537 176.19 268.537 185.16C268.537 194.131 261.265 201.402 252.294 201.402C246.107 201.402 240.728 197.943 237.986 192.853C232.611 198.14 225.238 201.402 217.103 201.402C207.068 201.402 198.192 196.438 192.797 188.831C185.227 196.587 174.657 201.402 162.963 201.402C150.41 201.402 139.153 195.854 131.51 187.076Z" fill="#F8FDFF"/>
<path d="M268.537 185.16C268.537 176.19 261.265 168.918 252.295 168.918C250.377 168.918 248.537 169.25 246.829 169.861C245.916 154.237 232.956 141.848 217.103 141.848C211.703 141.848 206.639 143.285 202.272 145.799C196.543 129.617 181.107 118.026 162.963 118.026C153.129 118.026 144.091 121.431 136.963 127.125C128.401 114.45 113.9 106.115 97.4529 106.115C73.0415 106.115 52.9182 124.475 50.1373 148.139C44.8228 143.544 37.8953 140.765 30.3188 140.765C20.263 140.765 11.3506 145.661 5.83496 153.198" stroke="#6E6E6E" stroke-width="5.99489" stroke-linecap="round"/>
<circle cx="169.705" cy="48.7758" r="3.24843" stroke="#DBDBDB" stroke-width="4.49617"/>
<circle cx="227.31" cy="111.004" r="2.16562" stroke="#DBDBDB" stroke-width="4.49617"/>
<circle cx="36.8839" cy="103.396" r="4.87264" stroke="#DBDBDB" stroke-width="4.49617"/>
<path d="M85.5046 81.2105H74.7138M93.1216 71.8689V62.8027" stroke="#6E6E6E" stroke-width="4.49617" stroke-linecap="round"/>
<path d="M86.1392 73.7889L78.9616 66.6113" stroke="#6E6E6E" stroke-width="4.49617" stroke-linecap="round"/>
<circle cx="128.313" cy="113.153" r="30.8601" fill="#EDEDED"/>
<rect x="155.933" y="126.48" width="60.3569" height="21.6014" rx="10.8007" transform="rotate(45 155.933 126.48)" fill="#A1A1A1"/>
<circle cx="128.528" cy="114.352" r="30.5971" transform="rotate(45 128.528 114.352)" stroke="#A1A1A1" stroke-width="17.5874"/>
<rect width="26.0244" height="4.48697" rx="2.24349" transform="matrix(-0.707107 -0.707107 -0.707107 0.707107 139.315 121.984)" fill="#6E6E6E"/>
<rect width="26.0244" height="4.48697" rx="2.24348" transform="matrix(-0.707107 0.707107 0.707107 0.707107 136.143 103.584)" fill="#6E6E6E"/>
<path fill-rule="evenodd" clip-rule="evenodd" d="M131.788 62.9551C130.46 62.8713 129.315 63.8805 129.231 65.2091C129.147 66.5377 130.156 67.6827 131.485 67.7665C142.429 68.4568 153.171 72.9816 161.535 81.3451C167.527 87.3378 171.547 94.5481 173.599 102.177C173.945 103.463 175.268 104.225 176.553 103.879C177.839 103.533 178.601 102.21 178.255 100.925C175.988 92.5018 171.549 84.5418 164.943 77.9362C155.719 68.7114 143.859 63.7164 131.788 62.9551ZM122.99 67.29C124.321 67.29 125.4 66.2108 125.4 64.8795C125.4 63.5482 124.321 62.469 122.99 62.469C121.659 62.469 120.579 63.5482 120.579 64.8795C120.579 66.2108 121.659 67.29 122.99 67.29Z" fill="#6E6E6E"/>
<path d="M162.492 142.529L187.079 167.116" stroke="white" stroke-width="6.67273" stroke-linecap="round"/>
</g>
</svg>
