<svg width="20" height="20" viewBox="0 0 20 19" fill="none" xmlns="http://www.w3.org/2000/svg">
<path d="M12.669 3.93433H7.27335C6.73673 3.93433 6.22208 4.11667 5.84263 4.44125C5.46318 4.76583 5.25001 5.20605 5.25001 5.66507V14.8957C5.24953 14.9974 5.28047 15.0973 5.33969 15.1855C5.39891 15.2736 5.48431 15.3468 5.58723 15.3976C5.68976 15.4483 5.80606 15.4749 5.92446 15.4749C6.04285 15.4749 6.15915 15.4483 6.26168 15.3976L9.97115 13.563L13.6806 15.3976C13.7834 15.4475 13.8997 15.4733 14.0179 15.4726C14.136 15.4733 14.2523 15.4475 14.3551 15.3976C14.458 15.3468 14.5434 15.2736 14.6026 15.1855C14.6618 15.0973 14.6928 14.9974 14.6923 14.8957V5.66507C14.6923 5.20605 14.4791 4.76583 14.0997 4.44125C13.7202 4.11667 13.2056 3.93433 12.669 3.93433ZM13.3434 13.8977L10.3084 12.3977C10.2058 12.347 10.0895 12.3204 9.97115 12.3204C9.85276 12.3204 9.73646 12.347 9.63393 12.3977L6.5989 13.8977V5.66507C6.5989 5.51206 6.66996 5.36532 6.79645 5.25713C6.92293 5.14894 7.09448 5.08816 7.27335 5.08816H12.669C12.8478 5.08816 13.0194 5.14894 13.1459 5.25713C13.2723 5.36532 13.3434 5.51206 13.3434 5.66507V13.8977Z" fill="#E71D36"/>
</svg>