<svg width="86" height="66" viewBox="0 0 86 66" fill="none" xmlns="http://www.w3.org/2000/svg">
<rect x="0.972656" y="1.13538" width="83.4815" height="63.5185" rx="4" stroke="#02BA09" stroke-width="1.30765" stroke-dasharray="7.26 7.26"/>
<path d="M38.144 30.1978H37.241C37.0354 30.1978 36.8382 30.1161 36.6929 29.9708C36.5475 29.8254 36.4658 29.6282 36.4658 29.4227V15.8576C36.4658 15.652 36.5475 15.4549 36.6929 15.3095C36.8382 15.1641 37.0354 15.0825 37.241 15.0825H38.144M38.144 30.1978V15.0825M38.144 30.1978H47.7829C47.9885 30.1978 48.1857 30.1161 48.3311 29.9708C48.4764 29.8254 48.5581 29.6282 48.5581 29.4227V15.8576C48.5581 15.652 48.4764 15.4549 48.3311 15.3095C48.1857 15.1641 47.9885 15.0825 47.7829 15.0825H38.144" stroke="#02BA09" stroke-width="0.968932" stroke-linecap="round" stroke-linejoin="round"/>
<path d="M41.0654 17.856H45.6372V20.1585H41.0654V17.856Z" stroke="#02BA09" stroke-width="0.968932" stroke-linecap="round" stroke-linejoin="round"/>
<path d="M35.5236 49.9131H33.7346V44.6337H35.5597C36.0839 44.6337 36.5342 44.7394 36.9105 44.9508C37.2886 45.1604 37.579 45.462 37.7818 45.8556C37.9846 46.2491 38.086 46.72 38.086 47.2683C38.086 47.8182 37.9838 48.2908 37.7793 48.6861C37.5765 49.0814 37.2835 49.3847 36.9002 49.5961C36.5187 49.8075 36.0598 49.9131 35.5236 49.9131ZM34.691 49.0857H35.4772C35.845 49.0857 36.1518 49.0186 36.3975 48.8846C36.6433 48.7488 36.828 48.5469 36.9518 48.2788C37.0755 48.009 37.1374 47.6721 37.1374 47.2683C37.1374 46.8644 37.0755 46.5293 36.9518 46.2629C36.828 45.9948 36.645 45.7946 36.4027 45.6623C36.1621 45.5282 35.8631 45.4612 35.5056 45.4612H34.691V49.0857ZM38.9535 49.9131V45.9536H39.8867V49.9131H38.9535ZM39.4226 45.3916C39.2749 45.3916 39.1477 45.3426 39.0411 45.2446C38.9346 45.145 38.8813 45.0255 38.8813 44.8863C38.8813 44.7454 38.9346 44.626 39.0411 44.528C39.1477 44.4283 39.2749 44.3785 39.4226 44.3785C39.5722 44.3785 39.6993 44.4283 39.8042 44.528C39.9107 44.626 39.964 44.7454 39.964 44.8863C39.964 45.0255 39.9107 45.145 39.8042 45.2446C39.6993 45.3426 39.5722 45.3916 39.4226 45.3916ZM41.9857 49.9931C41.7348 49.9931 41.5088 49.9484 41.3077 49.859C41.1084 49.7679 40.9502 49.6339 40.8334 49.4569C40.7182 49.2799 40.6607 49.0616 40.6607 48.8021C40.6607 48.5787 40.7019 48.3939 40.7844 48.2478C40.8669 48.1018 40.9795 47.9849 41.1221 47.8973C41.2647 47.8096 41.4254 47.7434 41.6042 47.6988C41.7846 47.6524 41.9711 47.6188 42.1636 47.5982C42.3956 47.5742 42.5838 47.5527 42.7281 47.5338C42.8725 47.5132 42.9773 47.4822 43.0426 47.441C43.1096 47.398 43.1431 47.3318 43.1431 47.2425V47.227C43.1431 47.0328 43.0856 46.8824 42.9704 46.7759C42.8553 46.6693 42.6894 46.6161 42.4729 46.6161C42.2443 46.6161 42.063 46.6659 41.929 46.7656C41.7966 46.8653 41.7073 46.983 41.6609 47.1187L40.7896 46.995C40.8583 46.7544 40.9717 46.5533 41.1298 46.3918C41.2879 46.2285 41.4813 46.1065 41.7099 46.0257C41.9384 45.9432 42.1911 45.902 42.4677 45.902C42.6585 45.902 42.8484 45.9243 43.0375 45.969C43.2265 46.0137 43.3992 46.0876 43.5556 46.1907C43.712 46.2921 43.8375 46.4305 43.932 46.6057C44.0282 46.781 44.0763 47.0002 44.0763 47.2631V49.9131H43.1792V49.3692H43.1483C43.0916 49.4792 43.0117 49.5823 42.9086 49.6786C42.8072 49.7731 42.6791 49.8496 42.5245 49.908C42.3715 49.9647 42.1919 49.9931 41.9857 49.9931ZM42.228 49.3073C42.4153 49.3073 42.5777 49.2704 42.7152 49.1965C42.8527 49.1209 42.9584 49.0212 43.0323 48.8975C43.1079 48.7737 43.1457 48.6388 43.1457 48.4927V48.0262C43.1165 48.0502 43.0667 48.0726 42.9962 48.0932C42.9275 48.1138 42.8501 48.1318 42.7642 48.1473C42.6783 48.1628 42.5932 48.1765 42.509 48.1886C42.4248 48.2006 42.3517 48.2109 42.2899 48.2195C42.1507 48.2384 42.0261 48.2693 41.9161 48.3123C41.8061 48.3553 41.7193 48.4154 41.6557 48.4927C41.5921 48.5684 41.5603 48.6663 41.5603 48.7866C41.5603 48.9585 41.6231 49.0882 41.7485 49.1759C41.874 49.2635 42.0338 49.3073 42.228 49.3073ZM45.0147 49.9131V45.9536H45.9195V46.6135H45.9608C46.0329 46.3849 46.1567 46.2088 46.332 46.085C46.509 45.9596 46.7109 45.8968 46.9378 45.8968C46.9893 45.8968 47.0469 45.8994 47.1105 45.9046C47.1758 45.908 47.2299 45.914 47.2729 45.9226V46.781C47.2334 46.7673 47.1706 46.7553 47.0847 46.745C47.0005 46.7329 46.9189 46.7269 46.8398 46.7269C46.6697 46.7269 46.5167 46.7639 46.3809 46.8378C46.2469 46.9099 46.1412 47.0105 46.0639 47.1394C45.9865 47.2683 45.9479 47.4169 45.9479 47.5853V49.9131H45.0147ZM48.5934 51.398C48.4662 51.398 48.3485 51.3877 48.2402 51.3671C48.1337 51.3482 48.0486 51.3258 47.985 51.3L48.2016 50.5731C48.3373 50.6126 48.4585 50.6315 48.565 50.6298C48.6716 50.6281 48.7653 50.5946 48.846 50.5293C48.9285 50.4657 48.9981 50.3591 49.0548 50.2096L49.1347 49.9956L47.6989 45.9536H48.6888L49.6013 48.9439H49.6426L50.5577 45.9536H51.5502L49.9648 50.3926C49.8909 50.6023 49.793 50.7819 49.6709 50.9314C49.5489 51.0826 49.3994 51.1978 49.2224 51.2768C49.0471 51.3576 48.8374 51.398 48.5934 51.398Z" fill="#02BA09"/>
</svg>
