<svg width="63" height="19" viewBox="0 0 63 19" fill="none" xmlns="http://www.w3.org/2000/svg">
<rect x="0.666504" y="0.880798" width="62.3333" height="17.4167" rx="1.83333" fill="#EFF2FC"/>
<g clip-path="url(#clip0_1314_7195)">
<path d="M20.125 5.12039V7.18289L20.8125 6.83914V5.46414L20.125 5.12039Z" fill="#02BA09"/>
<path d="M20.125 9.58914L20.8125 9.24539V7.87039L20.125 7.52664V9.58914Z" fill="#02BA09"/>
<path d="M20.125 11.9954L20.8125 11.6516V10.2766L20.125 9.93289V11.9954Z" fill="#02BA09"/>
<path d="M18.75 13.3704H12.5625V14.0579H18.75V13.3704Z" fill="#02BA09"/>
<path d="M12.5625 4.08914C11.8062 4.08914 11.1875 4.70789 11.1875 5.46414V13.7141C11.1875 14.4704 11.8062 15.0891 12.5625 15.0891H19.2312L19.7812 14.5391V13.3704H19.0938V14.2641L18.9563 14.4016H12.5625C12.1844 14.4016 11.875 14.0923 11.875 13.7141C11.875 13.336 12.1844 13.0266 12.5625 13.0266H19.2312L19.7812 12.4766V4.63914L19.2312 4.08914H12.5625ZM15.6562 6.66727C16.0344 6.66727 16.3438 6.97664 16.3438 7.35477C16.3438 7.73289 16.0344 8.04227 15.6562 8.04227C15.2781 8.04227 14.9688 7.73289 14.9688 7.35477C14.9688 6.97664 15.2781 6.66727 15.6562 6.66727ZM17.0312 10.4485H14.2812V9.07352L15.3125 8.72977H16L17.0312 9.07352V10.4485Z" fill="#02BA09"/>
</g>
<path d="M28.6353 14.0891H26.0454V6.08914H28.7173C29.5011 6.08914 30.1743 6.2493 30.7368 6.56961C31.2993 6.88732 31.7303 7.34435 32.0298 7.9407C32.3319 8.53445 32.4829 9.24669 32.4829 10.0774C32.4829 10.9108 32.3306 11.6269 32.0259 12.2259C31.7238 12.8248 31.2863 13.2858 30.7134 13.6087C30.1405 13.929 29.4478 14.0891 28.6353 14.0891ZM27.2524 13.0345H28.5688C29.1782 13.0345 29.6847 12.9199 30.0884 12.6907C30.492 12.4589 30.7941 12.1243 30.9946 11.6868C31.1951 11.2467 31.2954 10.7102 31.2954 10.0774C31.2954 9.44982 31.1951 8.91727 30.9946 8.47977C30.7967 8.04227 30.5011 7.71024 30.1079 7.48367C29.7147 7.25711 29.2264 7.14383 28.6431 7.14383H27.2524V13.0345ZM35.6362 14.222C35.256 14.222 34.9123 14.1516 34.605 14.011C34.2977 13.8678 34.0542 13.6608 33.8745 13.3899C33.6974 13.1191 33.6089 12.7871 33.6089 12.3938C33.6089 12.0553 33.674 11.7766 33.8042 11.5579C33.9344 11.3391 34.1102 11.166 34.3315 11.0384C34.5529 10.9108 34.8003 10.8144 35.0737 10.7493C35.3472 10.6842 35.6258 10.6347 35.9097 10.6009C36.269 10.5592 36.5607 10.5253 36.7847 10.4993C37.0086 10.4707 37.1714 10.4251 37.2729 10.3626C37.3745 10.3001 37.4253 10.1985 37.4253 10.0579V10.0305C37.4253 9.6894 37.3289 9.42508 37.1362 9.23758C36.9461 9.05008 36.6623 8.95633 36.2847 8.95633C35.8914 8.95633 35.5815 9.04357 35.355 9.21805C35.131 9.38992 34.9761 9.58133 34.8901 9.79227L33.7925 9.54227C33.9227 9.17768 34.1128 8.88341 34.3628 8.65945C34.6154 8.43289 34.9058 8.26883 35.2339 8.16727C35.562 8.0631 35.9071 8.01102 36.269 8.01102C36.5086 8.01102 36.7625 8.03966 37.0308 8.09695C37.3016 8.15164 37.5542 8.2532 37.7886 8.40164C38.0256 8.55008 38.2196 8.76232 38.3706 9.03836C38.5216 9.3118 38.5972 9.66727 38.5972 10.1048V14.0891H37.4565V13.2688H37.4097C37.3341 13.4199 37.2209 13.5683 37.0698 13.7141C36.9188 13.86 36.7248 13.9811 36.4878 14.0774C36.2508 14.1738 35.967 14.222 35.6362 14.222ZM35.8901 13.2845C36.2131 13.2845 36.4891 13.2207 36.7183 13.093C36.95 12.9654 37.1258 12.7988 37.2456 12.593C37.368 12.3847 37.4292 12.1621 37.4292 11.9251V11.1516C37.3875 11.1933 37.3068 11.2324 37.187 11.2688C37.0698 11.3027 36.9357 11.3326 36.7847 11.3587C36.6336 11.3821 36.4865 11.4042 36.3433 11.4251C36.2 11.4433 36.0802 11.4589 35.9839 11.472C35.7573 11.5006 35.5503 11.5488 35.3628 11.6165C35.1779 11.6842 35.0295 11.7819 34.9175 11.9095C34.8081 12.0345 34.7534 12.2011 34.7534 12.4095C34.7534 12.6985 34.8602 12.9173 35.0737 13.0657C35.2873 13.2115 35.5594 13.2845 35.8901 13.2845ZM40.1528 14.0891V8.08914H41.3208V14.0891H40.1528ZM40.7427 7.16336C40.5396 7.16336 40.3651 7.09565 40.2192 6.96024C40.076 6.82221 40.0044 6.65815 40.0044 6.46805C40.0044 6.27534 40.076 6.11128 40.2192 5.97586C40.3651 5.83784 40.5396 5.76883 40.7427 5.76883C40.9458 5.76883 41.119 5.83784 41.2622 5.97586C41.408 6.11128 41.481 6.27534 41.481 6.46805C41.481 6.65815 41.408 6.82221 41.2622 6.96024C41.119 7.09565 40.9458 7.16336 40.7427 7.16336ZM42.8921 14.0891V8.08914H44.021V9.04227H44.0835C44.1929 8.71935 44.3856 8.46544 44.6616 8.28055C44.9403 8.09305 45.2554 7.9993 45.6069 7.9993C45.6799 7.9993 45.7658 8.0019 45.8647 8.00711C45.9663 8.01232 46.0457 8.01883 46.103 8.02664V9.14383C46.0562 9.13081 45.9728 9.11649 45.853 9.10086C45.7332 9.08263 45.6134 9.07352 45.4937 9.07352C45.2176 9.07352 44.9715 9.13211 44.7554 9.2493C44.5418 9.36388 44.3726 9.52404 44.2476 9.72977C44.1226 9.93289 44.0601 10.1647 44.0601 10.4251V14.0891H42.8921ZM48.0347 16.3391C47.8602 16.3391 47.7013 16.3248 47.5581 16.2962C47.4149 16.2701 47.3081 16.2415 47.2378 16.2102L47.519 15.2532C47.7326 15.3105 47.9227 15.3352 48.0894 15.3274C48.256 15.3196 48.4032 15.2571 48.5308 15.1399C48.661 15.0227 48.7756 14.8313 48.8745 14.5657L49.019 14.1673L46.8237 8.08914H48.0737L49.5933 12.7454H49.6558L51.1753 8.08914H52.4292L49.9565 14.8899C49.842 15.2024 49.6961 15.4667 49.519 15.6829C49.342 15.9016 49.131 16.0657 48.8862 16.1751C48.6414 16.2845 48.3576 16.3391 48.0347 16.3391Z" fill="#838383"/>
<defs>
<clipPath id="clip0_1314_7195">
<rect width="11" height="11" fill="white" transform="translate(10.5 4.08914)"/>
</clipPath>
</defs>
</svg>
