<svg width="16" height="17" viewBox="0 0 16 17" fill="none" xmlns="http://www.w3.org/2000/svg">
<path d="M4.80383 14.2691H4.08358C3.91961 14.2691 3.76235 14.204 3.64641 14.088C3.53047 13.9721 3.46533 13.8148 3.46533 13.6509V2.83162C3.46533 2.66765 3.53047 2.5104 3.64641 2.39446C3.76235 2.27852 3.91961 2.21338 4.08358 2.21338H4.80383M4.80383 14.2691V2.21338M4.80383 14.2691H12.4917C12.6556 14.2691 12.8129 14.204 12.9288 14.088C13.0448 13.9721 13.1099 13.8148 13.1099 13.6509V2.83162C13.1099 2.66765 13.0448 2.5104 12.9288 2.39446C12.8129 2.27852 12.6556 2.21338 12.4917 2.21338H4.80383" stroke="#838383" stroke-width="0.772804" stroke-linecap="round" stroke-linejoin="round"/>
<path d="M7.13379 4.42529H10.7802V6.26178H7.13379V4.42529Z" stroke="#838383" stroke-width="0.772804" stroke-linecap="round" stroke-linejoin="round"/>
</svg>
