<svg width="12" height="12" viewBox="0 0 12 12" fill="none" xmlns="http://www.w3.org/2000/svg">
<g clip-path="url(#clip0_1527_6055)">
<path d="M6.45941 3.72827V5.56177H7.60534M7.00258 1.89478H4.8551C4.61197 1.89478 4.37879 1.99136 4.20686 2.16328C4.03494 2.33521 3.93835 2.56839 3.93835 2.81152V8.31201C3.93835 8.55515 4.03494 8.78832 4.20686 8.96025C4.37879 9.13217 4.61197 9.22876 4.8551 9.22876H8.52209C8.76523 9.22876 8.99841 9.13217 9.17033 8.96025C9.34225 8.78832 9.43884 8.55515 9.43884 8.31201V4.29757C9.43883 4.17544 9.41441 4.05455 9.36702 3.94198C9.31964 3.82942 9.25024 3.72746 9.1629 3.6421L7.64339 2.15605C7.47212 1.98859 7.24212 1.89481 7.00258 1.89478Z" fill="#02BA09"/>
<path d="M6.45941 3.72827V5.56177H7.60534M7.00258 1.89478H4.8551C4.61197 1.89478 4.37879 1.99136 4.20686 2.16328C4.03494 2.33521 3.93835 2.56839 3.93835 2.81152V8.31201C3.93835 8.55515 4.03494 8.78832 4.20686 8.96025C4.37879 9.13217 4.61197 9.22876 4.8551 9.22876H8.52209C8.76523 9.22876 8.99841 9.13217 9.17033 8.96025C9.34225 8.78832 9.43884 8.55515 9.43884 8.31201V4.29757C9.43883 4.17544 9.41441 4.05455 9.36702 3.94199C9.31964 3.82942 9.25024 3.72746 9.1629 3.6421L7.64339 2.15605C7.47212 1.98859 7.24212 1.89481 7.00258 1.89478Z" stroke="white" stroke-width="0.644387" stroke-linecap="round" stroke-linejoin="round"/>
<path d="M7.60534 9.22876V10.1455C7.60534 10.3886 7.50876 10.6218 7.33683 10.7937C7.16491 10.9657 6.93173 11.0623 6.6886 11.0623H3.02161C2.77847 11.0623 2.54529 10.9657 2.37337 10.7937C2.20144 10.6218 2.10486 10.3886 2.10486 10.1455V5.10339C2.10486 4.86026 2.20144 4.62708 2.37337 4.45515C2.54529 4.28323 2.77847 4.18665 3.02161 4.18665H3.93835" stroke="#02BA09" stroke-width="0.644387" stroke-linecap="round" stroke-linejoin="round"/>
</g>
<defs>
<clipPath id="clip0_1527_6055">
<rect width="11.001" height="11.001" fill="white" transform="translate(0.271362 0.978027)"/>
</clipPath>
</defs>
</svg>
