<svg width="86" height="66" viewBox="0 0 86 66" fill="none" xmlns="http://www.w3.org/2000/svg">
<rect x="0.944336" y="1.13538" width="83.4815" height="63.5185" rx="4" stroke="#02BA09" stroke-width="1.30765" stroke-dasharray="7.26 7.26"/>
<path d="M43.7438 18.1375V21.2381H45.6816M44.6623 15.0369H41.0308C40.6196 15.0369 40.2253 15.2003 39.9345 15.491C39.6438 15.7817 39.4805 16.1761 39.4805 16.5872V25.889C39.4805 26.3001 39.6438 26.6945 39.9345 26.9852C40.2253 27.2759 40.6196 27.4393 41.0308 27.4393H47.2319C47.6431 27.4393 48.0374 27.2759 48.3281 26.9852C48.6189 26.6945 48.7822 26.3001 48.7822 25.889V19.1002C48.7822 18.8937 48.7409 18.6893 48.6608 18.4989C48.5806 18.3086 48.4633 18.1361 48.3156 17.9918L45.746 15.4788C45.4563 15.1956 45.0674 15.037 44.6623 15.0369Z" stroke="#02BA09" stroke-width="1.08971" stroke-linecap="round" stroke-linejoin="round"/>
<path d="M45.6816 27.4393V28.9896C45.6816 29.4007 45.5183 29.795 45.2276 30.0858C44.9368 30.3765 44.5425 30.5398 44.1313 30.5398H37.9302C37.519 30.5398 37.1247 30.3765 36.834 30.0858C36.5432 29.795 36.3799 29.4007 36.3799 28.9896V20.463C36.3799 20.0518 36.5432 19.6575 36.834 19.3667C37.1247 19.076 37.519 18.9127 37.9302 18.9127H39.4805" stroke="#02BA09" stroke-width="1.08971" stroke-linecap="round" stroke-linejoin="round"/>
<path d="M35.9953 49.9131H34.2063V44.6337H36.0314C36.5556 44.6337 37.0058 44.7394 37.3822 44.9508C37.7603 45.1604 38.0507 45.462 38.2535 45.8556C38.4563 46.2491 38.5577 46.72 38.5577 47.2683C38.5577 47.8182 38.4555 48.2908 38.2509 48.6861C38.0481 49.0814 37.7551 49.3847 37.3719 49.5961C36.9904 49.8075 36.5315 49.9131 35.9953 49.9131ZM35.1627 49.0857H35.9489C36.3167 49.0857 36.6235 49.0186 36.8692 48.8846C37.115 48.7488 37.2997 48.5469 37.4234 48.2788C37.5472 48.009 37.6091 47.6721 37.6091 47.2683C37.6091 46.8644 37.5472 46.5293 37.4234 46.2629C37.2997 45.9948 37.1167 45.7946 36.8744 45.6623C36.6338 45.5282 36.3347 45.4612 35.9773 45.4612H35.1627V49.0857ZM39.4252 49.9131V45.9536H40.33V46.6135H40.3712C40.4434 46.3849 40.5672 46.2088 40.7424 46.085C40.9195 45.9596 41.1214 45.8968 41.3482 45.8968C41.3998 45.8968 41.4574 45.8994 41.521 45.9046C41.5863 45.908 41.6404 45.914 41.6834 45.9226V46.781C41.6438 46.7673 41.5811 46.7553 41.4952 46.745C41.411 46.7329 41.3293 46.7269 41.2503 46.7269C41.0801 46.7269 40.9272 46.7639 40.7914 46.8378C40.6574 46.9099 40.5517 47.0105 40.4743 47.1394C40.397 47.2683 40.3583 47.4169 40.3583 47.5853V49.9131H39.4252ZM43.3719 49.9931C43.121 49.9931 42.895 49.9484 42.6939 49.859C42.4945 49.7679 42.3364 49.6339 42.2196 49.4569C42.1044 49.2799 42.0468 49.0616 42.0468 48.8021C42.0468 48.5787 42.0881 48.3939 42.1706 48.2478C42.2531 48.1018 42.3656 47.9849 42.5083 47.8973C42.6509 47.8096 42.8116 47.7434 42.9903 47.6988C43.1708 47.6524 43.3573 47.6188 43.5497 47.5982C43.7817 47.5742 43.9699 47.5527 44.1143 47.5338C44.2586 47.5132 44.3635 47.4822 44.4288 47.441C44.4958 47.398 44.5293 47.3318 44.5293 47.2425V47.227C44.5293 47.0328 44.4718 46.8824 44.3566 46.7759C44.2415 46.6693 44.0756 46.6161 43.8591 46.6161C43.6305 46.6161 43.4492 46.6659 43.3152 46.7656C43.1828 46.8653 43.0935 46.983 43.0471 47.1187L42.1757 46.995C42.2445 46.7544 42.3579 46.5533 42.516 46.3918C42.6741 46.2285 42.8675 46.1065 43.096 46.0257C43.3246 45.9432 43.5772 45.902 43.8539 45.902C44.0447 45.902 44.2346 45.9243 44.4236 45.969C44.6127 46.0137 44.7854 46.0876 44.9418 46.1907C45.0982 46.2921 45.2236 46.4305 45.3182 46.6057C45.4144 46.781 45.4625 47.0002 45.4625 47.2631V49.9131H44.5654V49.3692H44.5345C44.4778 49.4792 44.3979 49.5823 44.2947 49.6786C44.1933 49.7731 44.0653 49.8496 43.9106 49.908C43.7577 49.9647 43.5781 49.9931 43.3719 49.9931ZM43.6142 49.3073C43.8015 49.3073 43.9639 49.2704 44.1014 49.1965C44.2389 49.1209 44.3446 49.0212 44.4185 48.8975C44.4941 48.7737 44.5319 48.6388 44.5319 48.4927V48.0262C44.5027 48.0502 44.4528 48.0726 44.3824 48.0932C44.3136 48.1138 44.2363 48.1318 44.1504 48.1473C44.0645 48.1628 43.9794 48.1765 43.8952 48.1886C43.811 48.2006 43.7379 48.2109 43.6761 48.2195C43.5368 48.2384 43.4123 48.2693 43.3023 48.3123C43.1923 48.3553 43.1055 48.4154 43.0419 48.4927C42.9783 48.5684 42.9465 48.6663 42.9465 48.7866C42.9465 48.9585 43.0092 49.0882 43.1347 49.1759C43.2602 49.2635 43.42 49.3073 43.6142 49.3073ZM48.4064 45.9536V46.6754H46.0657V45.9536H48.4064ZM46.6509 49.9131V45.5798C46.6509 45.3134 46.7059 45.0917 46.8159 44.9147C46.9276 44.7377 47.0771 44.6053 47.2644 44.5177C47.4518 44.43 47.6597 44.3862 47.8883 44.3862C48.0498 44.3862 48.1933 44.3991 48.3188 44.4249C48.4442 44.4507 48.537 44.4739 48.5972 44.4945L48.4116 45.2163C48.3721 45.2043 48.3222 45.1922 48.2621 45.1802C48.2019 45.1664 48.1349 45.1596 48.061 45.1596C47.8874 45.1596 47.7645 45.2017 47.6924 45.2859C47.6219 45.3684 47.5867 45.487 47.5867 45.6416V49.9131H46.6509ZM51.1145 45.9536V46.6754H48.8382V45.9536H51.1145ZM49.4002 45.0049H50.3334V48.7222C50.3334 48.8476 50.3523 48.9439 50.3901 49.0109C50.4296 49.0762 50.4812 49.1209 50.5448 49.1449C50.6084 49.169 50.6788 49.181 50.7562 49.181C50.8146 49.181 50.8679 49.1767 50.916 49.1681C50.9658 49.1596 51.0036 49.1518 51.0294 49.1449L51.1867 49.8745C51.1368 49.8917 51.0655 49.9106 50.9727 49.9312C50.8816 49.9518 50.7699 49.9638 50.6376 49.9673C50.4038 49.9742 50.1933 49.9389 50.006 49.8616C49.8187 49.7825 49.67 49.6605 49.56 49.4955C49.4518 49.3306 49.3985 49.1243 49.4002 48.8768V45.0049Z" fill="#02BA09"/>
</svg>
