<svg width="15" height="16" viewBox="0 0 15 16" fill="none" xmlns="http://www.w3.org/2000/svg">
<path d="M8.39741 4.64973V7.1227H9.94301M9.13003 2.17676H6.23356C5.90562 2.17676 5.59112 2.30703 5.35923 2.53892C5.12734 2.7708 4.99707 3.08531 4.99707 3.41324V10.8322C4.99707 11.1601 5.12734 11.4746 5.35923 11.7065C5.59112 11.9384 5.90562 12.0686 6.23356 12.0686H11.1795C11.5074 12.0686 11.8219 11.9384 12.0538 11.7065C12.2857 11.4746 12.416 11.1601 12.416 10.8322V5.41759C12.416 5.25286 12.383 5.0898 12.3191 4.93798C12.2552 4.78616 12.1616 4.64864 12.0438 4.5335L9.99433 2.52916C9.76333 2.30329 9.4531 2.1768 9.13003 2.17676Z" stroke="#838383" stroke-width="0.869133" stroke-linecap="round" stroke-linejoin="round"/>
<path d="M9.94284 12.0687V13.3052C9.94284 13.6332 9.81257 13.9477 9.58068 14.1796C9.3488 14.4114 9.03429 14.5417 8.70636 14.5417H3.76041C3.43248 14.5417 3.11797 14.4114 2.88608 14.1796C2.6542 13.9477 2.52393 13.6332 2.52393 13.3052V6.50455C2.52393 6.17662 2.6542 5.86211 2.88608 5.63022C3.11797 5.39834 3.43248 5.26807 3.76041 5.26807H4.9969" stroke="#838383" stroke-width="0.869133" stroke-linecap="round" stroke-linejoin="round"/>
</svg>
