<svg width="19" height="19" viewBox="0 0 19 19" fill="none" xmlns="http://www.w3.org/2000/svg">
  <path d="M8.93214 4.44726L9.43995 5.24525L9.94777 4.44726C10.6627 3.32377 11.926 2.60202 13.3733 2.60202C15.6369 2.60202 17.4914 4.45654 17.4914 6.72011C17.4914 7.71901 17.0303 8.77426 16.2558 9.83041C15.4859 10.8803 14.4462 11.8764 13.3855 12.7443C12.3277 13.6097 11.2669 14.3332 10.4689 14.841C10.0705 15.0946 9.73902 15.2934 9.50807 15.4284C9.4847 15.4421 9.46236 15.4551 9.44109 15.4674C9.41963 15.4549 9.39707 15.4416 9.37347 15.4277C9.14245 15.2918 8.81089 15.0915 8.41239 14.8364C7.6142 14.3254 6.55314 13.5981 5.49508 12.73C4.43403 11.8595 3.39399 10.8619 2.62381 9.81343C1.84869 8.75821 1.38854 7.70819 1.38854 6.72011C1.38854 4.45654 3.24305 2.60202 5.50662 2.60202C6.95388 2.60202 8.2172 3.32377 8.93214 4.44726Z" fill="#FF0000"/>
</svg>
