<svg width="63" height="19" viewBox="0 0 63 19" fill="none" xmlns="http://www.w3.org/2000/svg">
<rect x="0.166504" y="0.880798" width="62.3333" height="17.4167" rx="1.83333" fill="#EFF2FC"/>
<path d="M9.50033 8.09955C8.67766 8.09955 8.01074 8.76647 8.01074 9.58913C8.01074 10.4118 8.67766 11.0787 9.50033 11.0787C10.323 11.0787 10.9899 10.4118 10.9899 9.58913C10.9899 8.76647 10.323 8.09955 9.50033 8.09955Z" fill="#EE4D4D"/>
<path fill-rule="evenodd" clip-rule="evenodd" d="M7.95746 7.50934C8.09357 7.64168 8.09663 7.85931 7.96429 7.99542C7.10956 8.87454 7.10956 10.3037 7.96429 11.1828C8.09663 11.319 8.09357 11.5366 7.95746 11.6689C7.82134 11.8013 7.60371 11.7982 7.47137 11.6621C6.3572 10.5162 6.3572 8.66211 7.47137 7.51617C7.60371 7.38006 7.82134 7.37699 7.95746 7.50934ZM11.0432 7.50934C11.1793 7.37699 11.397 7.38006 11.5293 7.51617C12.6434 8.66211 12.6434 10.5162 11.5293 11.6621C11.397 11.7982 11.1793 11.8013 11.0432 11.6689C10.9071 11.5366 10.904 11.319 11.0364 11.1828C11.8911 10.3037 11.8911 8.87454 11.0364 7.99542C10.904 7.85931 10.9071 7.64168 11.0432 7.50934Z" fill="#EE4D4D"/>
<path fill-rule="evenodd" clip-rule="evenodd" d="M6.98883 6.59629C7.12296 6.73065 7.12277 6.94829 6.98841 7.08242C5.60152 8.46691 5.60152 10.7114 6.98841 12.0959C7.12277 12.23 7.12296 12.4476 6.98883 12.582C6.85471 12.7164 6.63706 12.7165 6.5027 12.5824C4.84676 10.9294 4.84676 8.24894 6.5027 6.59586C6.63706 6.46174 6.85471 6.46192 6.98883 6.59629ZM12.0118 6.59629C12.146 6.46192 12.3636 6.46174 12.498 6.59586C14.1539 8.24894 14.1539 10.9294 12.498 12.5824C12.3636 12.7165 12.146 12.7164 12.0118 12.582C11.8777 12.4476 11.8779 12.23 12.0122 12.0959C13.3991 10.7114 13.3991 8.46691 12.0122 7.08242C11.8779 6.94829 11.8777 6.73065 12.0118 6.59629Z" fill="#EE4D4D"/>
<path d="M24.9595 8.61649C24.884 8.37951 24.7824 8.16727 24.6548 7.97977C24.5298 7.78966 24.38 7.6282 24.2056 7.49539C24.0311 7.35998 23.8319 7.25711 23.6079 7.1868C23.3866 7.11649 23.1431 7.08133 22.8774 7.08133C22.4269 7.08133 22.0207 7.19721 21.6587 7.42899C21.2967 7.66076 21.0103 8.0006 20.7993 8.44852C20.591 8.89383 20.4868 9.4394 20.4868 10.0852C20.4868 10.7337 20.5923 11.2819 20.8032 11.7298C21.0142 12.1777 21.3032 12.5175 21.6704 12.7493C22.0376 12.9811 22.4556 13.097 22.9243 13.097C23.3592 13.097 23.7381 13.0084 24.061 12.8313C24.3866 12.6542 24.6379 12.4042 24.8149 12.0813C24.9946 11.7558 25.0845 11.373 25.0845 10.9329L25.397 10.9915H23.1079V9.99539H26.2524V10.9055C26.2524 11.5774 26.1092 12.1608 25.8228 12.6555C25.5389 13.1477 25.1457 13.5279 24.6431 13.7962C24.1431 14.0644 23.5701 14.1985 22.9243 14.1985C22.2004 14.1985 21.5649 14.0319 21.0181 13.6985C20.4738 13.3652 20.0493 12.8925 19.7446 12.2805C19.4399 11.666 19.2876 10.9368 19.2876 10.093C19.2876 9.45503 19.3761 8.88211 19.5532 8.3743C19.7303 7.86649 19.979 7.4355 20.2993 7.08133C20.6222 6.72456 21.0011 6.45242 21.436 6.26492C21.8735 6.07482 22.3514 5.97977 22.8696 5.97977C23.3019 5.97977 23.7043 6.04357 24.0767 6.17117C24.4517 6.29878 24.785 6.47977 25.0767 6.71414C25.3709 6.94852 25.6144 7.22716 25.8071 7.55008C25.9998 7.87039 26.13 8.22586 26.1978 8.61649H24.9595ZM30.2183 14.2102C29.6558 14.2102 29.1649 14.0813 28.7456 13.8235C28.3263 13.5657 28.0008 13.205 27.769 12.7415C27.5373 12.2779 27.4214 11.7363 27.4214 11.1165C27.4214 10.4941 27.5373 9.94982 27.769 9.48367C28.0008 9.01753 28.3263 8.65555 28.7456 8.39774C29.1649 8.13992 29.6558 8.01102 30.2183 8.01102C30.7808 8.01102 31.2716 8.13992 31.6909 8.39774C32.1102 8.65555 32.4357 9.01753 32.6675 9.48367C32.8993 9.94982 33.0151 10.4941 33.0151 11.1165C33.0151 11.7363 32.8993 12.2779 32.6675 12.7415C32.4357 13.205 32.1102 13.5657 31.6909 13.8235C31.2716 14.0813 30.7808 14.2102 30.2183 14.2102ZM30.2222 13.2298C30.5868 13.2298 30.8888 13.1334 31.1284 12.9407C31.368 12.748 31.5451 12.4915 31.6597 12.1712C31.7769 11.8509 31.8354 11.498 31.8354 11.1126C31.8354 10.7298 31.7769 10.3782 31.6597 10.0579C31.5451 9.73498 31.368 9.47586 31.1284 9.28055C30.8888 9.08524 30.5868 8.98758 30.2222 8.98758C29.855 8.98758 29.5503 9.08524 29.3081 9.28055C29.0685 9.47586 28.8901 9.73498 28.7729 10.0579C28.6584 10.3782 28.6011 10.7298 28.6011 11.1126C28.6011 11.498 28.6584 11.8509 28.7729 12.1712C28.8901 12.4915 29.0685 12.748 29.3081 12.9407C29.5503 13.1334 29.855 13.2298 30.2222 13.2298ZM37.3237 14.0891V6.08914H38.5308V13.0501H42.1558V14.0891H37.3237ZM43.439 14.0891V8.08914H44.6069V14.0891H43.439ZM44.0288 7.16336C43.8257 7.16336 43.6512 7.09565 43.5054 6.96024C43.3621 6.82221 43.2905 6.65815 43.2905 6.46805C43.2905 6.27534 43.3621 6.11128 43.5054 5.97586C43.6512 5.83784 43.8257 5.76883 44.0288 5.76883C44.2319 5.76883 44.4051 5.83784 44.5483 5.97586C44.6942 6.11128 44.7671 6.27534 44.7671 6.46805C44.7671 6.65815 44.6942 6.82221 44.5483 6.96024C44.4051 7.09565 44.2319 7.16336 44.0288 7.16336ZM51.311 8.08914L49.1353 14.0891H47.8853L45.7056 8.08914H46.9595L48.479 12.7063H48.5415L50.0571 8.08914H51.311ZM54.7905 14.2102C54.1994 14.2102 53.6903 14.0839 53.2632 13.8313C52.8387 13.5761 52.5106 13.218 52.2788 12.7571C52.0496 12.2936 51.9351 11.7506 51.9351 11.1282C51.9351 10.5136 52.0496 9.97195 52.2788 9.5032C52.5106 9.03445 52.8335 8.66857 53.2476 8.40555C53.6642 8.14253 54.1512 8.01102 54.7085 8.01102C55.047 8.01102 55.3752 8.06701 55.6929 8.17899C56.0106 8.29096 56.2957 8.46675 56.5483 8.70633C56.8009 8.94591 57.0002 9.25711 57.146 9.63992C57.2918 10.0201 57.3647 10.4824 57.3647 11.0266V11.4407H52.5952V10.5657H56.2202C56.2202 10.2584 56.1577 9.98628 56.0327 9.7493C55.9077 9.50971 55.7319 9.32091 55.5054 9.18289C55.2814 9.04487 55.0184 8.97586 54.7163 8.97586C54.3882 8.97586 54.1017 9.05659 53.8569 9.21805C53.6147 9.3769 53.4272 9.58524 53.2944 9.84305C53.1642 10.0983 53.0991 10.3756 53.0991 10.6751V11.3587C53.0991 11.7597 53.1694 12.1009 53.3101 12.3821C53.4533 12.6634 53.6525 12.8782 53.9077 13.0266C54.1629 13.1725 54.4611 13.2454 54.8022 13.2454C55.0236 13.2454 55.2254 13.2141 55.4077 13.1516C55.59 13.0865 55.7476 12.9902 55.8804 12.8626C56.0132 12.735 56.1147 12.5774 56.1851 12.3899L57.2905 12.5891C57.202 12.9147 57.0431 13.1998 56.814 13.4446C56.5874 13.6868 56.3022 13.8756 55.9585 14.011C55.6174 14.1438 55.228 14.2102 54.7905 14.2102Z" fill="#838383"/>
</svg>
