<svg xmlns="http://www.w3.org/2000/svg" width="23" height="22" viewBox="0 0 23 22" fill="none">
  <rect x="3.53125" y="7.47443" width="16.1414" height="7.75947" fill="white"/>
  <path d="M19.2826 4.70538H3.96833C2.90607 4.70538 2.10938 5.50208 2.10938 6.56434V15.7706C2.10938 16.8328 2.99459 17.6295 3.96833 17.6295H19.2826C20.3448 17.6295 21.1415 16.7443 21.1415 15.7706V6.56434C21.1415 5.5906 20.2563 4.70538 19.2826 4.70538ZM8.30589 13.8231H5.65024C5.4732 13.8231 5.20763 13.6461 5.20763 13.469V8.51181H6.00433V13.1149H8.30589V13.8231ZM10.0763 10.8134V13.8231H9.27963V8.51181H10.0763V10.8134ZM14.0598 9.04294L12.909 13.5575C12.909 13.6461 12.8205 13.7346 12.8205 13.7346H12.5549L12.4664 13.8231H12.2894L12.1123 13.6461L10.9615 9.13146C10.873 8.8659 11.0501 8.68886 11.2271 8.60034C11.4041 8.51181 11.6697 8.68886 11.6697 8.8659L12.3779 11.8756L13.0861 8.8659C13.3516 8.60034 13.5287 8.51181 13.7057 8.51181C13.9713 8.60034 14.0598 8.77738 14.0598 9.04294ZM17.5121 9.30851H15.6532V10.8134H17.5121V11.6101H15.6532V13.1149H17.5121V13.8231H15.2991C15.0335 13.8231 14.8565 13.6461 14.8565 13.469V8.95442C14.8565 8.77738 15.0335 8.51181 15.2991 8.51181H17.5121V9.30851Z" fill="#EE4D4D"/>
</svg>