<svg width="20" height="19" viewBox="0 0 20 19" fill="none" xmlns="http://www.w3.org/2000/svg">
<path d="M9.61492 1.57579C8.58185 1.57579 7.5589 1.77927 6.60447 2.17461C5.65004 2.56995 4.78283 3.1494 4.05234 3.87989C2.57705 5.35517 1.74825 7.35609 1.74825 9.44246C1.74137 11.259 2.37034 13.0206 3.52611 14.4221L1.95278 15.9954C1.84362 16.106 1.76968 16.2465 1.74028 16.3991C1.71088 16.5517 1.72734 16.7096 1.78758 16.8529C1.85292 16.9944 1.95884 17.1133 2.0919 17.1946C2.22496 17.2758 2.37915 17.3157 2.53491 17.3091H9.61492C11.7013 17.3091 13.7022 16.4803 15.1775 15.005C16.6528 13.5297 17.4816 11.5288 17.4816 9.44246C17.4816 7.35609 16.6528 5.35517 15.1775 3.87989C13.7022 2.4046 11.7013 1.57579 9.61492 1.57579ZM9.61492 15.7358H4.43078L5.16238 15.0042C5.3089 14.8568 5.39114 14.6574 5.39114 14.4496C5.39114 14.2418 5.3089 14.0424 5.16238 13.895C4.13231 12.8661 3.49085 11.5118 3.3473 10.063C3.20374 8.61414 3.56698 7.16035 4.37511 5.94928C5.18324 4.73822 6.38627 3.84482 7.77924 3.42129C9.17221 2.99776 10.6689 3.07031 12.0144 3.62657C13.3599 4.18283 14.4709 5.18838 15.1581 6.47192C15.8453 7.75546 16.0663 9.23757 15.7833 10.6657C15.5003 12.0939 14.7309 13.3798 13.6061 14.3042C12.4813 15.2287 11.0708 15.7346 9.61492 15.7358Z" fill="#838383"/>
</svg>
