<svg width="23" height="16" viewBox="0 0 23 16" fill="none" xmlns="http://www.w3.org/2000/svg">
<rect x="0.280273" y="0.121277" width="22.0321" height="14.9697" rx="1.57372" fill="#EFF2FC"/>
<path d="M11.2959 8.42046C11.7455 8.42046 12.1099 8.05603 12.1099 7.60647C12.1099 7.15692 11.7455 6.79248 11.2959 6.79248C10.8464 6.79248 10.4819 7.15692 10.4819 7.60647C10.4819 8.05603 10.8464 8.42046 11.2959 8.42046Z" fill="#838383"/>
<path d="M8.04104 8.42046C8.4906 8.42046 8.85503 8.05603 8.85503 7.60647C8.85503 7.15692 8.4906 6.79248 8.04104 6.79248C7.59149 6.79248 7.22705 7.15692 7.22705 7.60647C7.22705 8.05603 7.59149 8.42046 8.04104 8.42046Z" fill="#838383"/>
<path d="M14.5523 8.42046C15.0018 8.42046 15.3663 8.05603 15.3663 7.60647C15.3663 7.15692 15.0018 6.79248 14.5523 6.79248C14.1027 6.79248 13.7383 7.15692 13.7383 7.60647C13.7383 8.05603 14.1027 8.42046 14.5523 8.42046Z" fill="#838383"/>
<path d="M11.2974 8.4205C11.7469 8.4205 12.1114 8.05606 12.1114 7.6065C12.1114 7.15695 11.7469 6.79251 11.2974 6.79251C10.8478 6.79251 10.4834 7.15695 10.4834 7.6065C10.4834 8.05606 10.8478 8.4205 11.2974 8.4205Z" fill="#838383"/>
<path d="M8.04104 8.42046C8.4906 8.42046 8.85503 8.05603 8.85503 7.60647C8.85503 7.15692 8.4906 6.79248 8.04104 6.79248C7.59149 6.79248 7.22705 7.15692 7.22705 7.60647C7.22705 8.05603 7.59149 8.42046 8.04104 8.42046Z" fill="#838383"/>
<path d="M14.5523 8.4205C15.0018 8.4205 15.3663 8.05606 15.3663 7.6065C15.3663 7.15695 15.0018 6.79251 14.5523 6.79251C14.1027 6.79251 13.7383 7.15695 13.7383 7.6065C13.7383 8.05606 14.1027 8.4205 14.5523 8.4205Z" fill="#838383"/>
</svg>
