<svg width="86" height="66" viewBox="0 0 86 66" fill="none" xmlns="http://www.w3.org/2000/svg">
<rect x="0.916992" y="1.13538" width="83.48" height="63.5174" rx="1.7435" stroke="#02BA09" stroke-width="1.30763" stroke-dasharray="7.26 7.26"/>
<path d="M50.3346 22.6509C50.3346 23.2273 50.1056 23.78 49.6981 24.1877C49.2906 24.5953 48.7379 24.8245 48.1615 24.8247H36.708C36.4225 24.8246 36.1399 24.7683 35.8761 24.659C35.6124 24.5498 35.3728 24.3896 35.171 24.1877C34.9692 23.9858 34.8091 23.7461 34.6999 23.4824C34.5907 23.2186 34.5345 22.9359 34.5346 22.6505C34.5346 22.365 34.5909 22.0823 34.7002 21.8186C34.8095 21.5549 34.9697 21.3153 35.1715 21.1135C35.3734 20.9116 35.6131 20.7516 35.8769 20.6424C36.1406 20.5332 36.4233 20.477 36.7088 20.4771H48.1623C48.7386 20.4775 49.2911 20.7067 49.6984 21.1143C50.1057 21.5219 50.3346 22.0746 50.3346 22.6509ZM46.3851 28.1802C46.3851 28.7566 46.1561 29.3094 45.7486 29.717C45.3411 30.1246 44.7884 30.3538 44.212 30.354H36.708C36.1315 30.354 35.5785 30.1249 35.1709 29.7173C34.7632 29.3096 34.5342 28.7567 34.5342 28.1802C34.5342 27.6036 34.7632 27.0507 35.1709 26.643C35.5785 26.2354 36.1315 26.0064 36.708 26.0064H44.212C44.7884 26.0066 45.3411 26.2357 45.7486 26.6433C46.1561 27.051 46.3851 27.6038 46.3851 28.1802ZM42.4356 17.1216C42.4356 17.407 42.3793 17.6897 42.2701 17.9534C42.1608 18.2172 42.0007 18.4568 41.7989 18.6587C41.597 18.8605 41.3574 19.0206 41.0936 19.1299C40.8299 19.2391 40.5472 19.2954 40.2617 19.2954H36.7088C36.1322 19.2954 35.5793 19.0663 35.1717 18.6587C34.764 18.251 34.535 17.6981 34.535 17.1216C34.535 16.545 34.764 15.9921 35.1717 15.5844C35.5793 15.1768 36.1322 14.9478 36.7088 14.9478H40.2617C40.8383 14.9478 41.3912 15.1768 41.7989 15.5844C42.2065 15.9921 42.4356 16.545 42.4356 17.1216Z" stroke="#02BA09" stroke-width="0.860991"/>
<path d="M34.6779 49.9124V44.633H36.6577C37.0633 44.633 37.4036 44.7086 37.6785 44.8598C37.9552 45.0111 38.164 45.219 38.3049 45.4837C38.4476 45.7466 38.5189 46.0456 38.5189 46.3807C38.5189 46.7193 38.4476 47.02 38.3049 47.283C38.1623 47.5459 37.9518 47.753 37.6734 47.9042C37.395 48.0537 37.0521 48.1285 36.6448 48.1285H35.3327V47.3423H36.5159C36.7531 47.3423 36.9473 47.301 37.0985 47.2185C37.2497 47.136 37.3615 47.0226 37.4336 46.8783C37.5075 46.7339 37.5445 46.5681 37.5445 46.3807C37.5445 46.1934 37.5075 46.0284 37.4336 45.8858C37.3615 45.7432 37.2489 45.6323 37.0959 45.5533C36.9447 45.4725 36.7497 45.4321 36.5108 45.4321H35.6343V49.9124H34.6779ZM40.9788 49.9897C40.5921 49.9897 40.257 49.9046 39.9734 49.7345C39.6899 49.5643 39.4699 49.3263 39.3135 49.0204C39.1588 48.7145 39.0815 48.3571 39.0815 47.9481C39.0815 47.539 39.1588 47.1807 39.3135 46.8731C39.4699 46.5655 39.6899 46.3266 39.9734 46.1565C40.257 45.9863 40.5921 45.9013 40.9788 45.9013C41.3654 45.9013 41.7006 45.9863 41.9841 46.1565C42.2677 46.3266 42.4868 46.5655 42.6415 46.8731C42.7979 47.1807 42.876 47.539 42.876 47.9481C42.876 48.3571 42.7979 48.7145 42.6415 49.0204C42.4868 49.3263 42.2677 49.5643 41.9841 49.7345C41.7006 49.9046 41.3654 49.9897 40.9788 49.9897ZM40.9839 49.2421C41.1936 49.2421 41.3689 49.1846 41.5098 49.0694C41.6507 48.9525 41.7556 48.7962 41.8243 48.6002C41.8948 48.4043 41.93 48.1861 41.93 47.9455C41.93 47.7032 41.8948 47.4841 41.8243 47.2881C41.7556 47.0905 41.6507 46.9333 41.5098 46.8164C41.3689 46.6995 41.1936 46.6411 40.9839 46.6411C40.7691 46.6411 40.5904 46.6995 40.4477 46.8164C40.3068 46.9333 40.2011 47.0905 40.1307 47.2881C40.0619 47.4841 40.0276 47.7032 40.0276 47.9455C40.0276 48.1861 40.0619 48.4043 40.1307 48.6002C40.2011 48.7962 40.3068 48.9525 40.4477 49.0694C40.5904 49.1846 40.7691 49.2421 40.9839 49.2421ZM44.6012 44.633V49.9124H43.6681V44.633H44.6012ZM46.494 44.633V49.9124H45.5608V44.633H46.494ZM50.5831 46.9994L49.7324 47.0922C49.7083 47.0063 49.6662 46.9255 49.6061 46.8499C49.5476 46.7743 49.4686 46.7133 49.3689 46.6669C49.2692 46.6205 49.1472 46.5973 49.0029 46.5973C48.8087 46.5973 48.6454 46.6394 48.5131 46.7236C48.3825 46.8078 48.318 46.9169 48.3197 47.051C48.318 47.1661 48.3601 47.2598 48.4461 47.332C48.5337 47.4041 48.6781 47.4634 48.8791 47.5098L49.5545 47.6542C49.9292 47.735 50.2076 47.863 50.3897 48.0383C50.5736 48.2136 50.6664 48.443 50.6681 48.7266C50.6664 48.9757 50.5934 49.1957 50.449 49.3865C50.3064 49.5755 50.1079 49.7233 49.8536 49.8299C49.5992 49.9364 49.3071 49.9897 48.9771 49.9897C48.4925 49.9897 48.1024 49.8883 47.8068 49.6855C47.5112 49.481 47.335 49.1966 47.2783 48.8322L48.1883 48.7446C48.2295 48.9233 48.3172 49.0582 48.4512 49.1493C48.5853 49.2404 48.7597 49.2859 48.9745 49.2859C49.1962 49.2859 49.3741 49.2404 49.5081 49.1493C49.6439 49.0582 49.7118 48.9457 49.7118 48.8116C49.7118 48.6982 49.6679 48.6045 49.5803 48.5306C49.4944 48.4567 49.3603 48.4 49.1782 48.3605L48.5028 48.2187C48.123 48.1397 47.842 48.0065 47.6598 47.8192C47.4777 47.6301 47.3874 47.3912 47.3892 47.1025C47.3874 46.8585 47.4536 46.6471 47.5876 46.4684C47.7234 46.2879 47.9116 46.1487 48.1522 46.0508C48.3945 45.9511 48.6738 45.9013 48.99 45.9013C49.454 45.9013 49.8192 46.0001 50.0856 46.1977C50.3536 46.3954 50.5195 46.6626 50.5831 46.9994Z" fill="#02BA09"/>
</svg>
