<svg width="17" height="17" viewBox="0 0 17 17" fill="none" xmlns="http://www.w3.org/2000/svg">
<path d="M14.7803 8.24934C14.7803 8.70906 14.5978 9.14996 14.2727 9.47509C13.9477 9.80022 13.5069 9.98296 13.0472 9.98313H3.91201C3.68433 9.98308 3.45888 9.9382 3.24854 9.85103C3.03821 9.76386 2.8471 9.63611 2.68613 9.47509C2.52516 9.31406 2.39749 9.12291 2.31039 8.91254C2.2233 8.70217 2.1785 8.47671 2.17854 8.24902C2.17858 8.02134 2.22347 7.79589 2.31064 7.58555C2.3978 7.37521 2.52555 7.18411 2.68658 7.02314C2.8476 6.86217 3.03876 6.73449 3.24913 6.6474C3.4595 6.56031 3.68496 6.5155 3.91264 6.51555H13.0478C13.5074 6.51588 13.9481 6.69869 14.273 7.02381C14.5978 7.34892 14.7803 7.78972 14.7803 8.24934ZM11.6303 12.6594C11.6303 13.1191 11.4477 13.56 11.1227 13.8852C10.7977 14.2103 10.3568 14.393 9.89712 14.3932H3.91201C3.45218 14.3932 3.01119 14.2105 2.68604 13.8854C2.36089 13.5602 2.17822 13.1192 2.17822 12.6594C2.17822 12.1996 2.36089 11.7586 2.68604 11.4334C3.01119 11.1083 3.45218 10.9256 3.91201 10.9256H9.89712C10.3568 10.9258 10.7977 11.1085 11.1227 11.4337C11.4477 11.7588 11.6303 12.1997 11.6303 12.6594ZM8.48022 3.83926C8.48022 4.06694 8.43538 4.2924 8.34825 4.50275C8.26111 4.7131 8.1334 4.90424 7.97241 5.06523C7.81141 5.22623 7.62028 5.35394 7.40992 5.44107C7.19957 5.5282 6.97412 5.57305 6.74643 5.57305H3.91264C3.45281 5.57305 3.01182 5.39038 2.68667 5.06523C2.36152 4.74009 2.17885 4.29909 2.17885 3.83926C2.17885 3.37943 2.36152 2.93843 2.68667 2.61328C3.01182 2.28814 3.45281 2.10547 3.91264 2.10547H6.74643C7.20626 2.10547 7.64726 2.28814 7.97241 2.61328C8.29756 2.93843 8.48022 3.37943 8.48022 3.83926Z" stroke="#838383" stroke-width="0.686712"/>
</svg>
