<svg width="86" height="66" viewBox="0 0 86 66" fill="none" xmlns="http://www.w3.org/2000/svg">
<rect x="1" y="1.13538" width="83.4815" height="63.5185" rx="4" stroke="#02BA09" stroke-width="1.30765" stroke-dasharray="7.26 7.26"/>
<path d="M40.0041 28.9895H37.6787C36.8564 28.9895 36.0677 28.6628 35.4863 28.0813C34.9048 27.4999 34.5781 26.7112 34.5781 25.8889V18.9126C34.5781 18.0903 34.9048 17.3016 35.4863 16.7202C36.0677 16.1387 36.8564 15.812 37.6787 15.812H46.2053C47.0276 15.812 47.8163 16.1387 48.3978 16.7202C48.9792 17.3016 49.3059 18.0903 49.3059 18.9126V21.238M39.229 15.0369V16.5872M44.655 15.0369V16.5872M34.5781 19.6877H49.3059M47.368 25.6122L46.2053 26.7749" stroke="#02BA09" stroke-width="1.08971" stroke-linecap="round" stroke-linejoin="round"/>
<path d="M46.2048 30.5398C48.3453 30.5398 50.0806 28.8046 50.0806 26.6641C50.0806 24.5236 48.3453 22.7883 46.2048 22.7883C44.0643 22.7883 42.3291 24.5236 42.3291 26.6641C42.3291 28.8046 44.0643 30.5398 46.2048 30.5398Z" stroke="#02BA09" stroke-width="1.08971" stroke-linecap="round" stroke-linejoin="round"/>
<path d="M20.6311 46.085C20.607 45.8599 20.5056 45.6846 20.3269 45.5591C20.1499 45.4337 19.9196 45.371 19.636 45.371C19.4367 45.371 19.2657 45.401 19.1231 45.4612C18.9804 45.5213 18.8713 45.603 18.7957 45.7061C18.72 45.8092 18.6814 45.9269 18.6797 46.0592C18.6797 46.1692 18.7046 46.2646 18.7544 46.3454C18.806 46.4262 18.8756 46.4949 18.9632 46.5516C19.0509 46.6066 19.148 46.653 19.2545 46.6908C19.3611 46.7286 19.4685 46.7604 19.5768 46.7862L20.0717 46.9099C20.2711 46.9563 20.4627 47.0191 20.6466 47.0981C20.8322 47.1772 20.998 47.2769 21.1441 47.3972C21.2919 47.5175 21.4088 47.6627 21.4947 47.8328C21.5806 48.003 21.6236 48.2023 21.6236 48.4309C21.6236 48.7402 21.5445 49.0126 21.3864 49.2481C21.2283 49.4818 20.9997 49.6648 20.7007 49.7971C20.4034 49.9278 20.0433 49.9931 19.6206 49.9931C19.2098 49.9931 18.8532 49.9295 18.5508 49.8023C18.25 49.6751 18.0146 49.4895 17.8444 49.2455C17.676 49.0014 17.5849 48.7041 17.5712 48.3535H18.5121C18.5258 48.5374 18.5826 48.6904 18.6822 48.8124C18.7819 48.9344 18.9117 49.0255 19.0715 49.0857C19.233 49.1458 19.4135 49.1759 19.6128 49.1759C19.8208 49.1759 20.003 49.1449 20.1594 49.0831C20.3175 49.0195 20.4412 48.9318 20.5306 48.8201C20.6199 48.7067 20.6655 48.5744 20.6672 48.4231C20.6655 48.2857 20.6251 48.1722 20.546 48.0829C20.467 47.9918 20.3561 47.9162 20.2135 47.856C20.0726 47.7941 19.9076 47.7391 19.7185 47.691L19.1179 47.5364C18.6831 47.4247 18.3394 47.2554 18.0867 47.0285C17.8358 46.7999 17.7104 46.4966 17.7104 46.1185C17.7104 45.8075 17.7946 45.5351 17.963 45.3014C18.1332 45.0676 18.3643 44.8863 18.6565 44.7574C18.9486 44.6268 19.2794 44.5615 19.6489 44.5615C20.0236 44.5615 20.3518 44.6268 20.6337 44.7574C20.9172 44.8863 21.1398 45.0659 21.3013 45.2962C21.4629 45.5248 21.5462 45.7877 21.5514 46.085H20.6311ZM24.1621 49.9905C23.7669 49.9905 23.4274 49.9037 23.1439 49.7301C22.862 49.5565 22.6446 49.3168 22.4917 49.0109C22.3404 48.7033 22.2648 48.3492 22.2648 47.9488C22.2648 47.5467 22.3422 47.1918 22.4968 46.8842C22.6515 46.5748 22.8698 46.3342 23.1516 46.1624C23.4352 45.9888 23.7703 45.902 24.157 45.902C24.4783 45.902 24.7628 45.9613 25.0102 46.0799C25.2594 46.1967 25.4579 46.3626 25.6057 46.5774C25.7535 46.7905 25.8377 47.0397 25.8584 47.325H24.9664C24.9303 47.1342 24.8444 46.9752 24.7086 46.8481C24.5746 46.7192 24.395 46.6547 24.1699 46.6547C23.9791 46.6547 23.8115 46.7063 23.6672 46.8094C23.5228 46.9108 23.4103 47.0569 23.3295 47.2476C23.2504 47.4384 23.2109 47.667 23.2109 47.9333C23.2109 48.2032 23.2504 48.4352 23.3295 48.6294C23.4085 48.8219 23.5194 48.9705 23.662 49.0753C23.8064 49.1785 23.9757 49.23 24.1699 49.23C24.3073 49.23 24.4302 49.2042 24.5385 49.1527C24.6485 49.0994 24.7404 49.0229 24.8143 48.9232C24.8882 48.8236 24.9389 48.7024 24.9664 48.5598H25.8584C25.836 48.8399 25.7535 49.0882 25.6109 49.3048C25.4682 49.5196 25.274 49.688 25.0283 49.81C24.7825 49.9303 24.4938 49.9905 24.1621 49.9905ZM27.5578 47.5931V49.9131H26.6246V44.6337H27.5372V46.6264H27.5836C27.6764 46.403 27.8199 46.2268 28.0141 46.0979C28.21 45.9673 28.4592 45.902 28.7617 45.902C29.0366 45.902 29.2764 45.9596 29.4809 46.0747C29.6854 46.1899 29.8435 46.3583 29.9552 46.58C30.0687 46.8017 30.1254 47.0723 30.1254 47.392V49.9131H29.1922V47.5364C29.1922 47.27 29.1234 47.0629 28.986 46.9151C28.8502 46.7656 28.6594 46.6908 28.4137 46.6908C28.2487 46.6908 28.1009 46.7269 27.9703 46.7991C27.8414 46.8696 27.74 46.9718 27.6661 47.1059C27.5939 47.2399 27.5578 47.4023 27.5578 47.5931ZM32.8295 49.9905C32.4326 49.9905 32.0897 49.908 31.801 49.743C31.514 49.5763 31.2931 49.3409 31.1385 49.0367C30.9838 48.7308 30.9065 48.3707 30.9065 47.9565C30.9065 47.5492 30.9838 47.1918 31.1385 46.8842C31.2949 46.5748 31.5131 46.3342 31.7932 46.1624C32.0734 45.9888 32.4025 45.902 32.7806 45.902C33.0246 45.902 33.2549 45.9415 33.4714 46.0206C33.6897 46.0979 33.8822 46.2182 34.0489 46.3815C34.2173 46.5447 34.3496 46.7527 34.4459 47.0053C34.5421 47.2562 34.5902 47.5553 34.5902 47.9024V48.1886H31.3447V47.5596H33.6957C33.694 47.3808 33.6553 47.2219 33.5797 47.0827C33.5041 46.9417 33.3984 46.8309 33.2626 46.7501C33.1286 46.6693 32.9722 46.629 32.7935 46.629C32.6027 46.629 32.4351 46.6754 32.2908 46.7682C32.1464 46.8592 32.0338 46.9795 31.9531 47.1291C31.874 47.2769 31.8336 47.4393 31.8319 47.6163V48.1654C31.8319 48.3956 31.874 48.5933 31.9582 48.7583C32.0424 48.9215 32.1602 49.047 32.3114 49.1346C32.4626 49.2206 32.6396 49.2635 32.8424 49.2635C32.9782 49.2635 33.1011 49.2446 33.2111 49.2068C33.3211 49.1673 33.4164 49.1097 33.4972 49.0341C33.578 48.9585 33.639 48.8648 33.6802 48.7531L34.5516 48.8511C34.4966 49.0814 34.3917 49.2824 34.2371 49.4543C34.0841 49.6244 33.8882 49.7568 33.6493 49.8513C33.4104 49.9441 33.1372 49.9905 32.8295 49.9905ZM36.8491 49.9827C36.538 49.9827 36.2596 49.9028 36.0138 49.743C35.7681 49.5832 35.5739 49.3512 35.4313 49.047C35.2886 48.7428 35.2173 48.3733 35.2173 47.9385C35.2173 47.4985 35.2895 47.1273 35.4338 46.8249C35.5799 46.5207 35.7767 46.2913 36.0242 46.1366C36.2716 45.9802 36.5475 45.902 36.8517 45.902C37.0837 45.902 37.2744 45.9415 37.4239 46.0206C37.5735 46.0979 37.692 46.1916 37.7797 46.3016C37.8673 46.4098 37.9352 46.5121 37.9833 46.6083H38.022V44.6337H38.9578V49.9131H38.04V49.2893H37.9833C37.9352 49.3855 37.8656 49.4878 37.7745 49.5961C37.6834 49.7026 37.5631 49.7937 37.4136 49.8693C37.2641 49.9449 37.0759 49.9827 36.8491 49.9827ZM37.1094 49.2171C37.3071 49.2171 37.4755 49.1638 37.6147 49.0573C37.7539 48.949 37.8596 48.7987 37.9318 48.6062C38.004 48.4137 38.04 48.1894 38.04 47.9333C38.04 47.6773 38.004 47.4547 37.9318 47.2657C37.8613 47.0766 37.7565 46.9297 37.6173 46.8249C37.4798 46.72 37.3105 46.6676 37.1094 46.6676C36.9015 46.6676 36.7279 46.7218 36.5887 46.83C36.4495 46.9383 36.3447 47.0878 36.2742 47.2786C36.2038 47.4693 36.1685 47.6876 36.1685 47.9333C36.1685 48.1808 36.2038 48.4017 36.2742 48.5959C36.3464 48.7883 36.4521 48.9404 36.5913 49.0521C36.7322 49.1621 36.9049 49.2171 37.1094 49.2171ZM42.4759 48.2478V45.9536H43.4091V49.9131H42.5043V49.2094H42.463C42.3736 49.4311 42.2267 49.6124 42.0222 49.7533C41.8194 49.8942 41.5694 49.9647 41.272 49.9647C41.0125 49.9647 40.7831 49.9071 40.5838 49.792C40.3861 49.6751 40.2314 49.5058 40.1197 49.2841C40.008 49.0607 39.9522 48.7909 39.9522 48.4747V45.9536H40.8854V48.3303C40.8854 48.5813 40.9541 48.7806 41.0916 48.9284C41.2291 49.0762 41.4095 49.1501 41.6329 49.1501C41.7704 49.1501 41.9036 49.1166 42.0325 49.0496C42.1614 48.9825 42.2671 48.8829 42.3496 48.7505C42.4338 48.6165 42.4759 48.4489 42.4759 48.2478ZM45.3019 44.6337V49.9131H44.3687V44.6337H45.3019ZM48.0144 49.9905C47.6175 49.9905 47.2746 49.908 46.9859 49.743C46.6989 49.5763 46.478 49.3409 46.3234 49.0367C46.1687 48.7308 46.0914 48.3707 46.0914 47.9565C46.0914 47.5492 46.1687 47.1918 46.3234 46.8842C46.4798 46.5748 46.698 46.3342 46.9781 46.1624C47.2583 45.9888 47.5874 45.902 47.9655 45.902C48.2095 45.902 48.4398 45.9415 48.6563 46.0206C48.8746 46.0979 49.0671 46.2182 49.2338 46.3815C49.4022 46.5447 49.5345 46.7527 49.6308 47.0053C49.727 47.2562 49.7751 47.5553 49.7751 47.9024V48.1886H46.5296V47.5596H48.8806C48.8789 47.3808 48.8402 47.2219 48.7646 47.0827C48.689 46.9417 48.5833 46.8309 48.4475 46.7501C48.3135 46.6693 48.1571 46.629 47.9784 46.629C47.7876 46.629 47.62 46.6754 47.4757 46.7682C47.3313 46.8592 47.2187 46.9795 47.138 47.1291C47.0589 47.2769 47.0185 47.4393 47.0168 47.6163V48.1654C47.0168 48.3956 47.0589 48.5933 47.1431 48.7583C47.2273 48.9215 47.3451 49.047 47.4963 49.1346C47.6475 49.2206 47.8245 49.2635 48.0273 49.2635C48.1631 49.2635 48.286 49.2446 48.396 49.2068C48.506 49.1673 48.6013 49.1097 48.6821 49.0341C48.7629 48.9585 48.8239 48.8648 48.8651 48.7531L49.7365 48.8511C49.6815 49.0814 49.5766 49.2824 49.422 49.4543C49.269 49.6244 49.0731 49.7568 48.8342 49.8513C48.5953 49.9441 48.3221 49.9905 48.0144 49.9905ZM52.4065 49.9131V44.6337H54.3863C54.7919 44.6337 55.1321 44.7093 55.4071 44.8605C55.6838 45.0118 55.8926 45.2197 56.0335 45.4844C56.1762 45.7473 56.2475 46.0464 56.2475 46.3815C56.2475 46.72 56.1762 47.0208 56.0335 47.2837C55.8909 47.5467 55.6804 47.7538 55.402 47.905C55.1235 48.0545 54.7807 48.1293 54.3734 48.1293H53.0613V47.343H54.2445C54.4817 47.343 54.6759 47.3018 54.8271 47.2193C54.9783 47.1368 55.09 47.0234 55.1622 46.879C55.2361 46.7346 55.2731 46.5688 55.2731 46.3815C55.2731 46.1942 55.2361 46.0292 55.1622 45.8865C55.09 45.7439 54.9775 45.633 54.8245 45.554C54.6733 45.4732 54.4782 45.4328 54.2393 45.4328H53.3629V49.9131H52.4065ZM58.7074 49.9905C58.3207 49.9905 57.9856 49.9054 57.702 49.7353C57.4185 49.5651 57.1985 49.3271 57.0421 49.0212C56.8874 48.7153 56.8101 48.3578 56.8101 47.9488C56.8101 47.5398 56.8874 47.1815 57.0421 46.8738C57.1985 46.5662 57.4185 46.3273 57.702 46.1572C57.9856 45.9871 58.3207 45.902 58.7074 45.902C59.0941 45.902 59.4292 45.9871 59.7128 46.1572C59.9963 46.3273 60.2155 46.5662 60.3701 46.8738C60.5265 47.1815 60.6047 47.5398 60.6047 47.9488C60.6047 48.3578 60.5265 48.7153 60.3701 49.0212C60.2155 49.3271 59.9963 49.5651 59.7128 49.7353C59.4292 49.9054 59.0941 49.9905 58.7074 49.9905ZM58.7126 49.2429C58.9222 49.2429 59.0975 49.1853 59.2385 49.0702C59.3794 48.9533 59.4842 48.7969 59.553 48.601C59.6234 48.4051 59.6586 48.1868 59.6586 47.9462C59.6586 47.7039 59.6234 47.4848 59.553 47.2889C59.4842 47.0912 59.3794 46.934 59.2385 46.8171C59.0975 46.7003 58.9222 46.6418 58.7126 46.6418C58.4977 46.6418 58.319 46.7003 58.1764 46.8171C58.0355 46.934 57.9298 47.0912 57.8593 47.2889C57.7906 47.4848 57.7562 47.7039 57.7562 47.9462C57.7562 48.1868 57.7906 48.4051 57.8593 48.601C57.9298 48.7969 58.0355 48.9533 58.1764 49.0702C58.319 49.1853 58.4977 49.2429 58.7126 49.2429ZM64.5263 47.0002L63.6756 47.093C63.6515 47.007 63.6094 46.9263 63.5493 46.8506C63.4909 46.775 63.4118 46.714 63.3121 46.6676C63.2124 46.6212 63.0904 46.598 62.9461 46.598C62.7519 46.598 62.5886 46.6401 62.4563 46.7243C62.3257 46.8085 62.2612 46.9177 62.2629 47.0517C62.2612 47.1669 62.3033 47.2605 62.3892 47.3327C62.4769 47.4049 62.6213 47.4642 62.8223 47.5106L63.4977 47.6549C63.8724 47.7357 64.1508 47.8637 64.333 48.039C64.5168 48.2143 64.6096 48.4438 64.6114 48.7273C64.6096 48.9765 64.5366 49.1965 64.3922 49.3873C64.2496 49.5763 64.0511 49.7241 63.7968 49.8307C63.5424 49.9372 63.2503 49.9905 62.9203 49.9905C62.4356 49.9905 62.0455 49.8891 61.7499 49.6863C61.4543 49.4818 61.2782 49.1974 61.2215 48.833L62.1315 48.7454C62.1727 48.9241 62.2604 49.059 62.3944 49.1501C62.5284 49.2412 62.7029 49.2867 62.9177 49.2867C63.1394 49.2867 63.3173 49.2412 63.4513 49.1501C63.5871 49.059 63.655 48.9464 63.655 48.8124C63.655 48.699 63.6112 48.6053 63.5235 48.5314C63.4376 48.4575 63.3035 48.4008 63.1214 48.3613L62.446 48.2195C62.0662 48.1404 61.7852 48.0072 61.603 47.8199C61.4208 47.6309 61.3306 47.392 61.3323 47.1033C61.3306 46.8592 61.3968 46.6479 61.5308 46.4691C61.6666 46.2887 61.8548 46.1495 62.0954 46.0515C62.3377 45.9518 62.617 45.902 62.9332 45.902C63.3972 45.902 63.7624 46.0008 64.0288 46.1984C64.2969 46.3961 64.4627 46.6633 64.5263 47.0002ZM67.3581 45.9536V46.6754H65.0818V45.9536H67.3581ZM65.6438 45.0049H66.577V48.7222C66.577 48.8476 66.5959 48.9439 66.6337 49.0109C66.6732 49.0762 66.7248 49.1209 66.7884 49.1449C66.852 49.169 66.9224 49.181 66.9998 49.181C67.0582 49.181 67.1115 49.1767 67.1596 49.1681C67.2094 49.1596 67.2472 49.1518 67.273 49.1449L67.4303 49.8745C67.3804 49.8917 67.3091 49.9106 67.2163 49.9312C67.1252 49.9518 67.0135 49.9638 66.8812 49.9673C66.6474 49.9742 66.4369 49.9389 66.2496 49.8616C66.0623 49.7825 65.9136 49.6605 65.8036 49.4955C65.6954 49.3306 65.6421 49.1243 65.6438 48.8768V45.0049Z" fill="#02BA09"/>
</svg>
