<svg width="16" height="17" viewBox="0 0 16 17" fill="none" xmlns="http://www.w3.org/2000/svg">
<path d="M6.16169 13.3051H4.30696C3.65108 13.3051 3.02207 13.0446 2.5583 12.5808C2.09453 12.117 1.83398 11.488 1.83398 10.8322V5.26797C1.83398 4.6121 2.09453 3.98309 2.5583 3.51932C3.02207 3.05555 3.65108 2.795 4.30696 2.795H11.1076C11.7635 2.795 12.3925 3.05555 12.8563 3.51932C13.3201 3.98309 13.5806 4.6121 13.5806 5.26797V7.1227M5.54344 2.17676V3.41324M9.87114 2.17676V3.41324M1.83398 5.88622H13.5806M12.035 10.6114L11.1076 11.5388" stroke="#fff" stroke-width="0.869133" stroke-linecap="round" stroke-linejoin="round"/>
<path d="M11.1073 14.5418C12.8146 14.5418 14.1985 13.1578 14.1985 11.4506C14.1985 9.74336 12.8146 8.35938 11.1073 8.35938C9.4001 8.35938 8.01611 9.74336 8.01611 11.4506C8.01611 13.1578 9.4001 14.5418 11.1073 14.5418Z" stroke="#fff" stroke-width="0.869133" stroke-linecap="round" stroke-linejoin="round"/>
</svg>
