<svg width="102" height="18" viewBox="0 0 102 18" fill="none" xmlns="http://www.w3.org/2000/svg">
<rect width="101.667" height="17.4167" rx="1.83333" fill="#EFF2FC"/>
<g clip-path="url(#clip0_1527_6103)">
<path d="M8.92383 3.89478V4.81152M12.1324 3.89478V4.81152M6.17358 6.64502H14.8827M9.3822 12.1455C8.84518 12.1455 8.00708 12.1455 8.00708 12.1455C8.00708 12.1455 8.00708 12.1455 8.00708 12.1455C7.52081 12.1455 7.05445 11.9523 6.7106 11.6085C6.36676 11.2646 6.17358 10.7983 6.17358 10.312V6.18664C6.17358 5.70037 6.36676 5.23401 6.7106 4.89017C7.05445 4.54632 7.52081 4.35315 8.00708 4.35315H13.0492C13.5355 4.35315 14.0018 4.54632 14.3457 4.89017C14.6895 5.23401 14.8827 5.70037 14.8827 6.18664V7.56177V10.1455C14.8827 11.2501 13.9873 12.1455 12.8827 12.1455H9.3822Z" stroke="#02BA09" stroke-width="0.644387" stroke-linecap="round" stroke-linejoin="round"/>
<path d="M13.2321 12.4642C14.4649 12.4642 15.4642 11.4649 15.4642 10.2321C15.4642 8.99935 14.4649 8 13.2321 8C11.9994 8 11 8.99935 11 10.2321C11 11.4649 11.9994 12.4642 13.2321 12.4642Z" fill="#02BA09" stroke="#02BA09" stroke-width="0.627586" stroke-linecap="round" stroke-linejoin="round"/>
<path d="M13.9018 9.62631L13.2322 10.2959" stroke="white" stroke-width="0.627586" stroke-linecap="round" stroke-linejoin="round"/>
</g>
<path d="M25.4089 7.30991C25.3673 6.94011 25.1954 6.65366 24.8933 6.45053C24.5912 6.2448 24.211 6.14194 23.7527 6.14194C23.4246 6.14194 23.1407 6.19402 22.9011 6.29819C22.6615 6.39975 22.4753 6.54037 22.3425 6.72006C22.2123 6.89715 22.1472 7.09897 22.1472 7.32553C22.1472 7.51563 22.1915 7.6797 22.28 7.81772C22.3712 7.95574 22.4897 8.07162 22.6355 8.16537C22.7839 8.25652 22.9428 8.33334 23.1121 8.39584C23.2813 8.45574 23.4441 8.50522 23.6003 8.54428L24.3816 8.74741C24.6368 8.80991 24.8985 8.89454 25.1667 9.00131C25.435 9.10808 25.6837 9.24871 25.9128 9.42319C26.142 9.59767 26.3269 9.81381 26.4675 10.0716C26.6108 10.3294 26.6824 10.638 26.6824 10.9974C26.6824 11.4505 26.5652 11.8529 26.3308 12.2044C26.099 12.556 25.7618 12.8333 25.3191 13.0365C24.879 13.2396 24.3464 13.3412 23.7214 13.3412C23.1225 13.3412 22.6042 13.2461 22.1667 13.056C21.7292 12.8659 21.3868 12.5964 21.1394 12.2474C20.892 11.8958 20.7553 11.4792 20.7292 10.9974H21.9402C21.9636 11.2865 22.0574 11.5274 22.2214 11.7201C22.3881 11.9102 22.6003 12.0521 22.8582 12.1458C23.1186 12.237 23.4037 12.2826 23.7136 12.2826C24.0548 12.2826 24.3582 12.2292 24.6238 12.1224C24.892 12.013 25.1029 11.862 25.2566 11.6693C25.4102 11.474 25.4871 11.2461 25.4871 10.9857C25.4871 10.7487 25.4194 10.5547 25.2839 10.4037C25.1511 10.2526 24.9701 10.1276 24.741 10.0287C24.5144 9.9297 24.2579 9.84246 23.9714 9.76694L23.0261 9.50912C22.3855 9.33465 21.8777 9.07814 21.5027 8.73959C21.1303 8.40105 20.9441 7.95313 20.9441 7.39584C20.9441 6.93491 21.0691 6.53256 21.3191 6.18881C21.5691 5.84506 21.9076 5.57813 22.3347 5.38803C22.7618 5.19532 23.2436 5.09897 23.78 5.09897C24.3217 5.09897 24.7996 5.19402 25.2136 5.38412C25.6303 5.57423 25.9584 5.83595 26.198 6.16928C26.4376 6.50001 26.5626 6.88022 26.573 7.30991H25.4089ZM30.5583 13.3294C29.9776 13.3294 29.4776 13.1979 29.0583 12.9349C28.6417 12.6693 28.3214 12.3034 28.0974 11.8372C27.8735 11.3711 27.7615 10.8372 27.7615 10.2357C27.7615 9.62631 27.8761 9.08855 28.1052 8.62241C28.3344 8.15366 28.6573 7.78777 29.074 7.52475C29.4906 7.26173 29.9815 7.13022 30.5466 7.13022C31.0024 7.13022 31.4086 7.21485 31.7654 7.38412C32.1222 7.55079 32.4099 7.78517 32.6287 8.08725C32.85 8.38933 32.9815 8.7422 33.0232 9.14584H31.8865C31.824 8.86459 31.6807 8.62241 31.4568 8.41928C31.2354 8.21616 30.9386 8.11459 30.5662 8.11459C30.2406 8.11459 29.9555 8.20053 29.7107 8.37241C29.4685 8.54168 29.2797 8.78386 29.1443 9.09897C29.0089 9.41147 28.9412 9.78126 28.9412 10.2083C28.9412 10.6458 29.0076 11.0234 29.1404 11.3412C29.2732 11.6589 29.4607 11.905 29.7029 12.0794C29.9477 12.2539 30.2354 12.3412 30.5662 12.3412C30.7875 12.3412 30.988 12.3008 31.1677 12.2201C31.35 12.1367 31.5024 12.0182 31.6248 11.8646C31.7498 11.7109 31.837 11.5261 31.8865 11.3099H33.0232C32.9815 11.6979 32.8552 12.0443 32.6443 12.349C32.4333 12.6537 32.1508 12.8932 31.7966 13.0677C31.4451 13.2422 31.0323 13.3294 30.5583 13.3294ZM35.4402 9.64584V13.2083H34.2722V5.20834H35.4246V8.18491H35.4988C35.6394 7.86199 35.8542 7.60548 36.1433 7.41537C36.4324 7.22527 36.81 7.13022 37.2761 7.13022C37.6876 7.13022 38.047 7.21485 38.3542 7.38412C38.6641 7.5534 38.9037 7.806 39.073 8.14194C39.2449 8.47527 39.3308 8.89194 39.3308 9.39194V13.2083H38.1628V9.53256C38.1628 9.09246 38.0496 8.75131 37.823 8.50912C37.5964 8.26433 37.2813 8.14194 36.8777 8.14194C36.6016 8.14194 36.3542 8.20053 36.1355 8.31772C35.9194 8.43491 35.7488 8.60678 35.6238 8.83334C35.5014 9.0573 35.4402 9.32814 35.4402 9.64584ZM43.4753 13.3294C42.8842 13.3294 42.3751 13.2031 41.948 12.9505C41.5235 12.6953 41.1954 12.3372 40.9636 11.8763C40.7345 11.4128 40.6199 10.8698 40.6199 10.2474C40.6199 9.63282 40.7345 9.09116 40.9636 8.62241C41.1954 8.15366 41.5183 7.78777 41.9324 7.52475C42.349 7.26173 42.836 7.13022 43.3933 7.13022C43.7319 7.13022 44.06 7.18621 44.3777 7.29819C44.6954 7.41017 44.9806 7.58595 45.2332 7.82553C45.4858 8.06511 45.685 8.37631 45.8308 8.75912C45.9766 9.13933 46.0496 9.60157 46.0496 10.1458V10.5599H41.28V9.68491H44.905C44.905 9.37761 44.8425 9.10548 44.7175 8.8685C44.5925 8.62892 44.4167 8.44011 44.1902 8.30209C43.9662 8.16407 43.7032 8.09506 43.4011 8.09506C43.073 8.09506 42.7865 8.17579 42.5417 8.33725C42.2996 8.4961 42.1121 8.70444 41.9792 8.96225C41.849 9.21746 41.7839 9.4948 41.7839 9.79428V10.4779C41.7839 10.8789 41.8542 11.2201 41.9949 11.5013C42.1381 11.7826 42.3373 11.9974 42.5925 12.1458C42.8477 12.2917 43.1459 12.3646 43.4871 12.3646C43.7084 12.3646 43.9102 12.3333 44.0925 12.2708C44.2748 12.2057 44.4324 12.1094 44.5652 11.9818C44.698 11.8542 44.7996 11.6966 44.8699 11.5091L45.9753 11.7083C45.8868 12.0339 45.7279 12.319 45.4988 12.5638C45.2722 12.806 44.9871 12.9948 44.6433 13.1302C44.3022 13.263 43.9128 13.3294 43.4753 13.3294ZM49.5916 13.3255C49.1072 13.3255 48.6749 13.2018 48.2947 12.9544C47.9171 12.7044 47.6202 12.349 47.4041 11.888C47.1905 11.4245 47.0837 10.8685 47.0837 10.2201C47.0837 9.57162 47.1918 9.01694 47.408 8.556C47.6267 8.09506 47.9262 7.7422 48.3064 7.49741C48.6866 7.25261 49.1176 7.13022 49.5994 7.13022C49.9718 7.13022 50.2712 7.19272 50.4978 7.31772C50.727 7.44011 50.9041 7.58334 51.0291 7.74741C51.1567 7.91147 51.2556 8.056 51.3259 8.181H51.3962V5.20834H52.5642V13.2083H51.4236V12.2747H51.3259C51.2556 12.4024 51.1541 12.5482 51.0212 12.7122C50.891 12.8763 50.7113 13.0195 50.4822 13.1419C50.253 13.2643 49.9561 13.3255 49.5916 13.3255ZM49.8494 12.3294C50.1853 12.3294 50.4692 12.2409 50.7009 12.0638C50.9353 11.8841 51.1124 11.6354 51.2322 11.3177C51.3546 11 51.4158 10.6302 51.4158 10.2083C51.4158 9.79168 51.3559 9.42709 51.2361 9.11459C51.1163 8.80209 50.9405 8.5586 50.7087 8.38412C50.477 8.20965 50.1905 8.12241 49.8494 8.12241C49.4978 8.12241 49.2048 8.21355 48.9705 8.39584C48.7361 8.57814 48.559 8.82683 48.4392 9.14194C48.322 9.45704 48.2634 9.81251 48.2634 10.2083C48.2634 10.6094 48.3233 10.9701 48.4431 11.2904C48.5629 11.6107 48.74 11.8646 48.9744 12.0521C49.2113 12.237 49.503 12.3294 49.8494 12.3294ZM58.032 10.7201V7.20834H59.2039V13.2083H58.0554V12.1693H57.9929C57.8549 12.4896 57.6335 12.7565 57.3289 12.9701C57.0268 13.181 56.6505 13.2865 56.2 13.2865C55.8145 13.2865 55.4734 13.2018 55.1765 13.0326C54.8822 12.8607 54.6505 12.6068 54.4812 12.2708C54.3145 11.9349 54.2312 11.5195 54.2312 11.0247V7.20834H55.3992V10.8841C55.3992 11.293 55.5125 11.6185 55.739 11.8607C55.9656 12.1029 56.2598 12.224 56.6218 12.224C56.8406 12.224 57.058 12.1693 57.2742 12.0599C57.4929 11.9505 57.6739 11.7852 57.8171 11.5638C57.963 11.3425 58.0346 11.0612 58.032 10.7201ZM61.9412 5.20834V13.2083H60.7732V5.20834H61.9412ZM66.0984 13.3294C65.5072 13.3294 64.9981 13.2031 64.571 12.9505C64.1466 12.6953 63.8184 12.3372 63.5867 11.8763C63.3575 11.4128 63.2429 10.8698 63.2429 10.2474C63.2429 9.63282 63.3575 9.09116 63.5867 8.62241C63.8184 8.15366 64.1414 7.78777 64.5554 7.52475C64.9721 7.26173 65.4591 7.13022 66.0164 7.13022C66.3549 7.13022 66.683 7.18621 67.0007 7.29819C67.3184 7.41017 67.6036 7.58595 67.8562 7.82553C68.1088 8.06511 68.308 8.37631 68.4539 8.75912C68.5997 9.13933 68.6726 9.60157 68.6726 10.1458V10.5599H63.9031V9.68491H67.5281C67.5281 9.37761 67.4656 9.10548 67.3406 8.8685C67.2156 8.62892 67.0398 8.44011 66.8132 8.30209C66.5893 8.16407 66.3263 8.09506 66.0242 8.09506C65.696 8.09506 65.4096 8.17579 65.1648 8.33725C64.9226 8.4961 64.7351 8.70444 64.6023 8.96225C64.4721 9.21746 64.407 9.4948 64.407 9.79428V10.4779C64.407 10.8789 64.4773 11.2201 64.6179 11.5013C64.7611 11.7826 64.9604 11.9974 65.2156 12.1458C65.4708 12.2917 65.769 12.3646 66.1101 12.3646C66.3315 12.3646 66.5333 12.3333 66.7156 12.2708C66.8979 12.2057 67.0554 12.1094 67.1882 11.9818C67.321 11.8542 67.4226 11.6966 67.4929 11.5091L68.5984 11.7083C68.5098 12.0339 68.351 12.319 68.1218 12.5638C67.8953 12.806 67.6101 12.9948 67.2664 13.1302C66.9252 13.263 66.5359 13.3294 66.0984 13.3294ZM72.8796 15.4583V7.20834H74.0203V8.181H74.1179C74.1856 8.056 74.2833 7.91147 74.4109 7.74741C74.5385 7.58334 74.7156 7.44011 74.9421 7.31772C75.1687 7.19272 75.4682 7.13022 75.8406 7.13022C76.325 7.13022 76.7572 7.25261 77.1375 7.49741C77.5177 7.7422 77.8158 8.09506 78.032 8.556C78.2507 9.01694 78.3601 9.57162 78.3601 10.2201C78.3601 10.8685 78.252 11.4245 78.0359 11.888C77.8197 12.349 77.5229 12.7044 77.1453 12.9544C76.7677 13.2018 76.3367 13.3255 75.8523 13.3255C75.4877 13.3255 75.1895 13.2643 74.9578 13.1419C74.7286 13.0195 74.5489 12.8763 74.4187 12.7122C74.2885 12.5482 74.1882 12.4024 74.1179 12.2747H74.0476V15.4583H72.8796ZM74.0242 10.2083C74.0242 10.6302 74.0854 11 74.2078 11.3177C74.3302 11.6354 74.5072 11.8841 74.739 12.0638C74.9708 12.2409 75.2546 12.3294 75.5906 12.3294C75.9395 12.3294 76.2312 12.237 76.4656 12.0521C76.7 11.8646 76.877 11.6107 76.9968 11.2904C77.1192 10.9701 77.1804 10.6094 77.1804 10.2083C77.1804 9.81251 77.1205 9.45704 77.0007 9.14194C76.8835 8.82683 76.7065 8.57814 76.4695 8.39584C76.2351 8.21355 75.9421 8.12241 75.5906 8.12241C75.252 8.12241 74.9656 8.20965 74.7312 8.38412C74.4994 8.5586 74.3236 8.80209 74.2039 9.11459C74.0841 9.42709 74.0242 9.79168 74.0242 10.2083ZM82.196 13.3294C81.6335 13.3294 81.1427 13.2005 80.7234 12.9427C80.3041 12.6849 79.9786 12.3242 79.7468 11.8607C79.5151 11.3971 79.3992 10.8555 79.3992 10.2357C79.3992 9.61329 79.5151 9.06902 79.7468 8.60287C79.9786 8.13673 80.3041 7.77475 80.7234 7.51694C81.1427 7.25912 81.6335 7.13022 82.196 7.13022C82.7585 7.13022 83.2494 7.25912 83.6687 7.51694C84.088 7.77475 84.4135 8.13673 84.6453 8.60287C84.877 9.06902 84.9929 9.61329 84.9929 10.2357C84.9929 10.8555 84.877 11.3971 84.6453 11.8607C84.4135 12.3242 84.088 12.6849 83.6687 12.9427C83.2494 13.2005 82.7585 13.3294 82.196 13.3294ZM82.2 12.349C82.5645 12.349 82.8666 12.2526 83.1062 12.0599C83.3458 11.8672 83.5229 11.6107 83.6375 11.2904C83.7546 10.9701 83.8132 10.6172 83.8132 10.2318C83.8132 9.84897 83.7546 9.49741 83.6375 9.17709C83.5229 8.85418 83.3458 8.59506 83.1062 8.39975C82.8666 8.20444 82.5645 8.10678 82.2 8.10678C81.8328 8.10678 81.5281 8.20444 81.2859 8.39975C81.0463 8.59506 80.8679 8.85418 80.7507 9.17709C80.6361 9.49741 80.5789 9.84897 80.5789 10.2318C80.5789 10.6172 80.6361 10.9701 80.7507 11.2904C80.8679 11.6107 81.0463 11.8672 81.2859 12.0599C81.5281 12.2526 81.8328 12.349 82.2 12.349ZM90.7927 8.67319L89.7341 8.86069C89.6899 8.72527 89.6195 8.59636 89.5232 8.47397C89.4294 8.35157 89.3018 8.25131 89.1404 8.17319C88.9789 8.09506 88.7771 8.056 88.5349 8.056C88.2042 8.056 87.9281 8.13022 87.7068 8.27866C87.4854 8.42449 87.3748 8.61329 87.3748 8.84506C87.3748 9.04558 87.449 9.20704 87.5974 9.32944C87.7458 9.45183 87.9854 9.55209 88.3162 9.63022L89.2693 9.84897C89.8214 9.97657 90.2328 10.1732 90.5037 10.4388C90.7745 10.7044 90.9099 11.0495 90.9099 11.474C90.9099 11.8333 90.8057 12.1537 90.5974 12.4349C90.3917 12.7136 90.1039 12.9323 89.7341 13.0912C89.3669 13.25 88.9412 13.3294 88.4568 13.3294C87.7849 13.3294 87.2367 13.1862 86.8123 12.8997C86.3878 12.6107 86.1274 12.2005 86.031 11.6693L87.1599 11.4974C87.2302 11.7917 87.3748 12.0143 87.5935 12.1654C87.8123 12.3138 88.0974 12.388 88.449 12.388C88.8318 12.388 89.1378 12.3086 89.3669 12.1497C89.5961 11.9883 89.7107 11.7917 89.7107 11.5599C89.7107 11.3724 89.6404 11.2149 89.4998 11.0872C89.3617 10.9596 89.1495 10.8633 88.863 10.7982L87.8474 10.5755C87.2875 10.4479 86.8735 10.2448 86.6052 9.96616C86.3396 9.68751 86.2068 9.33465 86.2068 8.90756C86.2068 8.5534 86.3057 8.2435 86.5037 7.97787C86.7016 7.71225 86.975 7.50522 87.324 7.35678C87.6729 7.20574 88.0727 7.13022 88.5232 7.13022C89.1716 7.13022 89.682 7.27084 90.0544 7.55209C90.4268 7.83074 90.6729 8.20444 90.7927 8.67319ZM94.9949 7.20834V8.14584H91.7175V7.20834H94.9949ZM92.5964 5.77084H93.7644V11.4466C93.7644 11.6732 93.7983 11.8438 93.866 11.9583C93.9337 12.0703 94.0209 12.1471 94.1277 12.1888C94.2371 12.2279 94.3556 12.2474 94.4832 12.2474C94.5769 12.2474 94.6589 12.2409 94.7292 12.2279C94.7996 12.2149 94.8542 12.2044 94.8933 12.1966L95.1042 13.1615C95.0365 13.1875 94.9402 13.2136 94.8152 13.2396C94.6902 13.2682 94.5339 13.2839 94.3464 13.2865C94.0391 13.2917 93.7527 13.237 93.4871 13.1224C93.2214 13.0078 93.0066 12.8307 92.8425 12.5912C92.6785 12.3516 92.5964 12.0508 92.5964 11.6888V5.77084Z" fill="#838383"/>
<defs>
<clipPath id="clip0_1527_6103">
<rect width="11.001" height="11.001" fill="white" transform="translate(5.25684 2.97803)"/>
</clipPath>
</defs>
</svg>
