<svg width="56" height="19" viewBox="0 0 56 19" fill="none" xmlns="http://www.w3.org/2000/svg">
<rect x="0.0834961" y="0.880798" width="55.9167" height="17.4167" rx="1.83333" fill="#EFF2FC"/>
<g clip-path="url(#clip0_1314_7184)">
<path d="M11.6574 12.2444H6.72639C6.5252 12.2444 6.33224 12.1644 6.18997 12.0222C6.0477 11.8799 5.96777 11.6869 5.96777 11.4857V7.69264C5.96777 7.49144 6.0477 7.29848 6.18997 7.15622C6.33224 7.01395 6.5252 6.93402 6.72639 6.93402H11.6574C11.8586 6.93402 12.0516 7.01395 12.1939 7.15622C12.3361 7.29848 12.416 7.49144 12.416 7.69264V11.4857C12.416 11.6869 12.3361 11.8799 12.1939 12.0222C12.0516 12.1644 11.8586 12.2444 11.6574 12.2444Z" fill="#FF3A29"/>
<path d="M13.1738 8.45123V10.7271L14.8599 11.8514C14.917 11.8895 14.9834 11.9114 15.0521 11.9147C15.1207 11.918 15.1889 11.9026 15.2495 11.8702C15.3101 11.8378 15.3607 11.7895 15.3959 11.7305C15.4312 11.6715 15.4498 11.6041 15.4497 11.5354V7.64292C15.4497 7.57425 15.4311 7.50686 15.3958 7.44795C15.3605 7.38904 15.3099 7.34081 15.2493 7.30841C15.1888 7.27602 15.1206 7.26066 15.052 7.264C14.9834 7.26733 14.917 7.28922 14.8599 7.32733L13.1738 8.45123Z" fill="#FF3A29"/>
</g>
<path d="M21.4531 6.08914L23.6797 12.6048H23.7695L25.9961 6.08914H27.3008L24.4219 14.0891H23.0273L20.1484 6.08914H21.4531ZM28.3623 14.0891V8.08914H29.5303V14.0891H28.3623ZM28.9521 7.16336C28.749 7.16336 28.5745 7.09565 28.4287 6.96024C28.2855 6.82221 28.2139 6.65815 28.2139 6.46805C28.2139 6.27534 28.2855 6.11128 28.4287 5.97586C28.5745 5.83784 28.749 5.76883 28.9521 5.76883C29.1553 5.76883 29.3285 5.83784 29.4717 5.97586C29.6175 6.11128 29.6904 6.27534 29.6904 6.46805C29.6904 6.65815 29.6175 6.82221 29.4717 6.96024C29.3285 7.09565 29.1553 7.16336 28.9521 7.16336ZM33.3477 14.2063C32.8633 14.2063 32.431 14.0826 32.0508 13.8352C31.6732 13.5852 31.3763 13.2298 31.1602 12.7688C30.9466 12.3053 30.8398 11.7493 30.8398 11.1009C30.8398 10.4524 30.9479 9.89774 31.1641 9.4368C31.3828 8.97586 31.6823 8.623 32.0625 8.3782C32.4427 8.13341 32.8737 8.01102 33.3555 8.01102C33.7279 8.01102 34.0273 8.07352 34.2539 8.19852C34.4831 8.32091 34.6602 8.46414 34.7852 8.6282C34.9128 8.79227 35.0117 8.9368 35.082 9.0618H35.1523V6.08914H36.3203V14.0891H35.1797V13.1555H35.082C35.0117 13.2832 34.9102 13.429 34.7773 13.593C34.6471 13.7571 34.4674 13.9003 34.2383 14.0227C34.0091 14.1451 33.7122 14.2063 33.3477 14.2063ZM33.6055 13.2102C33.9414 13.2102 34.2253 13.1217 34.457 12.9446C34.6914 12.7649 34.8685 12.5162 34.9883 12.1985C35.1107 11.8808 35.1719 11.511 35.1719 11.0891C35.1719 10.6725 35.112 10.3079 34.9922 9.99539C34.8724 9.68289 34.6966 9.4394 34.4648 9.26492C34.2331 9.09044 33.9466 9.0032 33.6055 9.0032C33.2539 9.0032 32.9609 9.09435 32.7266 9.27664C32.4922 9.45893 32.3151 9.70763 32.1953 10.0227C32.0781 10.3378 32.0195 10.6933 32.0195 11.0891C32.0195 11.4902 32.0794 11.8509 32.1992 12.1712C32.319 12.4915 32.4961 12.7454 32.7305 12.9329C32.9674 13.1178 33.2591 13.2102 33.6055 13.2102ZM40.5732 14.2102C39.9821 14.2102 39.473 14.0839 39.0459 13.8313C38.6214 13.5761 38.2933 13.218 38.0615 12.7571C37.8324 12.2936 37.7178 11.7506 37.7178 11.1282C37.7178 10.5136 37.8324 9.97195 38.0615 9.5032C38.2933 9.03445 38.6162 8.66857 39.0303 8.40555C39.4469 8.14253 39.9339 8.01102 40.4912 8.01102C40.8298 8.01102 41.1579 8.06701 41.4756 8.17899C41.7933 8.29096 42.0785 8.46675 42.3311 8.70633C42.5837 8.94591 42.7829 9.25711 42.9287 9.63992C43.0745 10.0201 43.1475 10.4824 43.1475 11.0266V11.4407H38.3779V10.5657H42.0029C42.0029 10.2584 41.9404 9.98628 41.8154 9.7493C41.6904 9.50971 41.5146 9.32091 41.2881 9.18289C41.0641 9.04487 40.8011 8.97586 40.499 8.97586C40.1709 8.97586 39.8844 9.05659 39.6396 9.21805C39.3975 9.3769 39.21 9.58524 39.0771 9.84305C38.9469 10.0983 38.8818 10.3756 38.8818 10.6751V11.3587C38.8818 11.7597 38.9521 12.1009 39.0928 12.3821C39.236 12.6634 39.4352 12.8782 39.6904 13.0266C39.9456 13.1725 40.2438 13.2454 40.585 13.2454C40.8063 13.2454 41.0081 13.2141 41.1904 13.1516C41.3727 13.0865 41.5303 12.9902 41.6631 12.8626C41.7959 12.735 41.8975 12.5774 41.9678 12.3899L43.0732 12.5891C42.9847 12.9147 42.8258 13.1998 42.5967 13.4446C42.3701 13.6868 42.085 13.8756 41.7412 14.011C41.4001 14.1438 41.0107 14.2102 40.5732 14.2102ZM46.9707 14.2102C46.4082 14.2102 45.9173 14.0813 45.498 13.8235C45.0788 13.5657 44.7533 13.205 44.5215 12.7415C44.2897 12.2779 44.1738 11.7363 44.1738 11.1165C44.1738 10.4941 44.2897 9.94982 44.5215 9.48367C44.7533 9.01753 45.0788 8.65555 45.498 8.39774C45.9173 8.13992 46.4082 8.01102 46.9707 8.01102C47.5332 8.01102 48.0241 8.13992 48.4434 8.39774C48.8626 8.65555 49.1882 9.01753 49.4199 9.48367C49.6517 9.94982 49.7676 10.4941 49.7676 11.1165C49.7676 11.7363 49.6517 12.2779 49.4199 12.7415C49.1882 13.205 48.8626 13.5657 48.4434 13.8235C48.0241 14.0813 47.5332 14.2102 46.9707 14.2102ZM46.9746 13.2298C47.3392 13.2298 47.6413 13.1334 47.8809 12.9407C48.1204 12.748 48.2975 12.4915 48.4121 12.1712C48.5293 11.8509 48.5879 11.498 48.5879 11.1126C48.5879 10.7298 48.5293 10.3782 48.4121 10.0579C48.2975 9.73498 48.1204 9.47586 47.8809 9.28055C47.6413 9.08524 47.3392 8.98758 46.9746 8.98758C46.6074 8.98758 46.3027 9.08524 46.0605 9.28055C45.821 9.47586 45.6426 9.73498 45.5254 10.0579C45.4108 10.3782 45.3535 10.7298 45.3535 11.1126C45.3535 11.498 45.4108 11.8509 45.5254 12.1712C45.6426 12.4915 45.821 12.748 46.0605 12.9407C46.3027 13.1334 46.6074 13.2298 46.9746 13.2298Z" fill="#838383"/>
<defs>
<clipPath id="clip0_1314_7184">
<rect width="11" height="11" fill="white" transform="translate(5.2085 4.08914)"/>
</clipPath>
</defs>
</svg>
