<svg width="32" height="40" viewBox="0 0 32 40" fill="none" xmlns="http://www.w3.org/2000/svg">
<path d="M9.25727 8.39949C11.5745 8.39949 13.453 6.5192 13.453 4.19974C13.453 1.88029 11.5745 0 9.25727 0C6.94002 0 5.06152 1.88029 5.06152 4.19974C5.06152 6.5192 6.94002 8.39949 9.25727 8.39949Z" fill="#34F5C6"/>
<path d="M6.69152 14.8826C8.27509 14.8826 9.55882 13.5977 9.55882 12.0126C9.55882 10.4275 8.27509 9.14258 6.69152 9.14258C5.10796 9.14258 3.82422 10.4275 3.82422 12.0126C3.82422 13.5977 5.10796 14.8826 6.69152 14.8826Z" fill="#3C16B6"/>
<path d="M15.5984 13.1315C17.0567 13.1315 18.2388 11.9482 18.2388 10.4886C18.2388 9.02897 17.0567 7.8457 15.5984 7.8457C14.1402 7.8457 12.958 9.02897 12.958 10.4886C12.958 11.9482 14.1402 13.1315 15.5984 13.1315Z" fill="url(#paint0_linear_815_2352)"/>
<g style="mix-blend-mode:hard-light">
<path d="M9.12998 16.5713H9.50953V39.131H0V25.7058C0 20.6637 4.08848 16.5713 9.12586 16.5713H9.12998Z" fill="#FFC903"/>
</g>
<path d="M31.6019 38.685C31.6019 38.8337 31.6019 38.9823 31.5978 39.131H22.9712C22.9753 38.9823 22.9794 38.8337 22.9794 38.685C22.9794 31.2394 16.9478 25.202 9.50928 25.202V16.5713C21.7128 16.5713 31.6019 26.4739 31.6019 38.685Z" fill="#34F5C6"/>
<path d="M31.6019 6.53681C31.6019 6.38814 31.6019 6.23948 31.5978 6.09082H22.9712C22.9712 6.09082 22.9794 6.38814 22.9794 6.53681C22.9794 13.9824 16.9478 20.0198 9.50928 20.0198V28.6505C21.7128 28.6505 31.6019 18.7479 31.6019 6.53681Z" fill="#3C16B6"/>
<defs>
<linearGradient id="paint0_linear_815_2352" x1="12.4865" y1="11.9487" x2="23.5818" y2="6.89328" gradientUnits="userSpaceOnUse">
<stop stop-color="#FCB23F"/>
<stop offset="1" stop-color="#F25C2C"/>
</linearGradient>
</defs>
</svg>
