<svg width="152" height="40" viewBox="0 0 152 40" fill="none" xmlns="http://www.w3.org/2000/svg">
<path d="M39.6996 17.8395C45.2692 17.8395 46.6678 19.1899 46.6678 24.6368C46.6678 30.0836 45.2692 31.434 39.6996 31.434C34.13 31.434 32.7314 30.0836 32.7314 24.6368C32.7314 19.1899 34.13 17.8395 39.6996 17.8395ZM37.1706 24.773C37.1706 28.0147 37.414 28.3699 39.6996 28.3699C41.9852 28.3699 42.2286 28.0147 42.2286 24.773C42.2286 21.5313 41.9852 21.1762 39.6996 21.1762C37.414 21.1762 37.1706 21.5313 37.1706 24.773Z" fill="black"/>
<path d="M52.6578 17.8395V19.6441C53.1033 18.4012 54.1224 17.8437 55.785 17.8437C58.8256 17.8437 60.022 18.4424 60.3768 20.5774C60.777 18.6902 61.9074 17.8437 63.995 17.8437C68.0546 17.8437 69.0777 19.0206 69.0777 23.7076V31.4381H64.8613V24.2651C64.8613 21.6883 64.6633 21.3992 62.9099 21.3992C61.4453 21.3992 60.8224 22.221 60.8471 24.1082V31.4381H56.6761V24.2651C56.6761 21.6883 56.4781 21.3992 54.7 21.3992C53.2807 21.3992 52.6578 22.221 52.6578 24.1082V31.4381H48.4414V17.8395H52.6578Z" fill="black"/>
<path d="M75.0689 17.8395V19.6441C75.5145 18.4012 76.5335 17.8437 78.1961 17.8437C81.2367 17.8437 82.4331 18.4424 82.7879 20.5774C83.1881 18.6902 84.3185 17.8437 86.4061 17.8437C90.4657 17.8437 91.4888 19.0206 91.4888 23.7076V31.4381H87.2725V24.2651C87.2725 21.6883 87.0744 21.3992 85.3211 21.3992C83.8565 21.3992 83.2335 22.221 83.2583 24.1082V31.4381H79.0873V24.2651C79.0873 21.6883 78.8892 21.3992 77.1111 21.3992C75.6919 21.3992 75.0689 22.221 75.0689 24.1082V31.4381H70.8525V17.8395H75.0689Z" fill="black"/>
<path d="M101.452 31.4381V29.0802C101.052 30.7031 99.8554 31.434 97.6565 31.434C94.1497 31.434 93.2833 30.4346 93.2833 26.4579L93.2627 17.8395H97.4791V25.4585C97.4791 27.6348 97.6771 27.8785 99.4552 27.8785C100.829 27.8785 101.431 27.1888 101.431 25.5453L101.452 17.8395H105.668V31.434H101.452V31.4381Z" fill="black"/>
<path d="M111.659 17.8395V20.1975C112.079 18.5746 113.346 17.8437 115.677 17.8437C119.184 17.8437 120.05 18.843 120.05 22.8198L120.071 31.4381H115.854V23.8852C115.854 21.6428 115.677 21.3992 113.99 21.3992C112.302 21.3992 111.683 22.1549 111.683 23.8852L111.663 31.4381H107.446V17.8395H111.663H111.659Z" fill="black"/>
<path d="M123.285 13.6687H124.617C125.475 13.6687 126.173 14.3666 126.173 15.2255V16.7824H123.289C122.431 16.7824 121.733 16.0845 121.733 15.2255C121.733 14.3666 122.431 13.6687 123.289 13.6687H123.285ZM126.057 17.8395V31.4381H121.841V17.8395H126.057Z" fill="black"/>
<path d="M137.151 31.4381H134.49C130.228 31.4381 129.164 30.5503 129.164 26.9493V21.3951H127.831V17.8395H129.386V15.2627H133.38V17.8395H137.151V21.3951H133.38V25.8591C133.38 27.482 133.537 27.6596 134.911 27.6596H137.151V31.434V31.4381Z" fill="black"/>
<path d="M151.999 22.4646V31.4381H147.782V29.617C147.337 31.0376 146.243 31.4381 144.135 31.4381C139.972 31.4381 138.929 31.0169 138.929 27.5935C138.929 24.3518 139.948 23.5301 144.011 23.5301L147.782 23.5094V22.7537C147.782 21.1308 147.584 20.9532 145.785 20.9532C143.768 20.9532 143.545 21.1308 143.591 22.6876H139.374V22.221C139.374 18.7109 140.661 17.8437 145.831 17.8437C151 17.8437 151.999 18.777 151.999 22.4646ZM145.785 28.6837C147.184 28.6631 147.782 28.2171 147.782 27.1971V26.619L145.785 26.6396C143.611 26.6396 143.368 26.7263 143.368 27.639C143.368 28.6177 143.611 28.725 145.785 28.6837Z" fill="black"/>
<path d="M9.25727 8.39949C11.5745 8.39949 13.453 6.5192 13.453 4.19974C13.453 1.88029 11.5745 0 9.25727 0C6.94002 0 5.06152 1.88029 5.06152 4.19974C5.06152 6.5192 6.94002 8.39949 9.25727 8.39949Z" fill="#34F5C6"/>
<path d="M6.69152 14.8829C8.27509 14.8829 9.55882 13.5979 9.55882 12.0129C9.55882 10.4278 8.27509 9.14282 6.69152 9.14282C5.10796 9.14282 3.82422 10.4278 3.82422 12.0129C3.82422 13.5979 5.10796 14.8829 6.69152 14.8829Z" fill="#3C16B6"/>
<path d="M15.5984 13.1319C17.0567 13.1319 18.2388 11.9487 18.2388 10.489C18.2388 9.0294 17.0567 7.84613 15.5984 7.84613C14.1402 7.84613 12.958 9.0294 12.958 10.489C12.958 11.9487 14.1402 13.1319 15.5984 13.1319Z" fill="url(#paint0_linear_3863_21843)"/>
<g style="mix-blend-mode:hard-light">
<path d="M9.12998 16.5718H9.50953V39.1315H0V25.7064C0 20.6642 4.08848 16.5718 9.12586 16.5718H9.12998Z" fill="#FFC903"/>
</g>
<path d="M31.6024 38.6855C31.6024 38.8342 31.6024 38.9829 31.5983 39.1315H22.9716C22.9758 38.9829 22.9799 38.8342 22.9799 38.6855C22.9799 31.24 16.9482 25.2026 9.50977 25.2026V16.5718C21.7133 16.5718 31.6024 26.4745 31.6024 38.6855Z" fill="#34F5C6"/>
<path d="M31.6024 6.53705C31.6024 6.38839 31.6024 6.23973 31.5983 6.09106H22.9716C22.9716 6.09106 22.9799 6.38839 22.9799 6.53705C22.9799 13.9826 16.9482 20.02 9.50977 20.02V28.6507C21.7133 28.6507 31.6024 18.7481 31.6024 6.53705Z" fill="#3C16B6"/>
<defs>
<linearGradient id="paint0_linear_3863_21843" x1="12.4865" y1="11.9491" x2="23.5818" y2="6.8937" gradientUnits="userSpaceOnUse">
<stop stop-color="#FCB23F"/>
<stop offset="1" stop-color="#F25C2C"/>
</linearGradient>
</defs>
</svg>
