<svg width="56" height="19" viewBox="0 0 56 19" fill="none" xmlns="http://www.w3.org/2000/svg">
<rect y="0.880798" width="55.9167" height="17.4167" rx="1.83333" fill="#EFF2FC"/>
<g clip-path="url(#clip0_1314_7179)">
<path d="M14.9499 4.1169H8.76236C8.60694 4.116 8.45288 4.14582 8.30904 4.20467C8.16519 4.26352 8.0344 4.35023 7.92418 4.4598C7.81397 4.56938 7.7265 4.69966 7.66682 4.84316C7.60714 4.98666 7.57642 5.14055 7.57642 5.29596V11.4835C7.57322 11.6399 7.60126 11.7953 7.65891 11.9407C7.71655 12.0862 7.80264 12.2186 7.91213 12.3304C8.02161 12.4421 8.1523 12.5308 8.29652 12.5914C8.44075 12.652 8.59561 12.6832 8.75204 12.6832H15.0358C15.3345 12.6605 15.6135 12.5249 15.8159 12.304C16.0183 12.0831 16.129 11.7934 16.1255 11.4938V5.30628C16.1268 5.15086 16.0975 4.99671 16.039 4.8527C15.9806 4.70868 15.8943 4.57763 15.785 4.4671C15.6758 4.35656 15.5457 4.26872 15.4024 4.20862C15.2591 4.14852 15.1053 4.11735 14.9499 4.1169ZM15.0461 10.5278C15.0376 10.5804 15.0094 10.6278 14.9673 10.6603C14.9252 10.6929 14.8722 10.7082 14.8192 10.7032H13.9599C13.9123 10.1767 13.6695 9.68707 13.2793 9.3305C12.889 8.97394 12.3796 8.77623 11.8509 8.77623C11.3223 8.77623 10.8129 8.97394 10.4226 9.3305C10.0324 9.68707 9.78962 10.1767 9.74204 10.7032H8.88267C8.82966 10.7082 8.77672 10.6929 8.73459 10.6603C8.69245 10.6278 8.66428 10.5804 8.65579 10.5278V5.37159C8.66349 5.31865 8.69146 5.27077 8.73379 5.23806C8.77612 5.20535 8.8295 5.19037 8.88267 5.19628H14.8192C14.8724 5.19037 14.9258 5.20535 14.9681 5.23806C15.0104 5.27077 15.0384 5.31865 15.0461 5.37159V10.5278Z" fill="#02BA09"/>
<path d="M7.221 11.4933V6.42645L6.03506 6.70145C5.73157 6.77183 5.46843 6.95979 5.30343 7.22405C5.13843 7.48831 5.08506 7.80725 5.15506 8.11083L6.55069 14.1505C6.62106 14.454 6.80902 14.7171 7.07328 14.8821C7.33754 15.0471 7.65649 15.1005 7.96006 15.0305L13.9998 13.6349C14.1669 13.597 14.3238 13.5228 14.4592 13.4177C14.5946 13.3126 14.7053 13.179 14.7835 13.0265H8.75069C8.54952 13.0265 8.35032 12.9868 8.16451 12.9097C7.97869 12.8326 7.80991 12.7196 7.66782 12.5772C7.52573 12.4348 7.41312 12.2658 7.33645 12.0798C7.25978 11.8938 7.22055 11.6945 7.221 11.4933ZM11.8513 6.56739C11.6526 6.56671 11.4582 6.625 11.2927 6.73488C11.1272 6.84476 10.998 7.00128 10.9215 7.18463C10.845 7.36798 10.8247 7.56991 10.863 7.76485C10.9013 7.95978 10.9967 8.13895 11.1369 8.27967C11.2771 8.4204 11.456 8.51634 11.6508 8.55534C11.8456 8.59435 12.0476 8.57468 12.2312 8.49881C12.4148 8.42294 12.5718 8.29429 12.6822 8.12915C12.7927 7.96401 12.8516 7.76981 12.8516 7.57114C12.8516 7.30552 12.7463 7.05074 12.5588 6.86259C12.3714 6.67445 12.1169 6.5683 11.8513 6.56739Z" fill="#02BA09"/>
</g>
<path d="M20.6704 14.0891V6.08914H23.522C24.1444 6.08914 24.66 6.20242 25.0688 6.42899C25.4777 6.65555 25.7837 6.96544 25.9868 7.35867C26.1899 7.7493 26.2915 8.1894 26.2915 8.67899C26.2915 9.17117 26.1886 9.61388 25.9829 10.0071C25.7798 10.3977 25.4725 10.7076 25.061 10.9368C24.6522 11.1634 24.1379 11.2766 23.5181 11.2766H21.5571V10.2532H23.4087C23.8019 10.2532 24.1209 10.1855 24.3657 10.0501C24.6105 9.91206 24.7902 9.72456 24.9048 9.48758C25.0194 9.2506 25.0767 8.98107 25.0767 8.67899C25.0767 8.3769 25.0194 8.10867 24.9048 7.8743C24.7902 7.63992 24.6092 7.45633 24.3618 7.32352C24.117 7.1907 23.7941 7.1243 23.3931 7.1243H21.8774V14.0891H20.6704ZM28.7808 10.5266V14.0891H27.6128V6.08914H28.7651V9.0657H28.8394C28.98 8.74279 29.1948 8.48628 29.4839 8.29617C29.7729 8.10607 30.1506 8.01102 30.6167 8.01102C31.0282 8.01102 31.3875 8.09565 31.6948 8.26492C32.0047 8.43419 32.2443 8.6868 32.4136 9.02274C32.5854 9.35607 32.6714 9.77274 32.6714 10.2727V14.0891H31.5034V10.4134C31.5034 9.97326 31.3901 9.63211 31.1636 9.38992C30.937 9.14513 30.6219 9.02274 30.2183 9.02274C29.9422 9.02274 29.6948 9.08133 29.4761 9.19852C29.2599 9.3157 29.0894 9.48758 28.9644 9.71414C28.842 9.9381 28.7808 10.2089 28.7808 10.5266ZM36.7573 14.2102C36.1948 14.2102 35.7039 14.0813 35.2847 13.8235C34.8654 13.5657 34.5399 13.205 34.3081 12.7415C34.0763 12.2779 33.9604 11.7363 33.9604 11.1165C33.9604 10.4941 34.0763 9.94982 34.3081 9.48367C34.5399 9.01753 34.8654 8.65555 35.2847 8.39774C35.7039 8.13992 36.1948 8.01102 36.7573 8.01102C37.3198 8.01102 37.8107 8.13992 38.23 8.39774C38.6493 8.65555 38.9748 9.01753 39.2065 9.48367C39.4383 9.94982 39.5542 10.4941 39.5542 11.1165C39.5542 11.7363 39.4383 12.2779 39.2065 12.7415C38.9748 13.205 38.6493 13.5657 38.23 13.8235C37.8107 14.0813 37.3198 14.2102 36.7573 14.2102ZM36.7612 13.2298C37.1258 13.2298 37.4279 13.1334 37.6675 12.9407C37.9071 12.748 38.0841 12.4915 38.1987 12.1712C38.3159 11.8509 38.3745 11.498 38.3745 11.1126C38.3745 10.7298 38.3159 10.3782 38.1987 10.0579C38.0841 9.73498 37.9071 9.47586 37.6675 9.28055C37.4279 9.08524 37.1258 8.98758 36.7612 8.98758C36.394 8.98758 36.0894 9.08524 35.8472 9.28055C35.6076 9.47586 35.4292 9.73498 35.312 10.0579C35.1974 10.3782 35.1401 10.7298 35.1401 11.1126C35.1401 11.498 35.1974 11.8509 35.312 12.1712C35.4292 12.4915 35.6076 12.748 35.8472 12.9407C36.0894 13.1334 36.394 13.2298 36.7612 13.2298ZM43.6587 8.08914V9.02664H40.3813V8.08914H43.6587ZM41.2603 6.65164H42.4282V12.3274C42.4282 12.554 42.4621 12.7246 42.5298 12.8391C42.5975 12.9511 42.6847 13.0279 42.7915 13.0696C42.9009 13.1087 43.0194 13.1282 43.147 13.1282C43.2407 13.1282 43.3228 13.1217 43.3931 13.1087C43.4634 13.0957 43.5181 13.0852 43.5571 13.0774L43.7681 14.0423C43.7004 14.0683 43.604 14.0944 43.479 14.1204C43.354 14.149 43.1978 14.1647 43.0103 14.1673C42.703 14.1725 42.4165 14.1178 42.1509 14.0032C41.8853 13.8886 41.6704 13.7115 41.5063 13.472C41.3423 13.2324 41.2603 12.9316 41.2603 12.5696V6.65164ZM47.4136 14.2102C46.8511 14.2102 46.3602 14.0813 45.9409 13.8235C45.5216 13.5657 45.1961 13.205 44.9644 12.7415C44.7326 12.2779 44.6167 11.7363 44.6167 11.1165C44.6167 10.4941 44.7326 9.94982 44.9644 9.48367C45.1961 9.01753 45.5216 8.65555 45.9409 8.39774C46.3602 8.13992 46.8511 8.01102 47.4136 8.01102C47.9761 8.01102 48.467 8.13992 48.8862 8.39774C49.3055 8.65555 49.631 9.01753 49.8628 9.48367C50.0946 9.94982 50.2104 10.4941 50.2104 11.1165C50.2104 11.7363 50.0946 12.2779 49.8628 12.7415C49.631 13.205 49.3055 13.5657 48.8862 13.8235C48.467 14.0813 47.9761 14.2102 47.4136 14.2102ZM47.4175 13.2298C47.7821 13.2298 48.0841 13.1334 48.3237 12.9407C48.5633 12.748 48.7404 12.4915 48.855 12.1712C48.9722 11.8509 49.0308 11.498 49.0308 11.1126C49.0308 10.7298 48.9722 10.3782 48.855 10.0579C48.7404 9.73498 48.5633 9.47586 48.3237 9.28055C48.0841 9.08524 47.7821 8.98758 47.4175 8.98758C47.0503 8.98758 46.7456 9.08524 46.5034 9.28055C46.2638 9.47586 46.0854 9.73498 45.9683 10.0579C45.8537 10.3782 45.7964 10.7298 45.7964 11.1126C45.7964 11.498 45.8537 11.8509 45.9683 12.1712C46.0854 12.4915 46.2638 12.748 46.5034 12.9407C46.7456 13.1334 47.0503 13.2298 47.4175 13.2298Z" fill="#838383"/>
<defs>
<clipPath id="clip0_1314_7179">
<rect width="11" height="11" fill="white" transform="translate(5.125 4.08914)"/>
</clipPath>
</defs>
</svg>
