<svg width="79" height="25" viewBox="0 0 79 25" fill="none" xmlns="http://www.w3.org/2000/svg">
<rect x="0.822754" y="0.14418" width="78.01" height="24.2982" rx="2.55771" fill="#EFF2FC"/>
<g clip-path="url(#clip0_1331_15237)">
<path d="M21.3037 4.65891H12.6715C12.4546 4.65765 12.2397 4.69926 12.039 4.78136C11.8383 4.86346 11.6559 4.98442 11.5021 5.13729C11.3484 5.29016 11.2263 5.47193 11.1431 5.67213C11.0598 5.87232 11.0169 6.08701 11.0169 6.30383V14.9361C11.0125 15.1543 11.0516 15.3712 11.132 15.5741C11.2124 15.7769 11.3325 15.9617 11.4853 16.1176C11.638 16.2735 11.8204 16.3973 12.0216 16.4818C12.2228 16.5663 12.4388 16.6098 12.6571 16.6098H21.4236C21.8404 16.5781 22.2295 16.389 22.5119 16.0808C22.7943 15.7726 22.9487 15.3684 22.9438 14.9505V6.31822C22.9457 6.1014 22.9048 5.88635 22.8232 5.68543C22.7417 5.4845 22.6213 5.30168 22.4689 5.14747C22.3164 4.99326 22.135 4.87071 21.9351 4.78687C21.7351 4.70302 21.5205 4.65953 21.3037 4.65891ZM21.438 13.6029C21.4262 13.6762 21.3869 13.7423 21.3281 13.7877C21.2693 13.8331 21.1954 13.8545 21.1215 13.8475H19.9226C19.8562 13.113 19.5175 12.4299 18.9731 11.9325C18.4287 11.435 17.7179 11.1592 16.9804 11.1592C16.2429 11.1592 15.5321 11.435 14.9877 11.9325C14.4433 12.4299 14.1046 13.113 14.0382 13.8475H12.8393C12.7654 13.8545 12.6915 13.8331 12.6327 13.7877C12.5739 13.7423 12.5346 13.6762 12.5228 13.6029V6.40934C12.5335 6.33548 12.5725 6.26869 12.6316 6.22306C12.6907 6.17742 12.7651 6.15652 12.8393 6.16476H21.1215C21.1957 6.15652 21.2701 6.17742 21.3292 6.22306C21.3882 6.26869 21.4273 6.33548 21.438 6.40934V13.6029Z" fill="#02BA09"/>
<path d="M10.5213 14.9498V7.88099L8.86681 8.26464C8.44341 8.36283 8.07629 8.62505 7.84609 8.99372C7.6159 9.36239 7.54145 9.80736 7.63911 10.2309L9.58616 18.6569C9.68434 19.0803 9.94657 19.4474 10.3152 19.6776C10.6839 19.9078 11.1289 19.9823 11.5524 19.8846L19.9784 17.9376C20.2117 17.8846 20.4305 17.7812 20.6194 17.6345C20.8083 17.4879 20.9628 17.3016 21.0719 17.0887H12.6554C12.3748 17.0887 12.0969 17.0334 11.8376 16.9258C11.5784 16.8183 11.3429 16.6607 11.1447 16.462C10.9465 16.2633 10.7894 16.0275 10.6824 15.768C10.5754 15.5085 10.5207 15.2305 10.5213 14.9498ZM16.9811 8.07761C16.704 8.07666 16.4327 8.15798 16.2018 8.31128C15.9709 8.46457 15.7907 8.68294 15.684 8.93874C15.5772 9.19453 15.5488 9.47624 15.6023 9.7482C15.6558 10.0202 15.7888 10.2701 15.9844 10.4664C16.1801 10.6628 16.4296 10.7966 16.7014 10.851C16.9731 10.9055 17.2549 10.878 17.5111 10.7722C17.7673 10.6663 17.9863 10.4868 18.1403 10.2564C18.2944 10.0261 18.3767 9.75512 18.3767 9.47796C18.3767 9.10739 18.2298 8.75193 17.9682 8.48946C17.7066 8.22698 17.3517 8.07888 16.9811 8.07761Z" fill="#02BA09"/>
</g>
<path d="M29.2848 17.7933V6.63238H33.263C34.1313 6.63238 34.8507 6.79042 35.4211 7.1065C35.9915 7.42258 36.4184 7.85492 36.7017 8.40352C36.9851 8.94849 37.1268 9.56248 37.1268 10.2455C37.1268 10.9322 36.9833 11.5498 36.6963 12.0984C36.4129 12.6434 35.9842 13.0757 35.4102 13.3954C34.8398 13.7115 34.1222 13.8695 33.2576 13.8695H30.5218V12.4417H33.105C33.6536 12.4417 34.0986 12.3473 34.4401 12.1583C34.7817 11.9658 35.0323 11.7042 35.1922 11.3736C35.3521 11.043 35.432 10.6669 35.432 10.2455C35.432 9.82407 35.3521 9.44986 35.1922 9.12288C35.0323 8.7959 34.7798 8.53976 34.4347 8.35448C34.0932 8.16919 33.6427 8.07654 33.0832 8.07654H30.9687V17.7933H29.2848ZM40.5996 12.8232V17.7933H38.9702V6.63238H40.5778V10.785H40.6814C40.8775 10.3345 41.1773 9.97666 41.5806 9.71144C41.9838 9.44622 42.5106 9.31362 43.161 9.31362C43.735 9.31362 44.2364 9.43169 44.6651 9.66784C45.0974 9.904 45.4316 10.2564 45.6678 10.7251C45.9076 11.1901 46.0275 11.7714 46.0275 12.469V17.7933H44.398V12.6652C44.398 12.0512 44.24 11.5752 43.9239 11.2373C43.6078 10.8958 43.1682 10.7251 42.6051 10.7251C42.22 10.7251 41.8748 10.8068 41.5697 10.9703C41.2681 11.1338 41.0301 11.3736 40.8557 11.6897C40.685 12.0021 40.5996 12.38 40.5996 12.8232ZM51.7278 17.9622C50.9431 17.9622 50.2582 17.7824 49.6733 17.4227C49.0884 17.063 48.6342 16.5598 48.3109 15.9132C47.9875 15.2665 47.8259 14.5108 47.8259 13.6461C47.8259 12.7778 47.9875 12.0185 48.3109 11.3681C48.6342 10.7178 49.0884 10.2128 49.6733 9.85313C50.2582 9.49345 50.9431 9.31362 51.7278 9.31362C52.5126 9.31362 53.1974 9.49345 53.7823 9.85313C54.3673 10.2128 54.8214 10.7178 55.1447 11.3681C55.4681 12.0185 55.6298 12.7778 55.6298 13.6461C55.6298 14.5108 55.4681 15.2665 55.1447 15.9132C54.8214 16.5598 54.3673 17.063 53.7823 17.4227C53.1974 17.7824 52.5126 17.9622 51.7278 17.9622ZM51.7333 16.5944C52.2419 16.5944 52.6633 16.4599 52.9976 16.1911C53.3318 15.9222 53.5789 15.5644 53.7387 15.1175C53.9022 14.6706 53.984 14.1783 53.984 13.6406C53.984 13.1066 53.9022 12.6161 53.7387 12.1692C53.5789 11.7187 53.3318 11.3572 52.9976 11.0848C52.6633 10.8123 52.2419 10.676 51.7333 10.676C51.221 10.676 50.7959 10.8123 50.458 11.0848C50.1238 11.3572 49.8749 11.7187 49.7114 12.1692C49.5516 12.6161 49.4717 13.1066 49.4717 13.6406C49.4717 14.1783 49.5516 14.6706 49.7114 15.1175C49.8749 15.5644 50.1238 15.9222 50.458 16.1911C50.7959 16.4599 51.221 16.5944 51.7333 16.5944ZM61.356 9.42261V10.7305H56.7837V9.42261H61.356ZM58.0099 7.41714H59.6394V15.3355C59.6394 15.6516 59.6866 15.8895 59.781 16.0494C59.8755 16.2056 59.9972 16.3128 60.1462 16.3709C60.2988 16.4254 60.4641 16.4527 60.6421 16.4527C60.7729 16.4527 60.8873 16.4436 60.9854 16.4254C61.0835 16.4073 61.1598 16.3927 61.2143 16.3818L61.5086 17.7279C61.4141 17.7642 61.2797 17.8005 61.1053 17.8369C60.9309 17.8768 60.7129 17.8986 60.4514 17.9023C60.0226 17.9095 59.623 17.8332 59.2524 17.6734C58.8819 17.5135 58.5821 17.2665 58.3532 16.9322C58.1243 16.598 58.0099 16.1784 58.0099 15.6734V7.41714ZM66.5945 17.9622C65.8097 17.9622 65.1249 17.7824 64.54 17.4227C63.955 17.063 63.5009 16.5598 63.1775 15.9132C62.8542 15.2665 62.6925 14.5108 62.6925 13.6461C62.6925 12.7778 62.8542 12.0185 63.1775 11.3681C63.5009 10.7178 63.955 10.2128 64.54 9.85313C65.1249 9.49345 65.8097 9.31362 66.5945 9.31362C67.3792 9.31362 68.0641 9.49345 68.649 9.85313C69.2339 10.2128 69.6881 10.7178 70.0114 11.3681C70.3348 12.0185 70.4964 12.7778 70.4964 13.6461C70.4964 14.5108 70.3348 15.2665 70.0114 15.9132C69.6881 16.5598 69.2339 17.063 68.649 17.4227C68.0641 17.7824 67.3792 17.9622 66.5945 17.9622ZM66.5999 16.5944C67.1086 16.5944 67.53 16.4599 67.8642 16.1911C68.1985 15.9222 68.4455 15.5644 68.6054 15.1175C68.7689 14.6706 68.8506 14.1783 68.8506 13.6406C68.8506 13.1066 68.7689 12.6161 68.6054 12.1692C68.4455 11.7187 68.1985 11.3572 67.8642 11.0848C67.53 10.8123 67.1086 10.676 66.5999 10.676C66.0877 10.676 65.6626 10.8123 65.3247 11.0848C64.9905 11.3572 64.7416 11.7187 64.5781 12.1692C64.4182 12.6161 64.3383 13.1066 64.3383 13.6406C64.3383 14.1783 64.4182 14.6706 64.5781 15.1175C64.7416 15.5644 64.9905 15.9222 65.3247 16.1911C65.6626 16.4599 66.0877 16.5944 66.5999 16.5944Z" fill="#838383"/>
<defs>
<clipPath id="clip0_1331_15237">
<rect width="15.3462" height="15.3462" fill="white" transform="translate(7.59692 4.62016)"/>
</clipPath>
</defs>
</svg>
