<svg width="21" height="20" viewBox="0 0 21 20" fill="none" xmlns="http://www.w3.org/2000/svg">
<g clip-path="url(#clip0_1314_7138)">
<path d="M10.413 12.6247C11.7708 12.6247 12.8715 11.524 12.8715 10.1663C12.8715 8.80852 11.7708 7.70785 10.413 7.70785C9.05528 7.70785 7.9546 8.80852 7.9546 10.1663C7.9546 11.524 9.05528 12.6247 10.413 12.6247Z" stroke="#63941E" stroke-width="1.96675" stroke-linecap="round" stroke-linejoin="round"/>
<path d="M15.9259 12.4012C15.8267 12.6259 15.7971 12.8752 15.841 13.1168C15.8848 13.3585 16 13.5815 16.1717 13.7571L16.2164 13.8018C16.355 13.9402 16.4649 14.1045 16.5398 14.2854C16.6148 14.4662 16.6534 14.6601 16.6534 14.8559C16.6534 15.0517 16.6148 15.2456 16.5398 15.4265C16.4649 15.6074 16.355 15.7717 16.2164 15.9101C16.0781 16.0486 15.9137 16.1585 15.7328 16.2335C15.552 16.3085 15.3581 16.3471 15.1623 16.3471C14.9665 16.3471 14.7726 16.3085 14.5917 16.2335C14.4108 16.1585 14.2465 16.0486 14.1081 15.9101L14.0634 15.8654C13.8879 15.6936 13.6649 15.5784 13.4232 15.5346C13.1815 15.4908 12.9323 15.5204 12.7076 15.6195C12.4872 15.714 12.2993 15.8708 12.1669 16.0706C12.0346 16.2705 11.9635 16.5047 11.9626 16.7444V16.8711C11.9626 17.2663 11.8056 17.6452 11.5262 17.9247C11.2468 18.2041 10.8678 18.3611 10.4726 18.3611C10.0775 18.3611 9.6985 18.2041 9.41907 17.9247C9.13965 17.6452 8.98268 17.2663 8.98268 16.8711V16.804C8.97691 16.5575 8.89709 16.3183 8.7536 16.1177C8.61011 15.9171 8.40959 15.7643 8.1781 15.6791C7.9534 15.58 7.70415 15.5504 7.46248 15.5942C7.22081 15.638 6.99781 15.7532 6.82223 15.925L6.77754 15.9697C6.63916 16.1082 6.47483 16.2181 6.29396 16.2931C6.11308 16.3681 5.91919 16.4067 5.72339 16.4067C5.52759 16.4067 5.3337 16.3681 5.15282 16.2931C4.97195 16.2181 4.80762 16.1082 4.66924 15.9697C4.53071 15.8313 4.42082 15.667 4.34583 15.4861C4.27085 15.3052 4.23226 15.1113 4.23226 14.9155C4.23226 14.7197 4.27085 14.5258 4.34583 14.345C4.42082 14.1641 4.53071 13.9998 4.66924 13.8614L4.71394 13.8167C4.88569 13.6411 5.0009 13.4181 5.04472 13.1764C5.08854 12.9348 5.05895 12.6855 4.95979 12.4608C4.86535 12.2405 4.70855 12.0526 4.50868 11.9202C4.3088 11.7878 4.07459 11.7168 3.83487 11.7158H3.70822C3.31306 11.7158 2.93408 11.5589 2.65466 11.2794C2.37524 11 2.21826 10.621 2.21826 10.2259C2.21826 9.83072 2.37524 9.45174 2.65466 9.17232C2.93408 8.8929 3.31306 8.73592 3.70822 8.73592H3.77527C4.02185 8.73015 4.261 8.65033 4.46162 8.50684C4.66224 8.36336 4.81505 8.16283 4.90019 7.93134C4.99936 7.70664 5.02894 7.45739 4.98512 7.21572C4.9413 6.97405 4.82609 6.75105 4.65434 6.57548L4.60965 6.53078C4.47111 6.3924 4.36122 6.22808 4.28624 6.0472C4.21125 5.86632 4.17266 5.67244 4.17266 5.47663C4.17266 5.28083 4.21125 5.08695 4.28624 4.90607C4.36122 4.72519 4.47111 4.56086 4.60965 4.42249C4.74802 4.28396 4.91235 4.17406 5.09323 4.09908C5.2741 4.0241 5.46799 3.9855 5.66379 3.9855C5.8596 3.9855 6.05348 4.0241 6.23436 4.09908C6.41524 4.17406 6.57956 4.28396 6.71794 4.42249L6.76264 4.46719C6.93821 4.63893 7.16121 4.75414 7.40288 4.79796C7.64455 4.84178 7.8938 4.8122 8.1185 4.71303H8.1781C8.39844 4.61859 8.58636 4.46179 8.71872 4.26192C8.85109 4.06205 8.92212 3.82783 8.92308 3.58811V3.46146C8.92308 3.0663 9.08005 2.68732 9.35948 2.4079C9.6389 2.12848 10.0179 1.9715 10.413 1.9715C10.8082 1.9715 11.1872 2.12848 11.4666 2.4079C11.746 2.68732 11.903 3.0663 11.903 3.46146V3.52851C11.904 3.76824 11.975 4.00245 12.1073 4.20232C12.2397 4.40219 12.4276 4.55899 12.648 4.65343C12.8727 4.7526 13.1219 4.78218 13.3636 4.73836C13.6053 4.69454 13.8283 4.57933 14.0038 4.40759L14.0485 4.36289C14.1869 4.22436 14.3512 4.11446 14.5321 4.03948C14.713 3.9645 14.9069 3.9259 15.1027 3.9259C15.2985 3.9259 15.4924 3.9645 15.6732 4.03948C15.8541 4.11446 16.0185 4.22436 16.1568 4.36289C16.2954 4.50127 16.4053 4.66559 16.4802 4.84647C16.5552 5.02735 16.5938 5.22123 16.5938 5.41703C16.5938 5.61284 16.5552 5.80672 16.4802 5.9876C16.4053 6.16848 16.2954 6.3328 16.1568 6.47118L16.1121 6.51588C15.9404 6.69146 15.8252 6.91446 15.7814 7.15612C15.7375 7.39779 15.7671 7.64704 15.8663 7.87174V7.93134C15.9607 8.15168 16.1175 8.3396 16.3174 8.47197C16.5173 8.60433 16.7515 8.67536 16.9912 8.67632H17.1179C17.513 8.67632 17.892 8.8333 18.1714 9.11272C18.4508 9.39214 18.6078 9.77112 18.6078 10.1663C18.6078 10.5614 18.4508 10.9404 18.1714 11.2198C17.892 11.4993 17.513 11.6562 17.1179 11.6562H17.0508C16.8111 11.6572 16.5769 11.7282 16.377 11.8606C16.1771 11.993 16.0203 12.1809 15.9259 12.4012Z" stroke="#63941E" stroke-width="1.96675" stroke-linecap="round" stroke-linejoin="round"/>
</g>
<defs>
<clipPath id="clip0_1314_7138">
<rect width="19.6675" height="19.6675" fill="white" transform="translate(0.57959 0.33255)"/>
</clipPath>
</defs>
</svg>
