<svg width="101" height="25" viewBox="0 0 101 25" fill="none" xmlns="http://www.w3.org/2000/svg">
<rect x="0.419922" y="0.144188" width="99.8079" height="24.2982" rx="2.55771" fill="#EFF2FC"/>
<g clip-path="url(#clip0_1331_15247)">
<path d="M15.7658 5.57932C14.3672 5.58097 13.0263 6.13729 12.0374 7.12624C11.0484 8.11518 10.4921 9.45601 10.4905 10.8546C10.4888 11.9975 10.8621 13.1094 11.5532 14.0198C11.5532 14.0198 11.6971 14.2092 11.7206 14.2365L15.7658 19.0073L19.8128 14.2341C19.8339 14.2087 19.9783 14.0198 19.9783 14.0198L19.9788 14.0183C20.6695 13.1084 21.0427 11.997 21.041 10.8546C21.0394 9.45601 20.4831 8.11518 19.4941 7.12624C18.5052 6.13729 17.1643 5.58097 15.7658 5.57932ZM15.7658 12.7729C15.3864 12.7729 15.0155 12.6604 14.7 12.4496C14.3846 12.2388 14.1387 11.9392 13.9935 11.5887C13.8483 11.2382 13.8103 10.8525 13.8843 10.4804C13.9583 10.1082 14.141 9.76644 14.4093 9.49816C14.6776 9.22989 15.0194 9.04719 15.3915 8.97317C15.7636 8.89915 16.1493 8.93714 16.4998 9.08233C16.8504 9.22752 17.15 9.47339 17.3607 9.78885C17.5715 10.1043 17.684 10.4752 17.684 10.8546C17.6834 11.3632 17.4811 11.8507 17.1215 12.2103C16.7619 12.5699 16.2743 12.7722 15.7658 12.7729Z" fill="#02BA09"/>
</g>
<path d="M29.7809 17.7933V6.63239H31.4648V16.3437H36.5221V17.7933H29.7809ZM41.8382 17.9622C41.0535 17.9622 40.3686 17.7824 39.7837 17.4227C39.1988 17.063 38.7446 16.5599 38.4213 15.9132C38.0979 15.2665 37.9363 14.5108 37.9363 13.6461C37.9363 12.7778 38.0979 12.0185 38.4213 11.3681C38.7446 10.7178 39.1988 10.2128 39.7837 9.85314C40.3686 9.49346 41.0535 9.31362 41.8382 9.31362C42.623 9.31362 43.3078 9.49346 43.8927 9.85314C44.4777 10.2128 44.9318 10.7178 45.2552 11.3681C45.5785 12.0185 45.7402 12.7778 45.7402 13.6461C45.7402 14.5108 45.5785 15.2665 45.2552 15.9132C44.9318 16.5599 44.4777 17.063 43.8927 17.4227C43.3078 17.7824 42.623 17.9622 41.8382 17.9622ZM41.8437 16.5944C42.3523 16.5944 42.7737 16.4599 43.108 16.1911C43.4422 15.9222 43.6893 15.5644 43.8491 15.1175C44.0126 14.6706 44.0944 14.1784 44.0944 13.6407C44.0944 13.1066 44.0126 12.6161 43.8491 12.1692C43.6893 11.7187 43.4422 11.3572 43.108 11.0848C42.7737 10.8123 42.3523 10.676 41.8437 10.676C41.3314 10.676 40.9063 10.8123 40.5685 11.0848C40.2342 11.3572 39.9853 11.7187 39.8219 12.1692C39.662 12.6161 39.5821 13.1066 39.5821 13.6407C39.5821 14.1784 39.662 14.6706 39.8219 15.1175C39.9853 15.5644 40.2342 15.9222 40.5685 16.1911C40.9063 16.4599 41.3314 16.5944 41.8437 16.5944ZM51.0849 17.9622C50.2747 17.9622 49.5772 17.7788 48.9923 17.4118C48.411 17.0412 47.9641 16.5308 47.6516 15.8805C47.3392 15.2301 47.183 14.4853 47.183 13.6461C47.183 12.796 47.3428 12.0457 47.6625 11.3954C47.9823 10.7414 48.4328 10.231 49.0141 9.86404C49.5954 9.4971 50.2802 9.31362 51.0686 9.31362C51.7044 9.31362 52.2711 9.4317 52.7689 9.66785C53.2666 9.90037 53.6681 10.2273 53.9732 10.6488C54.2821 11.0702 54.4655 11.5625 54.5237 12.1256H52.9378C52.8506 11.7333 52.6508 11.3954 52.3383 11.112C52.0295 10.8286 51.6154 10.6869 51.0958 10.6869C50.6417 10.6869 50.2439 10.8068 49.9024 11.0466C49.5645 11.2828 49.3011 11.6206 49.1122 12.0603C48.9232 12.4962 48.8288 13.0121 48.8288 13.608C48.8288 14.2183 48.9214 14.7451 49.1067 15.1884C49.292 15.6316 49.5536 15.9749 49.8915 16.2183C50.233 16.4618 50.6344 16.5835 51.0958 16.5835C51.4046 16.5835 51.6844 16.5272 51.9351 16.4145C52.1894 16.2983 52.4019 16.133 52.5727 15.9186C52.7471 15.7043 52.8688 15.4463 52.9378 15.1448H54.5237C54.4655 15.6861 54.2893 16.1693 53.995 16.5944C53.7008 17.0194 53.3066 17.3537 52.8125 17.5971C52.322 17.8405 51.7462 17.9622 51.0849 17.9622ZM58.7022 17.9786C58.1718 17.9786 57.6922 17.8805 57.2635 17.6843C56.8348 17.4845 56.4951 17.1956 56.2444 16.8178C55.9973 16.44 55.8738 15.9767 55.8738 15.4281C55.8738 14.9558 55.9646 14.5671 56.1463 14.2619C56.328 13.9567 56.5732 13.7151 56.882 13.5371C57.1908 13.3591 57.536 13.2247 57.9174 13.1338C58.2989 13.043 58.6877 12.974 59.0837 12.9267C59.585 12.8686 59.9919 12.8214 60.3044 12.7851C60.6168 12.7451 60.8439 12.6815 60.9856 12.5943C61.1273 12.5071 61.1981 12.3654 61.1981 12.1692V12.1311C61.1981 11.6552 61.0637 11.2864 60.7949 11.0248C60.5296 10.7632 60.1336 10.6324 59.6068 10.6324C59.0582 10.6324 58.6259 10.7541 58.3098 10.9976C57.9974 11.2374 57.7812 11.5044 57.6613 11.7987L56.1299 11.4499C56.3116 10.9413 56.5768 10.5307 56.9256 10.2183C57.278 9.90219 57.6831 9.6733 58.1409 9.53161C58.5986 9.38629 59.08 9.31362 59.585 9.31362C59.9193 9.31362 60.2735 9.35359 60.6477 9.43352C61.0256 9.50981 61.378 9.6515 61.7049 9.85859C62.0356 10.0657 62.3062 10.3618 62.5169 10.7469C62.7277 11.1284 62.833 11.6243 62.833 12.2346V17.7933H61.2417V16.6489H61.1763C61.071 16.8596 60.9129 17.0667 60.7022 17.2701C60.4915 17.4736 60.2208 17.6425 59.8902 17.7769C59.5596 17.9114 59.1636 17.9786 58.7022 17.9786ZM59.0564 16.6707C59.5069 16.6707 59.892 16.5816 60.2117 16.4036C60.5351 16.2256 60.7803 15.9931 60.9474 15.7061C61.1182 15.4154 61.2036 15.1048 61.2036 14.7742V13.6951C61.1454 13.7533 61.0328 13.8078 60.8657 13.8586C60.7022 13.9059 60.5151 13.9476 60.3044 13.984C60.0937 14.0167 59.8884 14.0476 59.6886 14.0766C59.4888 14.1021 59.3216 14.1239 59.1872 14.142C58.8711 14.182 58.5823 14.2492 58.3207 14.3437C58.0628 14.4381 57.8557 14.5744 57.6994 14.7524C57.5469 14.9268 57.4706 15.1593 57.4706 15.4499C57.4706 15.8532 57.6195 16.1584 57.9174 16.3655C58.2154 16.5689 58.595 16.6707 59.0564 16.6707ZM68.9108 9.42262V10.7305H64.3385V9.42262H68.9108ZM65.5647 7.41714H67.1941V15.3355C67.1941 15.6516 67.2413 15.8895 67.3358 16.0494C67.4303 16.2056 67.552 16.3128 67.7009 16.3709C67.8535 16.4254 68.0188 16.4527 68.1969 16.4527C68.3276 16.4527 68.4421 16.4436 68.5402 16.4254C68.6383 16.4073 68.7146 16.3927 68.7691 16.3818L69.0633 17.7279C68.9689 17.7642 68.8345 17.8006 68.6601 17.8369C68.4857 17.8769 68.2677 17.8986 68.0061 17.9023C67.5774 17.9095 67.1778 17.8333 66.8072 17.6734C66.4366 17.5135 66.1369 17.2665 65.908 16.9322C65.6791 16.598 65.5647 16.1784 65.5647 15.6734V7.41714ZM70.7132 17.7933V9.42262H72.3427V17.7933H70.7132ZM71.5361 8.13105C71.2527 8.13105 71.0093 8.03659 70.8059 7.84767C70.6061 7.65511 70.5061 7.42623 70.5061 7.16101C70.5061 6.89216 70.6061 6.66327 70.8059 6.47435C71.0093 6.2818 71.2527 6.18552 71.5361 6.18552C71.8195 6.18552 72.0611 6.2818 72.2609 6.47435C72.4644 6.66327 72.5661 6.89216 72.5661 7.16101C72.5661 7.42623 72.4644 7.65511 72.2609 7.84767C72.0611 8.03659 71.8195 8.13105 71.5361 8.13105ZM78.0607 17.9622C77.276 17.9622 76.5911 17.7824 76.0062 17.4227C75.4213 17.063 74.9671 16.5599 74.6438 15.9132C74.3204 15.2665 74.1588 14.5108 74.1588 13.6461C74.1588 12.7778 74.3204 12.0185 74.6438 11.3681C74.9671 10.7178 75.4213 10.2128 76.0062 9.85314C76.5911 9.49346 77.276 9.31362 78.0607 9.31362C78.8455 9.31362 79.5303 9.49346 80.1152 9.85314C80.7002 10.2128 81.1543 10.7178 81.4777 11.3681C81.801 12.0185 81.9627 12.7778 81.9627 13.6461C81.9627 14.5108 81.801 15.2665 81.4777 15.9132C81.1543 16.5599 80.7002 17.063 80.1152 17.4227C79.5303 17.7824 78.8455 17.9622 78.0607 17.9622ZM78.0662 16.5944C78.5748 16.5944 78.9963 16.4599 79.3305 16.1911C79.6647 15.9222 79.9118 15.5644 80.0717 15.1175C80.2351 14.6706 80.3169 14.1784 80.3169 13.6407C80.3169 13.1066 80.2351 12.6161 80.0717 12.1692C79.9118 11.7187 79.6647 11.3572 79.3305 11.0848C78.9963 10.8123 78.5748 10.676 78.0662 10.676C77.5539 10.676 77.1288 10.8123 76.791 11.0848C76.4567 11.3572 76.2078 11.7187 76.0444 12.1692C75.8845 12.6161 75.8046 13.1066 75.8046 13.6407C75.8046 14.1784 75.8845 14.6706 76.0444 15.1175C76.2078 15.5644 76.4567 15.9222 76.791 16.1911C77.1288 16.4599 77.5539 16.5944 78.0662 16.5944ZM85.411 12.8232V17.7933H83.7815V9.42262H85.3456V10.785H85.4491C85.6417 10.3418 85.9432 9.98575 86.3537 9.7169C86.7679 9.44805 87.2893 9.31362 87.9178 9.31362C88.4882 9.31362 88.9877 9.43352 89.4164 9.6733C89.8452 9.90945 90.1776 10.2619 90.4137 10.7305C90.6499 11.1992 90.768 11.7787 90.768 12.469V17.7933H89.1385V12.6652C89.1385 12.0584 88.9805 11.5843 88.6644 11.2428C88.3483 10.8977 87.9142 10.7251 87.3619 10.7251C86.9841 10.7251 86.648 10.8068 86.3537 10.9703C86.0631 11.1338 85.8324 11.3736 85.6616 11.6897C85.4945 12.0021 85.411 12.38 85.411 12.8232Z" fill="#838383"/>
<defs>
<clipPath id="clip0_1331_15247">
<rect width="15.3462" height="15.3462" fill="white" transform="translate(8.09302 4.62019)"/>
</clipPath>
</defs>
</svg>
