<svg width="79" height="25" viewBox="0 0 79 25" fill="none" xmlns="http://www.w3.org/2000/svg">
<rect x="0.621094" y="0.144188" width="78.01" height="24.2982" rx="2.55771" fill="#EFF2FC"/>
<path d="M16.8921 15.9976H10.0127C9.73201 15.9976 9.46281 15.8861 9.26433 15.6877C9.06585 15.4892 8.95435 15.22 8.95435 14.9393V9.64747C8.95435 9.36678 9.06585 9.09758 9.26433 8.8991C9.46281 8.70062 9.73201 8.58911 10.0127 8.58911H16.8921C17.1727 8.58911 17.4419 8.70062 17.6404 8.8991C17.8389 9.09758 17.9504 9.36678 17.9504 9.64747V14.9393C17.9504 15.22 17.8389 15.4892 17.6404 15.6877C17.4419 15.8861 17.1727 15.9976 16.8921 15.9976Z" fill="#02BA09"/>
<path d="M19.0083 10.7058V13.8808L21.3605 15.4493C21.4402 15.5025 21.5329 15.5331 21.6287 15.5377C21.7244 15.5423 21.8196 15.5209 21.9041 15.4756C21.9886 15.4303 22.0592 15.363 22.1084 15.2807C22.1576 15.1985 22.1835 15.1044 22.1834 15.0085V9.57807C22.1834 9.48227 22.1574 9.38826 22.1082 9.30607C22.0589 9.22388 21.9883 9.1566 21.9039 9.1114C21.8194 9.06621 21.7242 9.04479 21.6285 9.04944C21.5328 9.05408 21.4402 9.08462 21.3605 9.13779L19.0083 10.7058Z" fill="#02BA09"/>
<path d="M30.5586 6.63239L33.6649 15.7224H33.7902L36.8965 6.63239H38.7167L34.7003 17.7933H32.7548L28.7384 6.63239H30.5586ZM40.1977 17.7933V9.42262H41.8271V17.7933H40.1977ZM41.0206 8.13105C40.7372 8.13105 40.4938 8.03659 40.2903 7.84767C40.0905 7.65511 39.9906 7.42623 39.9906 7.16101C39.9906 6.89216 40.0905 6.66327 40.2903 6.47435C40.4938 6.2818 40.7372 6.18552 41.0206 6.18552C41.304 6.18552 41.5456 6.2818 41.7454 6.47435C41.9488 6.66327 42.0506 6.89216 42.0506 7.16101C42.0506 7.42623 41.9488 7.65511 41.7454 7.84767C41.5456 8.03659 41.304 8.13105 41.0206 8.13105ZM47.1528 17.9568C46.477 17.9568 45.8739 17.7842 45.3435 17.4391C44.8167 17.0903 44.4025 16.5944 44.101 15.9513C43.8031 15.3046 43.6541 14.5289 43.6541 13.6243C43.6541 12.7197 43.8049 11.9458 44.1064 11.3027C44.4116 10.6597 44.8294 10.1674 45.3599 9.82589C45.8903 9.48438 46.4916 9.31362 47.1637 9.31362C47.6832 9.31362 48.101 9.40082 48.4171 9.57521C48.7368 9.74596 48.9839 9.94578 49.1583 10.1747C49.3363 10.4036 49.4744 10.6052 49.5724 10.7796H49.6705V6.63239H51.3V17.7933H49.7087V16.4908H49.5724C49.4744 16.6688 49.3327 16.8723 49.1474 17.1012C48.9657 17.3301 48.715 17.5299 48.3953 17.7006C48.0756 17.8714 47.6614 17.9568 47.1528 17.9568ZM47.5125 16.5671C47.9811 16.5671 48.3772 16.4436 48.7005 16.1965C49.0275 15.9459 49.2745 15.5989 49.4417 15.1557C49.6124 14.7124 49.6978 14.1965 49.6978 13.608C49.6978 13.0267 49.6142 12.518 49.4471 12.082C49.28 11.6461 49.0347 11.3064 48.7114 11.063C48.3881 10.8195 47.9884 10.6978 47.5125 10.6978C47.022 10.6978 46.6133 10.825 46.2863 11.0793C45.9593 11.3336 45.7123 11.6806 45.5452 12.1202C45.3817 12.5598 45.2999 13.0557 45.2999 13.608C45.2999 14.1675 45.3835 14.6706 45.5506 15.1175C45.7177 15.5644 45.9648 15.9186 46.2918 16.1802C46.6224 16.4381 47.0293 16.5671 47.5125 16.5671ZM57.2333 17.9622C56.4086 17.9622 55.6983 17.786 55.1025 17.4336C54.5103 17.0776 54.0525 16.578 53.7292 15.935C53.4095 15.2883 53.2496 14.5308 53.2496 13.6624C53.2496 12.805 53.4095 12.0494 53.7292 11.3954C54.0525 10.7414 54.503 10.231 55.0807 9.86404C55.662 9.4971 56.3414 9.31362 57.1189 9.31362C57.5912 9.31362 58.0489 9.39174 58.4922 9.54796C58.9354 9.70418 59.3332 9.94942 59.6856 10.2837C60.0381 10.6179 60.316 11.0521 60.5194 11.5861C60.7229 12.1166 60.8246 12.7614 60.8246 13.5208V14.0984H54.1706V12.8777H59.2279C59.2279 12.449 59.1407 12.0693 58.9663 11.7387C58.7919 11.4045 58.5467 11.1411 58.2306 10.9485C57.9181 10.756 57.5512 10.6597 57.1298 10.6597C56.672 10.6597 56.2723 10.7723 55.9308 10.9976C55.593 11.2192 55.3314 11.5098 55.1461 11.8695C54.9644 12.2256 54.8736 12.6125 54.8736 13.0303V13.984C54.8736 14.5435 54.9717 15.0194 55.1679 15.4118C55.3677 15.8042 55.6456 16.1039 56.0017 16.311C56.3577 16.5144 56.7737 16.6162 57.2496 16.6162C57.5585 16.6162 57.84 16.5726 58.0943 16.4854C58.3487 16.3945 58.5685 16.2601 58.7538 16.0821C58.939 15.9041 59.0807 15.6843 59.1788 15.4227L60.7211 15.7006C60.5976 16.1548 60.3759 16.5526 60.0562 16.8941C59.7401 17.232 59.3423 17.4954 58.8627 17.6843C58.3868 17.8696 57.8437 17.9622 57.2333 17.9622ZM66.1585 17.9622C65.3737 17.9622 64.6889 17.7824 64.104 17.4227C63.519 17.063 63.0649 16.5599 62.7415 15.9132C62.4182 15.2665 62.2565 14.5108 62.2565 13.6461C62.2565 12.7778 62.4182 12.0185 62.7415 11.3681C63.0649 10.7178 63.519 10.2128 64.104 9.85314C64.6889 9.49346 65.3737 9.31362 66.1585 9.31362C66.9432 9.31362 67.6281 9.49346 68.213 9.85314C68.7979 10.2128 69.2521 10.7178 69.5754 11.3681C69.8988 12.0185 70.0604 12.7778 70.0604 13.6461C70.0604 14.5108 69.8988 15.2665 69.5754 15.9132C69.2521 16.5599 68.7979 17.063 68.213 17.4227C67.6281 17.7824 66.9432 17.9622 66.1585 17.9622ZM66.1639 16.5944C66.6726 16.5944 67.094 16.4599 67.4282 16.1911C67.7625 15.9222 68.0095 15.5644 68.1694 15.1175C68.3329 14.6706 68.4146 14.1784 68.4146 13.6407C68.4146 13.1066 68.3329 12.6161 68.1694 12.1692C68.0095 11.7187 67.7625 11.3572 67.4282 11.0848C67.094 10.8123 66.6726 10.676 66.1639 10.676C65.6517 10.676 65.2266 10.8123 64.8887 11.0848C64.5545 11.3572 64.3056 11.7187 64.1421 12.1692C63.9822 12.6161 63.9023 13.1066 63.9023 13.6407C63.9023 14.1784 63.9822 14.6706 64.1421 15.1175C64.3056 15.5644 64.5545 15.9222 64.8887 16.1911C65.2266 16.4599 65.6517 16.5944 66.1639 16.5944Z" fill="#838383"/>
</svg>
