<svg width="14" height="14" viewBox="0 0 14 14" fill="none" xmlns="http://www.w3.org/2000/svg">
<path d="M6.66667 12.334C9.6 12.334 12 9.93398 12 7.00065C12 4.06732 9.6 1.66732 6.66667 1.66732C3.73333 1.66732 1.33333 4.06732 1.33333 7.00065C1.33333 9.93398 3.73333 12.334 6.66667 12.334ZM6.66667 0.333984C10.3333 0.333984 13.3333 3.33398 13.3333 7.00065C13.3333 10.6673 10.3333 13.6673 6.66667 13.6673C3 13.6673 0 10.6673 0 7.00065C0 3.33398 3 0.333984 6.66667 0.333984ZM10 6.66732V7.66732H6V3.66732H7V6.66732H10Z" fill="#AFB8CF"/>
</svg>
