<svg width="38" height="50" viewBox="0 0 38 50" fill="none" xmlns="http://www.w3.org/2000/svg">
<g filter="url(#filter0_d_2705_11470)">
<path d="M19.1118 16.75C20.3421 16.75 21.3487 15.7938 21.3487 14.625C21.3487 13.4562 20.3421 12.5 19.1118 12.5C17.8816 12.5 16.875 13.4562 16.875 14.625C16.875 15.7938 17.8816 16.75 19.1118 16.75ZM19.1118 18.875C17.8816 18.875 16.875 19.8313 16.875 21C16.875 22.1687 17.8816 23.125 19.1118 23.125C20.3421 23.125 21.3487 22.1687 21.3487 21C21.3487 19.8313 20.3421 18.875 19.1118 18.875ZM19.1118 25.25C17.8816 25.25 16.875 26.2063 16.875 27.375C16.875 28.5438 17.8816 29.5 19.1118 29.5C20.3421 29.5 21.3487 28.5438 21.3487 27.375C21.3487 26.2063 20.3421 25.25 19.1118 25.25Z" fill="#1A1A1B"/>
</g>
<defs>
<filter id="filter0_d_2705_11470" x="-14" y="-8" width="66" height="66" filterUnits="userSpaceOnUse" color-interpolation-filters="sRGB">
<feFlood flood-opacity="0" result="BackgroundImageFix"/>
<feColorMatrix in="SourceAlpha" type="matrix" values="0 0 0 0 0 0 0 0 0 0 0 0 0 0 0 0 0 0 127 0" result="hardAlpha"/>
<feOffset dy="4"/>
<feGaussianBlur stdDeviation="8"/>
<feComposite in2="hardAlpha" operator="out"/>
<feColorMatrix type="matrix" values="0 0 0 0 0.85098 0 0 0 0 0.85098 0 0 0 0 0.85098 0 0 0 0.32 0"/>
<feBlend mode="normal" in2="BackgroundImageFix" result="effect1_dropShadow_2705_11470"/>
<feBlend mode="normal" in="SourceGraphic" in2="effect1_dropShadow_2705_11470" result="shape"/>
</filter>
</defs>
</svg>
