<svg width="20" height="20" viewBox="0 0 20 20" fill="none" xmlns="http://www.w3.org/2000/svg">
<path d="M10.0738 0C4.78375 0 0.5 4.29333 0.5 9.58333C0.5 14.8733 4.78375 19.1667 10.0738 19.1667C15.3733 19.1667 19.6667 14.8733 19.6667 9.58333C19.6667 4.29333 15.3733 0 10.0738 0ZM6.72917 5.75C7.52458 5.75 8.16667 6.39208 8.16667 7.1875C8.16667 7.98292 7.52458 8.625 6.72917 8.625C5.93375 8.625 5.29167 7.98292 5.29167 7.1875C5.29167 6.39208 5.93375 5.75 6.72917 5.75ZM10.0833 15.3333C7.89833 15.3333 6.03917 13.7425 5.29167 11.5H14.875C14.1275 13.7425 12.2683 15.3333 10.0833 15.3333ZM13.4375 8.625C12.6421 8.625 12 7.98292 12 7.1875C12 6.39208 12.6421 5.75 13.4375 5.75C14.2329 5.75 14.875 6.39208 14.875 7.1875C14.875 7.98292 14.2329 8.625 13.4375 8.625Z" fill="#2CC84A"/>
</svg>
