<svg width="22" height="21" viewBox="0 0 22 21" fill="none" xmlns="http://www.w3.org/2000/svg">
<path d="M21.5423 9.58398C21.5423 9.07565 21.3404 8.58814 20.9809 8.2287C20.6215 7.86925 20.134 7.66732 19.6256 7.66732H13.569L14.489 3.28773C14.5081 3.1919 14.5177 3.08648 14.5177 2.98107C14.5177 2.58815 14.3548 2.22398 14.0961 1.96523L13.0802 0.958984L6.7744 7.26482C6.41982 7.6194 6.20898 8.09857 6.20898 8.62565V18.209C6.20898 18.7173 6.41092 19.2048 6.77036 19.5643C7.12981 19.9237 7.61732 20.1257 8.12565 20.1257H16.7506C17.5461 20.1257 18.2265 19.6465 18.514 18.9565L21.4081 12.2002C21.4944 11.9798 21.5423 11.7498 21.5423 11.5007V9.58398ZM0.458984 20.1257H4.29232V8.62565H0.458984V20.1257Z" fill="#2CC84A"/>
</svg>
