<svg width="24" height="23" viewBox="0 0 24 23" fill="none" xmlns="http://www.w3.org/2000/svg">
<path d="M12.1508 13.5C11.3522 13.5 10.6734 13.2205 10.1144 12.6615C9.55535 12.1024 9.27583 11.4236 9.27583 10.625V4.875C9.27583 4.07639 9.55535 3.39757 10.1144 2.83854C10.6734 2.27951 11.3522 2 12.1508 2C12.9494 2 13.6283 2.27951 14.1873 2.83854C14.7463 3.39757 15.0258 4.07639 15.0258 4.875V10.625C15.0258 11.4236 14.7463 12.1024 14.1873 12.6615C13.6283 13.2205 12.9494 13.5 12.1508 13.5ZM12.1508 20.2083C11.8793 20.2083 11.6519 20.1163 11.4685 19.9323C11.2845 19.749 11.1925 19.5215 11.1925 19.25V17.2375C9.70708 17.0458 8.44528 16.4309 7.40708 15.3927C6.36889 14.3545 5.73799 13.1087 5.51437 11.6552C5.46646 11.3837 5.53833 11.1441 5.73 10.9365C5.92167 10.7288 6.17722 10.625 6.49667 10.625C6.72028 10.625 6.91993 10.7087 7.09562 10.8761C7.27132 11.0441 7.38312 11.2479 7.43104 11.4875C7.63868 12.6056 8.18174 13.5399 9.06021 14.2906C9.93868 15.0413 10.9689 15.4167 12.1508 15.4167C13.3328 15.4167 14.363 15.0413 15.2415 14.2906C16.1199 13.5399 16.663 12.6056 16.8706 11.4875C16.9185 11.2479 17.0345 11.0441 17.2185 10.8761C17.4019 10.7087 17.6053 10.625 17.829 10.625C18.1324 10.625 18.38 10.7288 18.5717 10.9365C18.7633 11.1441 18.8352 11.3837 18.7873 11.6552C18.5637 13.1087 17.9328 14.3545 16.8946 15.3927C15.8564 16.4309 14.5946 17.0458 13.1092 17.2375V19.25C13.1092 19.5215 13.0175 19.749 12.8341 19.9323C12.6501 20.1163 12.4224 20.2083 12.1508 20.2083Z" fill="#2CC84A"/>
</svg>
